<svg viewBox="0 0 85.725 85.725" xml:space="preserve" xmlns="http://www.w3.org/2000/svg"><defs><clipPath clipPathUnits="userSpaceOnUse" id="a"><path d="M254 385h8v10h-8z"/></clipPath><clipPath clipPathUnits="userSpaceOnUse" id="b"><path d="m255.645 394.633-1.286-8.137 5.618-.84 1.281 8.137z"/></clipPath><clipPath clipPathUnits="userSpaceOnUse" id="c"><path d="M0 0h596v842H0Z"/></clipPath><clipPath clipPathUnits="userSpaceOnUse" id="d"><path d="M227 337h66v80h-66z"/></clipPath><clipPath clipPathUnits="userSpaceOnUse" id="e"><path d="M227.52 337.617h64.5v78.789h-64.5zm34.789 12.738-22.278.438-3.914 44.828.852 11.449 9.269-1.226 2.379-6.289 3.317-14.332.086-11.711z"/></clipPath><clipPath clipPathUnits="userSpaceOnUse" id="f"><path d="M0 0h596v842H0Z"/></clipPath><clipPath clipPathUnits="userSpaceOnUse" id="g"><path d="M230.852 379.625h135.293v10.145H230.852Zm18.953 10.145h116.34v73.414h-116.34zm-18.953 0h4.488v73.414h-4.488zm0 73.414h135.293v14.964H230.852Z"/></clipPath><clipPath clipPathUnits="userSpaceOnUse" id="h"><path d="M0 0h596v842H0Z"/></clipPath><clipPath clipPathUnits="userSpaceOnUse" id="i"><path d="M283 445h31v31h-31z"/></clipPath><clipPath clipPathUnits="userSpaceOnUse" id="j"><path d="M283.043 445.035h30.234v30.235h-30.234zm14.719 14.59.679-1.582"/></clipPath><clipPath clipPathUnits="userSpaceOnUse" id="k"><path d="M0 0h596v842H0Z"/></clipPath><clipPath clipPathUnits="userSpaceOnUse" id="l"><path d="M281 435h46v45h-46z"/></clipPath><clipPath clipPathUnits="userSpaceOnUse" id="m"><path d="M281.449 435.031h44.903v44.903h-44.903zm21.863 21.672 1.012-2.351"/></clipPath><clipPath clipPathUnits="userSpaceOnUse" id="n"><path d="M0 0h596v842H0Z"/></clipPath><clipPath clipPathUnits="userSpaceOnUse" id="o"><path d="M294 438h32v31h-32z"/></clipPath><clipPath clipPathUnits="userSpaceOnUse" id="p"><path d="M294.816 438.305h30.235v30.234h-30.235zm14.723 14.593.68-1.582"/></clipPath><clipPath clipPathUnits="userSpaceOnUse" id="q"><path d="M0 0h596v842H0Z"/></clipPath><clipPath clipPathUnits="userSpaceOnUse" id="r"><path d="M292 425h46v45h-46z"/></clipPath><clipPath clipPathUnits="userSpaceOnUse" id="s"><path d="M292.594 425.051h44.902v44.902h-44.902zm21.863 21.672 1.008-2.352"/></clipPath><clipPath clipPathUnits="userSpaceOnUse" id="t"><path d="M0 0h596v842H0Z"/></clipPath><clipPath clipPathUnits="userSpaceOnUse" id="u"><path d="M298 424h34v33h-34z"/></clipPath><clipPath clipPathUnits="userSpaceOnUse" id="v"><path d="M298.59 424.316h32.676v32.68H298.59Zm15.91 15.77.734-1.711"/></clipPath><clipPath clipPathUnits="userSpaceOnUse" id="w"><path d="M0 0h596v842H0Z"/></clipPath><clipPath clipPathUnits="userSpaceOnUse" id="x"><path d="M289 417h43v43h-43z"/></clipPath><clipPath clipPathUnits="userSpaceOnUse" id="y"><path d="M289.117 417.281h42.457v42.457h-42.457zm20.672 20.489.953-2.223"/></clipPath><clipPath clipPathUnits="userSpaceOnUse" id="z"><path d="M0 0h596v842H0Z"/></clipPath><clipPath clipPathUnits="userSpaceOnUse" id="A"><path d="M292 410h43v44h-43z"/></clipPath><clipPath clipPathUnits="userSpaceOnUse" id="B"><path d="M292.48 410.551h42.458v42.457H292.48Zm20.676 20.492.953-2.223"/></clipPath><clipPath clipPathUnits="userSpaceOnUse" id="C"><path d="M0 0h596v842H0Z"/></clipPath><clipPath clipPathUnits="userSpaceOnUse" id="D"><path d="M262 416h65v65h-65z"/></clipPath><clipPath clipPathUnits="userSpaceOnUse" id="E"><path d="M262.508 416.09h64.461v64.461h-64.461zm31.387 31.109 1.445-3.375"/></clipPath><clipPath clipPathUnits="userSpaceOnUse" id="F"><path d="M0 0h596v842H0Z"/></clipPath><clipPath clipPathUnits="userSpaceOnUse" id="G"><path d="M281 425h34v34h-34z"/></clipPath><clipPath clipPathUnits="userSpaceOnUse" id="H"><path d="M281.938 425.426h32.675v32.679h-32.675zm15.91 15.769.734-1.711"/></clipPath><clipPath clipPathUnits="userSpaceOnUse" id="I"><path d="M0 0h596v842H0Z"/></clipPath><clipPath clipPathUnits="userSpaceOnUse" id="J"><path d="M278 413h41v41h-41z"/></clipPath><clipPath clipPathUnits="userSpaceOnUse" id="K"><path d="M278.617 413.695h40.012v40.012h-40.012zm19.485 19.309.898-2.094"/></clipPath><clipPath clipPathUnits="userSpaceOnUse" id="L"><path d="M0 0h596v842H0Z"/></clipPath><clipPath clipPathUnits="userSpaceOnUse" id="M"><path d="M264 403h53v53h-53z"/></clipPath><clipPath clipPathUnits="userSpaceOnUse" id="N"><path d="M264.676 403.117h52.234v52.238h-52.234zm25.433 25.211 1.172-2.734"/></clipPath><clipPath clipPathUnits="userSpaceOnUse" id="O"><path d="M0 0h596v842H0Z"/></clipPath><clipPath clipPathUnits="userSpaceOnUse" id="P"><path d="M278 406h38v38h-38z"/></clipPath><clipPath clipPathUnits="userSpaceOnUse" id="Q"><path d="M278.039 406.391h37.57v37.57h-37.57zm18.293 18.132.844-1.968"/></clipPath><clipPath clipPathUnits="userSpaceOnUse" id="R"><path d="M0 0h596v842H0Z"/></clipPath><clipPath clipPathUnits="userSpaceOnUse" id="S"><path d="M304 408h28v29h-28z"/></clipPath><clipPath clipPathUnits="userSpaceOnUse" id="T"><path d="M304.164 408.777h27.789v27.789h-27.789zm13.531 13.414.625-1.457"/></clipPath><clipPath clipPathUnits="userSpaceOnUse" id="U"><path d="M0 0h596v842H0Z"/></clipPath><clipPath clipPathUnits="userSpaceOnUse" id="V"><path d="M309 413h28v29h-28z"/></clipPath><clipPath clipPathUnits="userSpaceOnUse" id="W"><path d="M309.211 413.824H337v27.789h-27.789zm13.531 13.41.625-1.453"/></clipPath><clipPath clipPathUnits="userSpaceOnUse" id="X"><path d="M0 0h596v842H0Z"/></clipPath><clipPath clipPathUnits="userSpaceOnUse" id="Y"><path d="M283 403h34v34h-34z"/></clipPath><clipPath clipPathUnits="userSpaceOnUse" id="Z"><path d="M283.617 403.559h32.68v32.675h-32.68zm15.914 15.769.731-1.711"/></clipPath><clipPath clipPathUnits="userSpaceOnUse" id="aa"><path d="M0 0h596v842H0Z"/></clipPath><clipPath clipPathUnits="userSpaceOnUse" id="ab"><path d="M281 424h46v46h-46z"/></clipPath><clipPath clipPathUnits="userSpaceOnUse" id="ac"><path d="M281.449 424.941h44.903v44.903h-44.903zm21.863 21.668 1.012-2.351"/></clipPath><clipPath clipPathUnits="userSpaceOnUse" id="ad"><path d="M0 0h596v842H0Z"/></clipPath><clipPath clipPathUnits="userSpaceOnUse" id="ae"><path d="M285 409h36v36h-36z"/></clipPath><clipPath clipPathUnits="userSpaceOnUse" id="af"><path d="M285.875 409.18H321v35.125h-35.125zm17.102 16.949.789-1.836"/></clipPath><clipPath clipPathUnits="userSpaceOnUse" id="ag"><path d="M0 0h596v842H0Z"/></clipPath><clipPath clipPathUnits="userSpaceOnUse" id="ah"><path d="M285 420h36v37h-36z"/></clipPath><clipPath clipPathUnits="userSpaceOnUse" id="ai"><path d="M285.875 420.953H321v35.125h-35.125zm17.102 16.953.789-1.84"/></clipPath><clipPath clipPathUnits="userSpaceOnUse" id="aj"><path d="M0 0h596v842H0Z"/></clipPath><clipPath clipPathUnits="userSpaceOnUse" id="ak"><path d="M290 404h37v36h-37z"/></clipPath><clipPath clipPathUnits="userSpaceOnUse" id="al"><path d="M290.922 404.133h35.125v35.125h-35.125zm17.101 16.949.789-1.836"/></clipPath><clipPath clipPathUnits="userSpaceOnUse" id="am"><path d="M0 0h596v842H0Z"/></clipPath><clipPath clipPathUnits="userSpaceOnUse" id="an"><path d="M292 418h29v29h-29z"/></clipPath><clipPath clipPathUnits="userSpaceOnUse" id="ao"><path d="M292.391 418.871h27.789v27.789h-27.789zm13.531 13.41.625-1.453"/></clipPath><clipPath clipPathUnits="userSpaceOnUse" id="ap"><path d="M0 0h596v842H0Z"/></clipPath><clipPath clipPathUnits="userSpaceOnUse" id="aq"><path d="M291 403h27v26h-27z"/></clipPath><clipPath clipPathUnits="userSpaceOnUse" id="ar"><path d="M291.984 403.512h25.344v25.343h-25.344zm12.34 12.23.571-1.324"/></clipPath><clipPath clipPathUnits="userSpaceOnUse" id="as"><path d="M0 0h596v842H0Z"/></clipPath><clipPath clipPathUnits="userSpaceOnUse" id="at"><path d="M281 451h24v24h-24z"/></clipPath><clipPath clipPathUnits="userSpaceOnUse" id="au"><path d="M281.312 451.719h22.903v22.898h-22.903zm11.153 11.051.515-1.2"/></clipPath><clipPath clipPathUnits="userSpaceOnUse" id="av"><path d="M0 0h596v842H0Z"/></clipPath><clipPath clipPathUnits="userSpaceOnUse" id="aw"><path d="M297 404h21v21h-21z"/></clipPath><clipPath clipPathUnits="userSpaceOnUse" id="ax"><path d="M297.695 404.176h20.157v20.16h-20.157zm9.817 9.73.449-1.054"/></clipPath><clipPath clipPathUnits="userSpaceOnUse" id="ay"><path d="M0 0h596v842H0Z"/></clipPath></defs><circle style="display:inline;fill:#fff;fill-opacity:0;stroke:#ec008c;stroke-width:1.05834;stroke-linejoin:round;stroke-dasharray:none;stroke-opacity:1;paint-order:normal" cx="42.863" cy="42.862" r="42.334"/><circle style="display:inline;fill:none;stroke:#00a4e0;stroke-width:1.02568;stroke-linejoin:round;stroke-dasharray:none;stroke-opacity:1;paint-order:stroke fill markers" cx="42.863" cy="42.862" r="41.027"/><path d="m15.582 58.01-1.43-1.912-.369.066c-.489.087 2.081-.733 2.82-.901l.577-.132-.053 2.338c-.03 1.286-.068 2.363-.084 2.395-.017.03-.676-.805-1.461-1.855zm3.657-1.21c-1.066-1.264-1.522-1.857-1.469-1.91.043-.042.724-.308 1.515-.59 1.347-.48 1.435-.502 1.426-.359-.006.083.03 1.167.077 2.408.048 1.24.068 2.261.043 2.27-.025.008-.742-.811-1.592-1.818zm-7.66 2.23c-.738-1.115-1.322-2.042-1.3-2.061.062-.051 2.997-.753 3.045-.728.045.022-.32 4.654-.373 4.756-.016.033-.634-.852-1.372-1.967zm11.42-3.755c-1.576-1.454-1.802-1.634-1.98-1.586-.11.032.439-.274 1.219-.678a181.218 181.218 0 0 0 1.678-.875c.152-.084.227-.102.183-.046-.045.06.073.965.294 2.238.204 1.177.373 2.241.378 2.364.01.2-.189.042-1.771-1.417zM7.79 59.941c-.623-1.08-1.192-2.038-1.262-2.126-.124-.152-.116-.161.143-.197.434-.06 2.857-.517 3.14-.593.247-.066.249-.065.046.035-.193.093-.237.296-.544 2.465-.185 1.3-.348 2.368-.363 2.372-.015.007-.537-.875-1.16-1.956z" style="fill:#00a4e0;fill-opacity:1;fill-rule:nonzero;stroke:none;stroke-width:.35278"/><path d="M34.005 32.59c.56-3.66 3.393-2.587 2.053-1.393-.435.378-2.053 1.392-2.053 1.392z" style="display:inline;fill:#ffba00;fill-opacity:1;fill-rule:nonzero;stroke:#ffba00;stroke-width:.0486302;stroke-linecap:butt;stroke-linejoin:miter;stroke-miterlimit:4;stroke-dasharray:none;stroke-opacity:1"/><path d="M35.885 30.208c1.13.397-.998 1.608-1.694 2.05.367-2.093 1.694-2.05 1.694-2.05z" style="display:inline;fill:#fd5;fill-opacity:1;fill-rule:nonzero;stroke:#fd5;stroke-width:.0486302;stroke-linecap:butt;stroke-linejoin:miter;stroke-miterlimit:4;stroke-dasharray:none;stroke-opacity:1"/><path d="m71.45 33.178-1.87-1.509-.341.153c-.45.203 1.83-1.211 2.504-1.551l.526-.266.542 2.279c.296 1.253.533 2.305.525 2.34-.01.034-.857-.616-1.887-1.446zm3.238-2.05c-1.355-.97-1.946-1.434-1.907-1.498.03-.051.622-.473 1.317-.936 1.183-.79 1.263-.832 1.291-.692.015.083.324 1.123.685 2.314.361 1.19.64 2.176.617 2.19-.022.015-.923-.607-2.003-1.378zM67.83 35.13c-.997-.903-1.8-1.66-1.781-1.685.046-.064 2.712-1.45 2.765-1.438.049.01.871 4.586.845 4.698-.008.036-.831-.672-1.829-1.575zm10.115-6.386c-1.896-1.03-2.16-1.15-2.32-1.061-.1.056.354-.37 1.008-.95a163.273 163.273 0 0 0 1.403-1.252c.126-.117.195-.153.167-.087-.029.067.316.916.852 2.097.496 1.092.93 2.081.966 2.2.058.191-.172.086-2.076-.947zm-13.557 8.18c-.878-.899-1.67-1.688-1.763-1.757-.157-.117-.152-.13.09-.226.405-.161 2.638-1.188 2.893-1.329.221-.123.224-.123.052.021-.163.138-.154.346.098 2.52.151 1.304.264 2.378.25 2.387-.015.009-.742-.719-1.62-1.616z" style="fill:#00a4e0;fill-opacity:1;fill-rule:nonzero;stroke:none;stroke-width:.35278"/><circle style="display:inline;fill:none;stroke:#2f318d;stroke-width:.992987;stroke-linejoin:round;stroke-dasharray:none;stroke-opacity:1;paint-order:stroke fill markers" cx="42.863" cy="42.862" r="39.72"/><path d="m59.467 39.654-1.66-1.727-.356.109c-.474.145 1.972-.976 2.686-1.231l.555-.198.241 2.326c.131 1.28.23 2.353.217 2.387-.014.033-.77-.717-1.683-1.666zm3.478-1.635c-1.217-1.129-1.743-1.662-1.698-1.72.038-.05.681-.394 1.43-.767 1.277-.637 1.362-.67 1.37-.526.005.083.177 1.154.38 2.38.202 1.224.35 2.236.326 2.247-.023.01-.836-.715-1.808-1.614zm-7.323 3.124c-.872-1.018-1.568-1.868-1.547-1.89.053-.058 2.878-1.104 2.931-1.086.046.016.266 4.658.226 4.765-.013.034-.737-.77-1.61-1.789zm10.865-5.086c-1.747-1.255-1.994-1.407-2.164-1.338-.106.044.4-.324 1.124-.817a140.53 140.53 0 0 0 1.555-1.07c.14-.1.212-.128.177-.066-.038.064.194.95.572 2.186.35 1.144.651 2.18.672 2.301.032.197-.183.065-1.936-1.196zm-14.512 6.44c-.754-.997-1.438-1.879-1.52-1.959-.14-.135-.135-.147.118-.213.423-.11 2.771-.852 3.041-.96.237-.096.24-.096.052.027-.18.117-.199.323-.232 2.512-.02 1.312-.048 2.39-.062 2.398-.015.007-.643-.805-1.397-1.804z" style="fill:#00a4e0;fill-opacity:1;fill-rule:nonzero;stroke:none;stroke-width:.35278"/><path d="M31.732 33.215c.355-2.31 2.143-1.633 1.297-.878-.274.239-1.297.878-1.297.878z" style="fill:#ffba00;fill-opacity:1;fill-rule:nonzero;stroke:#ffba00;stroke-width:.0307066;stroke-linecap:butt;stroke-linejoin:miter;stroke-miterlimit:4;stroke-dasharray:none;stroke-opacity:1"/><path d="M32.92 31.712c.714.25-.63 1.015-1.069 1.293.231-1.32 1.07-1.293 1.07-1.293z" style="fill:#fd5;fill-opacity:1;fill-rule:nonzero;stroke:#fd5;stroke-width:.0307066;stroke-linecap:butt;stroke-linejoin:miter;stroke-miterlimit:4;stroke-dasharray:none;stroke-opacity:1"/><g clip-path="url(#a)" transform="translate(-64.957 -105.405) scale(.35278)"><g clip-path="url(#b)"><g clip-path="url(#c)"><path d="M-365.745 398.291c-.024-1.236-.01-1.261.597-1.24.556.022.619.106.62.813 0 .637-.084.788-.449.791-.253-.003-.518.198-.601.451-.084.26-.156-.085-.167-.815zm.992-.428c.001-.289-.126-.568-.283-.622-.346-.112-.606.491-.418.98.198.515.699.259.701-.358zm-38.544.49c-.503-.557-.47-1.235.083-1.737.363-.326.588-.368 1.071-.2.334.117.648.416.688.663.08.442.076.443-.27-.006-.196-.246-.355-.326-.359-.178-.004.153-.159.22-.345.146-.248-.094-.339.031-.34.461 0 .644.205.741.647.307.226-.23.253-.197.138.168-.144.445-.14.445.214.014.306-.376.353-.388.355-.068 0 .391-.642.841-1.191.843-.177-.001-.488-.187-.691-.413zm.81-.046c-.34-.136-.509-.392-.509-.783.001-.387.168-.646.51-.784.478-.191.481-.203.043-.218-.587-.015-1.003.398-1.002 1.003.001.606.412 1.018 1.004 1.001.436-.012.431-.027-.046-.219zm2.382-.115c-.41-.897-.002-1.793.821-1.794.356-.001.696.135.75.299.084.247.016.249-.389 0-.427-.262-.53-.246-.822.149-.416.561-.329 1.234.202 1.558.325.196.471.165.702-.147.402-.537.658-.499.358.057-.351.661-1.3.59-1.622-.122zm2.207.406c-.214-.213-.152-.733.085-.733.12-.002.16.151.091.336-.083.21 0 .34.216.338.429 0 .777-.504.431-.621-.14-.047-.192-.242-.12-.435.106-.279.027-.315-.408-.186-.419.128-.481.105-.281-.106.48-.508 1.078-.162 1.22.698.122.759.094.812-.483.828-.34.008-.677-.043-.751-.119zm1.7-.646c-.026-.869.009-.922.593-.899.559.017.622.105.669.922.048.941-.024.892-.264-.186-.185-.836-.651-.658-.829.318l-.138.773zm1.936.675c-.31-.315-.156-.589.175-.315.37.306 1.02.159 1.021-.227-.003-.137-.306-.35-.677-.48-.681-.238-.925-.918-.44-1.215.336-.207 1.342.075 1.342.376-.002.168-.111.161-.335-.028-.352-.292-1.02-.167-1.019.192-.003.118.311.323.691.456.895.31.878 1.229-.024 1.334-.314.037-.643-.007-.734-.093zm2.019-.031c-.106-.175-.214-1.303-.171-1.814.017-.236.081-.237.337 0 .2.187.228.344.083.434-.125.081-.183.461-.127.847.105.706.073.849-.122.533zm.762-.16c-.596-.717.286-1.851.988-1.263.426.352.466.946.087 1.321-.359.361-.742.341-1.075-.058zm.869-.207c.308-.365.1-1.043-.313-1.041-.361-.002-.592.56-.419 1.015.163.42.4.428.732.026zm.981.272a.88.88 0 0 1 .058-1.313c.376-.312 1.018-.157 1.019.245-.001.192-.09.187-.33-.012-.409-.338-.801-.123-.799.444-.001.582.396.776.836.412.308-.255.349-.251.252.038-.145.442-.687.537-1.036.186zm1.301-.977c0-.691.104-1.239.232-1.241.132.001.168.24.086.567-.139.558.189.793.472.337a.505.505 0 0 1 .379-.227c.157 0 .146.114-.03.323-.193.239-.204.45-.025.776.388.722.267.869-.212.255-.403-.514-.587-.409-.478.281.015.093-.075.17-.199.173-.125-.002-.226-.56-.225-1.244zm1.84.042-.034-1.31.732.07c.614.059.735.163.733.636 0 .445-.129.577-.606.635-.461.053-.629.211-.699.674-.053.336-.107.016-.126-.705zm1.206-.606c.001-.187-.23-.372-.506-.412-.394-.054-.51.042-.508.413-.002.371.114.467.506.412.278-.042.508-.225.508-.413zm.849.564c.003-.742.044-1.136.097-.871.069.35.213.451.532.371.389-.102.437-.004.403.869l-.04.984-.09-.86c-.11-1.053-.567-1-.763.09-.105.582-.14.445-.139-.583zm1.681 1.102c-.091-.09-.16-.44-.159-.784-.004-.437.142-.672.47-.776.63-.2.934.142.842.939-.072.635-.768 1.008-1.153.621zm.853-.765c.001-.289-.126-.567-.279-.618-.346-.116-.606.491-.422.976.199.519.703.263.701-.358zm.924.714c-.152-.249-.254-1.795-.124-1.923.056-.052.232.043.395.218.167.181.19.316.054.316-.321.002-.294.977.038 1.309.196.195.198.269.014.272a.494.494 0 0 1-.377-.192zm.779-.137c-.6-.721.283-1.851.984-1.268.426.353.466.947.088 1.325-.36.362-.742.342-1.072-.057zm.976-.236c.156-.407-.05-1.015-.339-1.015-.293 0-.496.611-.339 1.016.071.185.224.337.336.336.117.002.269-.151.342-.337zm1.584.243c-.239-.625.009-1.372.458-1.373.237 0 .474.153.525.34.075.279.051.285-.126.026-.277-.392-.721-.133-.72.425 0 .492.497.882.626.492.048-.148.195-.265.323-.268.141 0 .123.135-.044.34-.359.427-.879.438-1.042.018zm1.586.015c-.071-.185-.099-.574-.058-.862.057-.387.222-.526.639-.525.493-.001.566.099.566.79 0 .649-.091.805-.508.862-.297.044-.563-.068-.639-.265zm.922-.598c-.003-.289-.13-.567-.283-.618-.346-.116-.606.491-.418.976.199.519.699.263.701-.358zm.818.094-.031-.923 1.073.022c1.072.018 1.072.018 1.141.864.04.489-.031.846-.168.846-.132-.001-.242-.363-.242-.809 0-1.035-.505-.927-.702.151l-.138.773-.03-.865c-.04-1.082-.532-1.019-.734.091l-.138.773zm5.537.659c-.083-.083-.152-.44-.153-.796 0-.691.542-1.083.943-.682.162.159.107.222-.176.198-.493-.042-.702.69-.307 1.06.204.195.3.187.379-.023.056-.157.206-.282.334-.285.144 0 .123.135-.045.34-.296.356-.726.442-.975.188zm1.576.001c-.306-.311-.134-.571.193-.297.189.157.403.225.474.157.204-.204-.126-.615-.491-.612-.437 0-.415-.658.029-.827a.636.636 0 0 1 .621.133c.205.206.179.236-.107.126-.608-.232-.677.254-.077.526.362.166.507.373.421.599-.135.35-.788.47-1.063.195zm4.072-.151c-.081-.204-.36-.377-.617-.375-.465-.002-.466-.013-.064-.694.691-1.178.915-1.227 1.009-.223.048.496.027 1.076-.048 1.289-.127.358-.148.356-.28.003zm.064-1.079c0-.402-.055-.433-.337-.199-.188.156-.339.371-.338.476.001.11.152.199.337.2.196-.001.34-.204.338-.477zm.907 1.043a.73.73 0 0 1-.107-.733c.094-.219.15-.575.124-.791-.059-.476.587-.779.931-.439.328.332.416 1.669.128 2.017-.311.376-.737.356-1.076-.054zm.968-.192c.062-.165.028-.443-.079-.618-.263-.428-.78.071-.591.567.167.432.51.459.67.051zm-.071-1.408c.004-.399-.484-.328-.622.09-.048.148.07.268.266.267a.358.358 0 0 0 .356-.357zm1.357 1.054c-.003-.488-.094-.918-.206-.96-.112-.042-.061-.206.115-.365.269-.248.316-.103.314.959 0 .688-.05 1.25-.111 1.248-.064.001-.112-.398-.112-.882zm2.055.603c-.015-.237-.209-.398-.477-.395-.57-.001-.566-.103.059-1.103l.507-.818.072.791c.043.43.194.859.338.953.203.128.202.167-.002.172-.144 0-.31.181-.369.397-.098.375-.102.375-.128.003zm-.027-1.072c0-.25-.045-.454-.105-.453-.056.001-.212.201-.344.45-.196.36-.172.451.105.452.196 0 .345-.196.344-.449zm1.065 1.21c-.318-.318-.152-.585.188-.301.28.232.4.234.618.005.215-.224.193-.34-.103-.531-.356-.233-.355-.268-.003-.527.314-.232.327-.331.082-.577-.245-.246-.355-.217-.641.154-.341.449-.341.449-.265.002.091-.504.838-.748 1.083-.35.092.145.152.687.142 1.207-.018.771-.107.958-.483 1.012-.25.036-.53-.004-.618-.094zm2.247-.581c.077-.487.004-.801-.227-.97-.298-.218-.288-.285.09-.523.413-.256.437-.199.436.973-.001.683-.092 1.241-.208 1.243-.112.001-.154-.323-.091-.723zm1.156.148c-.342-.749.006-1.793.596-1.794.237 0 .47.153.521.336.075.279.051.285-.126.03-.118-.17-.333-.242-.47-.157-.382.238-.299.516.2.644.578.152.808.751.449 1.178-.412.503-.877.407-1.17-.237zm1.014.047c.067-.166.028-.444-.078-.619-.263-.428-.78.071-.588.567.164.432.511.459.666.052zm.77.386c-.306-.307-.156-.588.17-.318.181.149.434.207.564.126.313-.193.301-.794-.02-.795-.169.002-.158-.112.036-.347.219-.264.227-.413.031-.608-.197-.199-.342-.156-.596.177-.181.242-.334.324-.338.184-.011-.39.627-.824 1-.683.24.094.32.431.283 1.212-.04.898-.128 1.092-.509 1.147-.254.036-.534-.008-.621-.095zm-19.152-.916c.163-.064.356-.057.431.019.074.076-.058.13-.296.118-.261-.01-.314-.064-.135-.137zm-50.945-2.788c-5.705-.701-7.076-1.874-7.46-6.402-.109-1.249-.221-9.787-.257-18.967-.077-21.49-.045-21.797 3.519-32.778.933-2.889 1.861-6.034 2.06-6.992.423-2.046.504-5.834.133-6.206-.314-.314-.331-1.067-.026-1.064a.23.23 0 0 0 .226-.226c-.002-.125-.15-.226-.331-.227-.465-.001-.797-.724-.8-1.747.001-1.715-.302-1.651 7.673-1.584l7.105.059.071 1.463c.057 1.191-.006 1.512-.335 1.754-.341.25-.356.361-.107.759.245.394.232.532-.062.86-.461.506-.468 2.687-.025 5.233.331 1.891.566 2.715 2.912 10.169 1.477 4.697 1.779 5.942 2.328 9.549.372 2.455.405 4.393.383 21.204-.024 19.256-.069 20.181-.993 21.995-.8 1.564-1.99 2.267-4.828 2.841-1.969.402-8.893.589-11.186.307zm11.559-.763c2.957-.674 3.701-1.25 4.37-3.375.313-.986.395-3.438.576-16.722.321-23.897.068-26.619-3.491-37.392l-1.622-4.904-6.767-.001-6.771.003-1.747 5.353c-3.469 10.622-3.713 13.302-3.38 37.056.239 16.715.24 16.726 1.497 18.378.669.879 1.982 1.386 4.75 1.841 2.435.396 10.466.247 12.585-.237zm-11.828-.575c-1.512-.193-4.138-.863-3.986-1.016.049-.047.691.061 1.435.235.745.178 2.796.437 4.56.579 3.452.278 7.929.036 10.519-.573.725-.168 1.23-.221 1.126-.119-.104.106-.85.354-1.656.557-1.706.423-9.559.643-11.998.337zm11.443-62.781c-.48-2.105-.56-2.79-.566-4.739l-.006-2.199-5.977.002-5.981-.003-.002 2.199c-.006 1.946-.086 2.636-.565 4.742l-.115.505 6.662.002 6.663-.002zm.106-7.727c0-.293-.89-.338-6.654-.338-3.662 0-6.656.083-6.656.189a.524.524 0 0 0 .148.335c.083.083 3.077.153 6.655.151 5.632 0 6.507-.044 6.507-.337zm-.678-.789c0-.144-2.144-.228-5.979-.225-3.835-.001-5.978.079-5.979.224 0 .145 2.145.224 5.979.225 3.835.001 5.979-.079 5.979-.224zm-2.411-.847a211.698 211.698 0 0 0-6.992.002c-1.962.038-.424.065 3.424.069 3.846 0 5.452-.032 3.568-.071zm3.497-1.241-.07-.959-7.049-.06-7.052-.06-.002 1.019.003 1.02 14.24-.001zm16.627 74.126c-3.463-.461-4.602-1.693-4.961-5.37-.134-1.404-1.34-22.962-1.607-28.823l-.154-3.327 9.88-.002 9.883.002-.154 3.778c-.331 8.124-1.495 27.77-1.727 29.164-.295 1.789-.995 3.104-1.945 3.658-1.482.866-6.129 1.33-9.215.92zm6.681-.519c2.885-.531 3.647-1.375 4.042-4.461.212-1.631 1.349-22.254 1.346-24.364l-.001-.956h-6.206c-3.409-.001-6.205-.09-6.201-.196-.001-.109 2.815-.209 6.259-.223 3.441-.018 6.277-.108 6.298-.199.02-.096.085-1.519.144-3.16l.106-2.993-18.676.001.031 1.525c.016.835.093 2.274.168 3.193l.139 1.669 1.978-.048c1.269-.032 1.972.035 1.973.192 0 .148-.755.237-2.051.237l-2.045.002.13 1.411c.071.775.332 5.367.581 10.207.74 14.549.864 15.621 1.909 16.931.723.91 2.964 1.427 6.238 1.442 1.441.008 3.166-.085 3.838-.21zm-7.326-.901c-1.514-.276-1.603-.475-.123-.279 1.541.207 6.211.21 7.987.007 1.058-.117 1.203-.101.676.074-.898.304-7.156.449-8.54.198zm24.161 1.295c-.061-.155-.295-2.492-.526-5.188-.227-2.696-.488-4.773-.579-4.613-.091.164-.266 1.963-.385 4.004l-.22 3.709.072-3.947c.06-3.071.228-4.854.754-8.01 1.107-6.618 1.26-8.146 1.238-12.409-.016-4.105-.215-5.807-1.419-12.182-.605-3.205-.834-8.944-.482-11.957.148-1.243.593-3.322.992-4.628l.723-2.367.02-5.529c.01-3.04.1-6.082.192-6.765.242-1.715 1.036-3.198 2.713-5.072a66.25 66.25 0 0 0 2.947-3.623c1.824-2.429 1.854-2.459 1.35-1.457-.222.432-.905 1.449-1.522 2.253l-1.12 1.47 1.511-1.549c2.666-2.728 4.753-6.327 6.209-10.719 1.973-5.934 1.621-10.913-.883-12.6-3.756-2.531-10.984 4.427-14.03 13.499-1.327 3.959-1.626 7.046-.964 9.965.268 1.177.335 2.242.249 3.905-.062 1.263-.027 2.432.083 2.603.134.212.196.086.2-.407 0-.394.207-1.747.454-3.006.246-1.262.449-2.77.449-3.356.003-2.036 1.421-3.991 3.457-4.754.35-.13 1.212-.239 1.918-.238 1.384-.003 5.369.72 4.726.855-.217.041-1.166-.093-2.114-.305-4.31-.959-7.078.469-7.562 3.895-.12.842-.339 2.243-.485 3.114-.146.867-.288 3.32-.311 5.451-.041 3.546-.102 4.079-.732 6.345a133.391 133.391 0 0 0-1.378 5.604c-.768 3.492-.965 4.121-.768 2.457.074-.62.682-3.31 1.356-5.981 1.406-5.603 1.569-7.593.747-9.12-.416-.778-.45-1.104-.314-2.931.121-1.623.069-2.357-.25-3.519-.503-1.85-.508-5.369-.012-7.608 1.733-7.801 7.02-15.45 11.824-17.102.73-.25.856-.425 1.282-1.74.613-1.894 1.429-3.101 2.846-4.224 1.225-.97 3.523-1.817 4.916-1.809 1.4.003 3.638.646 5.31 1.522 1.771.922 4.755 3.727 7.925 7.446 2.199 2.579 3.958 3.983 6.041 4.833.879.358 1.743.769 1.919.915.534.445.75 1.279.464 1.806-.226.428-.138.581.81 1.379 1.244 1.048 3.394 3.764 5.082 6.416.938 1.474 1.567 2.157 2.948 3.213 1.398 1.062 1.882 1.593 2.377 2.596 1.977 4.043-.143 11.527-4.531 16.021-2.614 2.677-4.068 3.201-7.365 2.66-2.118-.347-2.242-.345-4.512.152-8.38 1.829-16.532-.306-21.419-5.604-1.486-1.61-2.303-2.973-3.193-5.342-.507-1.346-.52-1.356-1.978-1.879-1.814-.657-3.002-.564-4.461.336-1.651 1.016-1.725 1.386-1.763 8.42-.029 5.866-.151 7.184-.863 9.281-1.651 4.857-1.66 11.072-.028 19.897 1.269 6.889 1.269 11.284-.013 19.548l-.61 3.94.506 5.197c.276 2.857.561 5.626.628 6.156.076.588.034.958-.106.958-.129-.001-.283-.125-.34-.281zm32.591-60.839c1.277-.236 2.601-.477 2.938-.531.336-.055 1.35.031 2.254.196 2.373.42 3.304.38 4.575-.216 4.73-2.216 8.867-10.49 7.989-15.969-.319-1.998-1.042-3.107-2.91-4.467-1.624-1.18-2.086-1.729-3.837-4.571-1.428-2.322-5.258-6.116-7.643-7.574-3.765-2.308-7.832-3.29-11.562-2.792-2.064.273-4.923 1.181-4.2 1.334.216.048.392.186.394.311-.002.563-3.41-.746-4.169-1.595-.278-.317-.331-.477-.139-.43.385.094.729-1.055.553-1.834-.074-.314-.545-1.272-1.051-2.125-1.408-2.37-1.414-4.663-.018-5.796.305-.247.288-.168-.079.354-.54.767-.861 1.695-.585 1.685.104-.005.384-.157.622-.34.631-.477 2.742-.414 3.908.116 1.233.56 2.924 2.165 5.62 5.333l2.142 2.521 1.28.154c2.455.3 5.798 1.646 8.352 3.364 1.29.872 1.612.877 1.611.03.001-.633-.814-1.333-1.988-1.714-2.315-.749-3.979-2.161-7.927-6.723-3.347-3.869-5.111-5.292-8.018-6.462-2.33-.936-4.644-.924-6.656.029-2.357 1.117-4.155 3.322-4.626 5.673-.141.687-.109.731.473.735 1.099-.004 2.533.864 3.121 1.883.793 1.369 1.056 2.625 1.051 4.989-.016 6.118-3.409 13.73-8.125 18.238-.998.952-1.909 1.737-2.017 1.734-.113.001-.584.469-1.051 1.038l-.851 1.034.929-.47c1.09-.557 2.422-.599 3.976-.131 1.604.487 2.034.842 2.361 1.949.813 2.758 2.982 5.703 5.549 7.533 2.432 1.736 6.569 3.385 9.473 3.778 1.971.269 6.112.132 8.281-.271zm7.314-1.367c2.222-.255 4.009-1.705 5.713-4.628.504-.866.915-1.485.916-1.376.001.461-1.643 3.087-2.592 4.145-1.325 1.47-2.586 2.089-4.19 2.047l-1.226-.029zm-25.183-11.123c-.001-.05.566-.479 1.258-.953 1.865-1.285 3.551-3.289 4.731-5.611.574-1.133.972-1.806.885-1.498-.453 1.631-1.877 3.813-3.602 5.531-1.518 1.51-3.273 2.867-3.272 2.531zm-6.093-5.325c2.832-3.906 4.612-7.574 5.653-11.647.35-1.364.641-2.228.65-1.916.026 1.111-1.355 5.739-2.338 7.807-1.092 2.308-2.714 4.764-4.312 6.519-.932 1.024-.901.956.347-.763zm37.678-.889c-.807-.446-2.279-1.088-3.269-1.429-.995-.342-1.671-.626-1.507-.632.891-.033 5.149 1.711 6.244 2.559.754.584.081.357-1.468-.498zm-5.68-2.226c.163-.064.356-.056.43.016.074.076-.058.13-.295.122-.262-.014-.318-.064-.135-.138zm-25.194-15.637c.003-.313.053-.438.118-.283a.875.875 0 0 1-.003.563c-.063.157-.114.029-.115-.28zm6.058 1a13.866 13.866 0 0 1 3.565-.75l1.875-.137-2.484-2.974c-2.684-3.208-3.406-3.86-5.087-4.602-1.278-.565-2.894-.515-3.862.118-.514.339-.584.504-.473 1.179.067.428.596 1.561 1.167 2.515.918 1.527 1.033 1.853.945 2.747-.055.559-.138 1.168-.187 1.351-.106.427 1.764 1.419 2.398 1.274.248-.055 1.212-.38 2.143-.721zm-26.931 95.414c-.249-1.831-.155-5.37.202-7.438.191-1.105.762-3.468 1.266-5.259l.919-3.254-.387-2.785c-.457-3.256-.529-6.121-.25-9.894.241-3.262.071-4.463-1.329-9.353-1.434-5.009-1.753-7.705-1.259-10.605.126-.725.175-.174.172 1.92-.002 3.285.153 4.202 1.539 9.023 1.264 4.39 1.518 6.236 1.242 9.067-.386 3.985-.141 10.207.447 11.319.393.746 1.536-6.616 1.625-10.46.043-1.988.046-1.996.132-.448.207 3.835-.52 8.163-2.643 15.656-1.365 4.826-1.678 7.004-1.529 10.57.07 1.642.095 2.988.063 2.987-.036.003-.131-.47-.21-1.046zm3.1-3.466c.001-1.426.037-2.011.083-1.296.047.715.045 1.883-.001 2.594-.043.714-.082.131-.082-1.298zm.192-3.61c.001-.433.047-.609.105-.395.057.218.058.573 0 .793-.055.215-.101.04-.105-.398zm37.083-2.293c-.491-.702-.458-1.834.072-2.315.655-.588 1.419-.365 1.915.56.383.715.396.87.111 1.467-.425.89-1.567 1.049-2.098.288zm1.628-.007c.415-.417.32-1.483-.182-1.986-.584-.581-.816-.566-1.24.082-.368.565-.279 1.112.293 1.781.398.463.75.501 1.129.123zm-18.7-1.966c-.507-.509-.66-.868-.66-1.556 0-.941.175-1.15 2.339-2.814.864-.664 1.039-1.28.497-1.728-.262-.217-.53-.153-1.318.31-1.268.74-1.626.73-2.438-.08-.917-.917-.876-1.749.132-2.725 1.145-1.109 1.042-1.44-.713-2.305-1.897-.932-2.526-1.92-2.183-3.425.122-.521.178-1.069.129-1.217-.148-.445-.984-.311-2.482.397-1.874.886-3.45 1.339-4.175 1.202-1.491-.285-1.834-1.988-.559-2.79.656-.417.962-.45 2.917-.327 3.044.19 4.447-.424 4.462-1.96.01-.665-.171-.877-1.305-1.551-.948-.563-.871-1.089.244-1.637.463-.225.843-.49.843-.588 0-.097-.302-.557-.673-1.027-.375-.469-.681-.968-.68-1.109 0-.445.612-1.151 1.562-1.81 1.173-.814 1.178-1.346.017-2.408-1.097-1.001-1.213-1.94-.348-2.804.882-.884 2.053-.643 3.042.617.671.855 1.255.98 1.96.426.464-.365.783-.434 1.466-.326.556.088.994.037 1.212-.141.394-.329.441-1.286.109-2.161-.286-.755-.108-1.374.492-1.697.811-.433 1.495-.059 2.111 1.153.43.852.693 1.123 1.082 1.123 1.348 0 1.395-1.348.126-3.787-.803-1.541-.91-1.919-.773-2.649.162-.872 1.206-2.144 1.745-2.13.164.007.071.135-.21.291-1.531.851-1.632 2.367-.311 4.556 1.107 1.836 1.205 2.789.378 3.618-.954.953-1.85.584-2.399-.989-.314-.9-.934-1.275-1.561-.939-.499.267-.577.984-.215 1.943.169.443.161.799-.023 1.248-.305.736-.868.965-1.886.774-.563-.106-.825-.034-1.142.316-.659.725-1.414.572-2.382-.483-1.03-1.131-2.041-1.283-2.745-.409-.594.731-.358 1.513.736 2.44 1.309 1.104 1.229 1.396-.856 3.089-.881.716-.927 1.278-.172 2.178.798.943.731 1.491-.224 1.889-1.02.427-1.001.863.056 1.378 1.533.751 1.566 2.393.068 3.401-.715.48-.989.518-3.439.475-2.519-.042-2.693-.016-3.226.485-.701.654-.72 1.218-.064 1.681.765.535 1.423.431 3.588-.565 2.397-1.105 3.36-1.305 3.862-.798.284.281.319.517.153 1.093-.553 1.935-.122 2.744 2.048 3.833 1.811.908 1.966 1.387.79 2.456-.684.622-.801.865-.746 1.537.054.616.211.869.695 1.1.559.267.745.232 1.851-.327 1.198-.605 1.238-.608 1.688-.203.953.864.253 2.171-1.818 3.394-1.585.937-.866 3.269 1.008 3.269 1.227-.002 2.087-.868 2.409-2.434.434-2.109.676-2.746 1.141-2.995.615-.327 1.233-.08 1.803.725.422.591.588.663 1.192.54 1.854-.381 2.082-.384 2.38-.029.423.512.85.442 1.275-.205.803-1.226 1.9-.463 1.9 1.318-.001 1.277.45 2.178 1.095 2.176 1.011 0 1.197-1.12.484-2.933-.878-2.222-.482-3.164 1.153-2.75 1.183.298 1.552.151 1.553-.63-.002-.813.466-1.179 1.396-1.09.638.061.85.251 1.462 1.315 1.027 1.776 1.572 2.411 2.198 2.567 1.376.345 2.36-.871 1.618-2.006-.201-.308-.997-.876-1.771-1.263-1.634-.812-2.184-1.404-2.188-2.345-.002-.864.191-1.157.957-1.449.51-.194.616-.371.614-1.034.001-1.126.732-1.455 2.086-.936 1.209.461 1.84.472 2.197.037.501-.603.088-1.386-.952-1.802-1.903-.759-2.24-1.595-1.042-2.599l.714-.593-.825-.487c-.881-.519-1.031-1.034-.508-1.752.239-.324.536-.415 1.186-.362.477.039 1.375.087 1.995.107 1.114.039 1.129.03 1.196-.679.058-.571-.053-.8-.528-1.113-.525-.344-.719-.356-1.537-.106-.517.155-1.268.337-1.672.402-1.215.196-1.824-.677-1.062-1.516.674-.746-.028-1.337-1.609-1.346-.385 0-.862-.187-1.069-.413-1.092-1.208.214-2.904 3.124-4.066 2.972-1.183 3.742-1.64 4.122-2.44.959-2.012-1.653-3.112-3.564-1.504-.383.32-1.089 1.163-1.569 1.87-2.092 3.08-4.271 3.671-4.832 1.306-.117-.506-.271-.622-.824-.62-.546.001-.78-.167-1.162-.816-.474-.801-.499-.811-1.515-.635-2.152.374-2.943.263-3.641-.52-.873-.976-1.017-1.957-.537-3.699.66-2.393.674-3.414.06-4.099-.291-.324-.882-.686-1.316-.803-.653-.181-.692-.221-.228-.235.792-.029 1.995.764 2.288 1.502.192.488.14 1.035-.233 2.561-.563 2.304-.59 3.154-.133 4.042.58 1.117 1.702 1.397 3.557.883 1.114-.309 1.631-.124 1.971.7.179.43.495.721.871.804.327.071.682.148.792.174.107.026.313.389.451.803.578 1.73 2.075 1.206 4.084-1.425.747-.979 1.709-2.022 2.138-2.315 1.707-1.162 3.843-.402 3.842 1.368.003 1.226-1.1 2.167-3.729 3.186-1.474.569-2.472 1.118-3.064 1.682-1.493 1.418-1.058 2.481 1.02 2.484.465-.003.901.173 1.165.467.406.448.406.499.033 1.146-.214.377-.33.773-.261.885.199.32 1.179.244 1.941-.15.917-.473 2.062-.254 2.661.51.559.709.58 1.156.091 1.852-.349.501-.456.522-2.104.378-1.321-.115-1.795-.081-1.989.15-.296.36-.147.617.682 1.144.812.516.784.901-.11 1.603-.913.714-.726 1.141.815 1.883 1.252.601 1.698 1.354 1.31 2.206-.399.868-1.1 1.023-2.376.525-1.438-.567-1.95-.4-1.951.623.004.687-.101.829-.788 1.115-.679.285-.791.439-.79 1.084-.001.886.38 1.281 2.05 2.126 1.154.586 2.238 1.775 2.237 2.463-.001.578-1.072 1.419-1.806 1.42-1.191-.001-1.956-.583-2.917-2.232-.498-.85-1.074-1.616-1.28-1.693-.497-.194-.991.253-.991.893-.001.727-.628 1.301-1.217 1.111a8.757 8.757 0 0 0-1.209-.269c-.691-.108-.733-.077-.732.579-.001.379.203 1.206.451 1.838.247.629.45 1.444.451 1.811.001.703-.678 1.571-1.224 1.572-1.075.002-1.71-1.001-1.708-2.705-.001-1.351-.421-1.677-1.21-.933-.608.569-1.202.614-1.743.126-.356-.326-.491-.319-1.532.051l-1.147.405-.858-.84c-.475-.462-1.027-.843-1.224-.842-.377-.001-.861 1.058-.861 1.894-.003 1.051-.538 2.313-1.28 3.01-.644.607-.959.738-1.797.736-.822 0-1.145-.126-1.678-.657zm-5.099-2.726c-.556-.225-.974-.882-.975-1.534-.001-.754 1.087-1.624 2.026-1.626 1.957.001 2.296 2.486.431 3.137-.827.286-.827.286-1.482.023zm1.858-.78c.304-.306.552-.76.552-1.01-.001-.652-.975-1.229-1.745-1.038-.92.231-1.188.542-1.188 1.378-.002 1.266 1.39 1.661 2.381.67zm-5.711-.384c-.398-.401-.347-.964.131-1.397.946-.85 2.093-.112 1.545.995-.307.615-1.24.839-1.676.402zm1.404-.587c.076-.197-.013-.51-.197-.694-.275-.275-.4-.284-.685-.046-.192.16-.351.473-.349.696-.002.715.96.75 1.231.044zm-5.89-13.404c-.263-.127-.598-.494-.744-.814-.224-.49-.195-.676.166-1.162.601-.807 2.383-.936 3.274-.235.772.609.822 1.621.105 2.124-.562.394-2.066.442-2.801.087zm2.248-.222c.97-.508 1.038-.908.278-1.667-.406-.4-.799-.556-1.453-.553-1.023.001-1.604.45-1.603 1.251-.003.953 1.69 1.542 2.778.969zm40.203.122c-.515-.517-.342-1.25.391-1.657.556-.311.684-.314 1.239.001 1.164.647.742 2.021-.618 2.019-.357.001-.811-.165-1.012-.363zm1.556-.158c.223-.163.369-.495.321-.733-.063-.331-.272-.435-.87-.437-.657.002-.799.088-.863.538-.116.838.654 1.186 1.412.632zm-50.94-6.726c-.189-.941-.007-1.12.196-.195.088.387.11.757.054.812-.059.059-.17-.221-.25-.617zm46.377-1.146c-.432-.433-.313-1.041.285-1.433 1.051-.691 2.03.155 1.363 1.175-.375.573-1.203.703-1.648.258zm1.19-.26c.523-.383.313-1.045-.329-1.048-.514.003-.799.491-.596 1.017.159.417.388.426.925.031zm-49.018-3.12c-.392-1.218-.903-3.657-.629-3.004.333.797 1.282 4.232 1.193 4.321-.059.06-.316-.533-.564-1.317zm50.322 1.248c-.846-.341.114-1.857 1.683-2.644.963-.489 2.291-.483 2.48.009.473 1.231-2.682 3.23-4.163 2.635zm2.202-.651c1.333-.675 2.029-2.134 1.014-2.134-1.023.001-3.273 1.489-3.27 2.168-.001.579 1.077.561 2.256-.034zm-53.676-5.648c.01-.263.062-.318.133-.136.065.163.057.355-.017.431-.074.076-.129-.06-.116-.295zm1.841-1.337c.003-.497.049-.672.104-.392.055.281.052.688-.007.903-.054.216-.097-.015-.097-.511zm34.992.228c-1.557-.655-1.204-2.82.457-2.823 1.292.001 2.217 1.762 1.324 2.526-.622.538-1.042.608-1.781.297zm1.292-.347c.765-.41.504-1.698-.415-2.045-.418-.161-.704-.126-1.1.133-.678.445-.674.894.021 1.592.615.614.848.665 1.494.32zm-39.004-3.039c.006-.372.056-.497.114-.279.058.222.051.527-.009.68-.064.15-.111-.03-.105-.401zm.227-1.355c.002-.371.056-.496.11-.274.058.218.055.523-.005.676-.064.154-.111-.026-.105-.402zm3.072-.941c.098-.472.154-.528.219-.217.051.231-.01.517-.128.636-.141.144-.173-.006-.091-.419zm-2.856-.299c-.001-.308.053-.438.114-.282a.884.884 0 0 1 .001.566c-.063.153-.114.029-.115-.284zm4.314-7.331c.002-.621.048-.847.1-.504.052.344.049.852-.005 1.126-.054.277-.096 0-.095-.622zm.434-15.793c.002-.371.052-.496.11-.278.058.222.055.523-.009.676-.06.154-.107-.026-.101-.398zm.2-1.094c-.031-.63.606-1.831 1.291-2.433l.606-.534-.479.563a6.33 6.33 0 0 0-1.222 2.243c-.124.405-.184.453-.196.161zm-39.684-.601c-12.152-.72-18.532-3.112-14.724-5.515 1.072-.677 1.19-.854 1.382-2.104.137-.925.121-.979-.326-.845-1.652.498-3.068.3-3.071-.426 0-.449.558-.831 1.87-1.277.648-.221.998-.409.776-.419-.217-.009-.515-.266-.652-.572-.318-.7.063-1.247.87-1.246.894-.002.546-.724-.605-1.275-1.315-.624-1.58-.883-1.581-1.532.001-.629-1.294-1.852-2.203-2.083-.807-.204-1.797-.194-2.693.028-.63.152-.816.086-1.413-.51-.415-.416-.685-.918-.686-1.277.002-.82.937-1.701 1.807-1.701.859 0 1.805.88 1.802 1.682.002.663.01.667.81.301.554-.252.657-.218 1.197.414.324.38.918.879 1.314 1.109.816.468 1.097.969.749 1.318-.126.127-.231.464-.232.749 0 .394.244.632 1.024.999.596.279 1.163.749 1.354 1.124.185.352.534.746.782.878.574.309.588 1.265.019 1.62-.336.21-.377.347-.179.659.18.29.168.486-.055.754-.165.197-.336.754-.381 1.238-.121 1.373-.462 2.018-1.327 2.53-1.24.733-1.386 1.206-.609 1.983 1.048 1.047 4.495 1.959 10.039 2.649 3.756.468 15.855.529 19.904.098 6.327-.674 11.289-2.003 11.726-3.14.212-.552-.358-1.201-1.538-1.75-1.493-.699-1.616-.689-1.962.14-.359.869-1.463 1.443-3.887 2.019-6.328 1.502-17.429 1.736-25.616.542-2.241-.326-5.384-1.145-5.176-1.349.051-.055.513.044 1.021.225 1.54.543 6.262 1.238 10.202 1.503 9.555.642 21.357-.781 22.941-2.765.44-.552.482-1.86.149-4.536-.401-3.151-.261-3.803 1.062-5 .998-.898 1.636-.996 2.69-.41.702.396.706.392 1.271-.252 1.145-1.315.169-2.213-1.4-1.288-1.014.598-1.895.622-1.897.052 0-.641.585-1.04 3.645-2.487 2.576-1.217 3.338-1.771 2.958-2.151-.363-.361-1.266-.03-2.765 1.026-1.974 1.383-3.949 2.449-4.538 2.45-.63.001-.533-.781.136-1.085.658-.303.787-1.173.171-1.162-.217.002-.594.153-.835.337-.647.49-1.105.426-.958-.137.092-.351.037-.437-.213-.342-.186.074-.27.03-.192-.094.266-.432.847-.248.721.227-.122.474.158.62.414.212.27-.436 1.259-.696 1.595-.415.503.417.366.951-.418 1.616l-.736.627.678-.153c.74-.17 1.537-.633 4.31-2.499 2.149-1.444 2.864-1.525 2.98-.339.065.701.006.765-1.24 1.319-4.357 1.924-5.489 2.555-5.488 3.051 0 .352.705.193 1.682-.378.792-.463 1.08-.53 1.564-.346.472.18.592.374.592.971-.001.871-.476 1.644-1.112 1.809-.248.063-.817-.078-1.266-.319-.8-.427-.837-.428-1.534-.02-.39.227-.952.765-1.247 1.191-.562.823-.57 1.422-.066 5.951l.149 1.336 1.274.424c1.414.471 2.447 1.285 2.447 1.926.002 1.652-4.948 3.241-12.072 3.879-3.708.328-11.528.452-15.184.233zm-13.553-8.922c.809-.418.749-.858-.134-.962-1.373-.162-3.076.496-2.734 1.054.235.379 2.076.32 2.868-.092zm1.001-2.004c.723-.535.168-1.142-1.051-1.141-.835.002-.994.069-.991.444 0 .25.251.57.565.732.723.367.944.36 1.477-.035zm-2.971-5.418c-.071-.182-.333-.395-.58-.473-.247-.081-.834-.538-1.298-1.019-.806-.829-.884-.858-1.562-.604-.93.353-.895.538.139.723.945.173 2.761 1.151 2.764 1.487-.002.117.146.214.331.215.196 0 .278-.132.206-.329zm-4.719-1.695c.56-.616.509-1.585-.101-2.082-.639-.514-1.173-.514-1.813.003-.993.803-.376 2.523.907 2.524.333 0 .786-.201 1.007-.445zm33.93 12.084c-.194-.422-.168-.788.11-1.607.723-2.117-.338-2.484-2.633-.915-1.642 1.122-2.709 1.712-3.11 1.713-.148.001.177-.24.723-.531.546-.29 1.596-.95 2.328-1.466 1.537-1.078 2.603-1.239 3.143-.467.258.366.28.63.092 1.184a6.44 6.44 0 0 0-.259 1.506c-.019.658.061.799.487.863.374.051.815-.242 1.618-1.073.607-.632 1.199-1.145 1.319-1.146.12.001.582.151 1.026.338.876.366 1.642.207 2.529-.522.256-.208.121-.041-.302.376-.798.792-.798.792-2.866.37-.588-.12-.807-.005-1.681.89-1.185 1.214-2.113 1.391-2.524.487zm-18.703-1.61a5.425 5.425 0 0 0-1.194-.93c-.566-.294-.758-.29-1.675.022-1.585.539-2.895.466-3.562-.199-.756-.755-.744-1.795.022-2.294l.579-.379-.894-.924c-.49-.511-1.115-1.382-1.393-1.941-.274-.56-.636-1.171-.8-1.361-.234-.266-.249-.55-.061-1.292.134-.523.176-1.386.097-1.918-.236-1.571-.765-2.208-2.378-2.858-.855-.344-1.625-.837-1.904-1.212-.432-.582-.44-.676-.129-1.24.239-.426.555-.631 1.056-.679.601-.061.77.039 1.069.616.443.855 1.066 1.273 2.559 1.718 1.323.392 1.624.794 1.624 2.176-.002 1.95 1.324 3.452 2.634 2.994 1.158-.411.866-1.2-.922-2.472-.511-.365-.676-.711-.842-1.768-.26-1.666-.652-2.252-1.899-2.838-.551-.26-1.001-.571-1.003-.688 0-.348.807-.683 1.637-.684 1.011 0 1.558.608 2.422 2.698.864 2.094 1.583 3.043 2.763 3.647 1.669.849 3.222.308 3.924-1.374.496-1.192 1.184-1.815 1.998-1.814 1.16.003 2.24 1.454 3.148 4.228.432 1.328 1.354 2.25 1.838 1.847.162-.134.331-.617.383-1.07l.085-.831.037.805c.054 1.113-.394 1.673-1.184 1.475-.475-.117-.742-.447-1.184-1.442-1.964-4.423-2.198-4.787-3.096-4.784-.61-.001-1.269.673-1.918 1.968-.808 1.613-2.542 2.09-4.308 1.19-1.163-.593-1.836-1.523-2.836-3.902-.876-2.097-1.269-2.483-2.403-2.372-.883.088-1.081.569-.307.76.819.207 1.888 1.518 2.05 2.521.276 1.719.367 1.896 1.354 2.593.557.388 1.067.894 1.138 1.118.382 1.2-.909 1.996-2.177 1.349-1.168-.597-1.636-1.426-1.742-3.077-.054-.804-.21-1.546-.351-1.651-.141-.106-.712-.321-1.271-.483-.694-.194-1.317-.608-1.962-1.298-.975-1.038-1.516-1.174-1.949-.482-.473.749.145 1.441 1.884 2.105 2.256.863 2.54 1.348 2.413 4.124-.096 2.039-.075 2.139.673 3.547.895 1.689 2.236 2.935 3.358 3.118.439.07 1.535.629 2.44 1.247.9.614 2.066 1.246 2.585 1.403l.945.283 1.188-1.276c1.033-1.112 1.3-1.282 2.026-1.278.967-.001 1.74.628 1.74 1.413.002.863.616 1.516 1.43 1.517.955 0 1.66-.514 1.84-1.349.29-1.32 1.923-2.105 3.15-1.521.68.327.784.319 1.39-.078.849-.561 1.451-.552 1.603.03.086.325.234.414.49.304 2.314-.993 3.179-.962 3.749.137.191.371.472.672.628.671.41.002 2.505-1.457 3.44-2.389.442-.446 1.16-1.531 1.589-2.414.945-1.948 1.563-2.638 2.345-2.64 1.809.002 1.441 2.04-.652 3.577-.734.54-.817.711-.882 1.837-.085 1.417-.522 2.257-1.176 2.256-.778.001-1.01-.922-.487-1.945.464-.909 1.537-2.117 1.878-2.113.108-.001.6-.369 1.097-.82.971-.876 1.2-1.816.568-2.339-.568-.474-1.354.27-2.391 2.268-1.01 1.938-2.694 3.68-4.504 4.655-1.076.584-1.452.497-1.765-.399-.199-.574-.343-.66-1.088-.654-1.127.005-2.421.622-3.708 1.762-1.309 1.165-2.182 1.533-2.61 1.103-.515-.513-.108-.992 1.267-1.49 1.379-.507 2.483-1.381 1.737-1.379-.213-.003-.701.162-1.082.357-.547.283-.817.309-1.242.113-.729-.332-1.698-.312-2.187.044-.219.163-.673.797-1.004 1.41-.499.923-.749 1.155-1.453 1.329-1.101.273-1.942-.307-2.298-1.575-.294-1.054-1.123-1.577-1.975-1.254-.697.264-2.302 2.226-2.313 2.829-.013.731-1.024.735-1.709.006zm1.237.208c.28-.105.304-.208.104-.45-.143-.172-.403-.311-.583-.312-.177-.001-.647-.158-1.044-.353l-.722-.351.843.803c.926.881.884.861 1.402.663zm13.299-1.803c1.248-1.031 1.809-1.674.686-.794-.317.252-.952.577-1.41.724-.915.293-1.394.609-1.394.914 0 .492.956.11 2.118-.844zm-17.917.459c.662-.198 1.451-.313 1.752-.255.685.132.516-.023-1.274-1.17-1.672-1.071-2.84-1.227-3.524-.468-.526.582-.244 1.543.572 1.961.732.367 1.028.358 2.474-.068zm29.157-1.391c.187-.219.405-.944.479-1.614l.137-1.218-.585.544c-.825.754-1.31 1.95-.963 2.363.342.418.518.403.932-.075zm-24.864-.961c-.632-.629-.571-1.45.142-2.012.328-.257.72-.468.872-.469.546-.001 1.468.935 1.468 1.482-.002.711-.748 1.452-1.466 1.451-.313.002-.767-.203-1.016-.452zm1.795-.326c.351-.423.223-1.256-.238-1.543-.93-.585-2.058.484-1.538 1.457.269.502 1.385.556 1.776.086zm18.013-.123c-.49-.402-.499-.46-.174-1.056.674-1.231 2.248-1.21 2.249.032.001 1.011-1.306 1.657-2.075 1.024zm1.414-.466c.597-.596.456-1.002-.35-.999-.702-.002-1.164.532-.95 1.096.193.504.74.464 1.3-.097zm-1.922-4.548c-.449-.643-.449-2.319 0-4.05.369-1.429.281-2.218-.252-2.218-.177.003-.539-.214-.801-.474-.371-.376-.446-.651-.345-1.281.126-.779.121-.791-.221-.302-.259.369-.534.485-1.052.433-.663-.063-.718-.004-1.009 1.012-.241.832-.5 1.197-1.141 1.604-.702.44-.915.778-1.344 2.113-.603 1.869-1.236 2.761-1.958 2.761-.63 0-1.027-.444-1.478-1.65-.416-1.122-.785-1.272-1.087-.446-.194.527-.232.553-.249.149-.009-.261.139-.605.327-.765.278-.23.424-.21.788.123.247.222.45.546.448.718-.001.633.691 1.647 1.124 1.647.706-.003 1.259-.806 1.779-2.59.486-1.676.927-2.376 1.5-2.376.421.001 1.011-.887 1.012-1.516.001-.281.203-.715.451-.966.386-.383.521-.409.909-.168.575.356.657.236 1.582-2.304.384-1.054.801-2.041.932-2.201.326-.389 1.198-.366 1.536.048.458.548.079 1.364-1.239 2.663-1.114 1.098-1.237 1.315-1.24 2.175.002.859.072.982.689 1.213.923.351 1.044 1.001.584 3.199-.385 1.871-.316 3.072.205 3.507.43.355.781-.411.781-1.7-.002-1.399.305-1.92 1.127-1.916.807-.003 1.129.513 1.126 1.807 0 1.09.474 1.149.717.09.142-.621.151-.614.111.132-.029.627-.139.804-.536.859-.535.079-.676-.234-.792-1.759-.045-.551-.187-.813-.468-.865-.729-.14-1.059.387-1.061 1.696.001 1.945-.684 2.696-1.455 1.598zm1.231-12.053c-.001-.652-.59-.944-1.02-.507-.24.25-1.464 3.162-1.465 3.494 0 .047.558-.486 1.244-1.179.815-.828 1.238-1.448 1.241-1.808zm-6.715 10.862c.004-.496.05-.672.105-.391.055.281.052.687-.003.902-.059.216-.102-.015-.098-.511zm.186-1.316c-.01-.229.545-.95 1.225-1.607.685-.657 1.242-1.113 1.242-1.015-.001.094-.468.616-1.038 1.155-.57.538-1.123 1.181-1.227 1.428-.172.412-.191.413-.202.039zm10.972-.676c-.061-.167-.006-.718.129-1.225.308-1.147-.012-1.632-1.075-1.636-.85.003-1.163.298-1.303 1.243l-.098.676-.034-.716c-.023-.53.121-.838.562-1.183.776-.613 1.332-.592 2 .076.471.47.517.642.329 1.294-.325 1.128-.281 1.616.135 1.458.198-.075.29-.04.212.088-.199.325-.72.277-.857-.075zm-44.541-2.175c-1.342-.817-1.183-2.263.249-2.262 1.493.003 2.879 1.516 2.167 2.37-.388.469-1.551.416-2.416-.108zm1.931.019c.973-.614-.784-2.296-2.062-1.973-1.069.266-.639 1.368.75 1.919.709.283.938.295 1.312.054zm14.035.098c-.431-.52-.188-1.129.48-1.207.783-.091 1.142.775.509 1.236-.518.378-.655.374-.989-.029zm.892-.576c.002-.465-.544-.62-.788-.225-.188.304.067.678.464.677.18.001.324-.202.324-.452zm12.959.431c-.083-.137-.02-.494.141-.792.247-.462.234-.672-.085-1.341-.208-.436-.38-.973-.382-1.195.002-1.114 1.385-1.617 2.264-.817.597.537.559 1.048-.12 1.685-.398.376-.563.765-.564 1.347.002 1.113-.81 1.831-1.254 1.113zm.805-.319c.164-.197.227-.612.152-.993-.106-.518.003-.797.54-1.356.554-.58.63-.782.432-1.148-.27-.506-1.322-.612-1.756-.178-.374.374-.342.922.113 1.878.313.65.333.89.113 1.244-.508.811-.178 1.261.406.553zm-5.524-.2c-1.41-1.408-.609-4.091 1.095-3.659 1.363.339 1.954 2.631.942 3.646-.698.698-1.347.704-2.037.013zm1.905-.346c.711-1.331-.227-3.391-1.406-3.096-.932.235-1.217 1.907-.512 2.983.453.689 1.573.755 1.918.113zm28.512.532c-.209-.538.3-1.435.95-1.683 1.226-.463 1.934.656 1.003 1.587-.545.544-1.76.604-1.953.096zm1.741-.337c.579-.578.47-.979-.299-1.069-.426-.052-.691.083-.959.496-.207.313-.306.673-.227.803.235.383.988.268 1.485-.23zm-2.946-1.702c0-.199.255-.564.568-.812.313-.244.728-.817.916-1.269.486-1.169 1.194-1.843 1.932-1.845.63.004 1.097.517 1.097 1.212.001.555-1.095 1.679-1.785 1.832-.355.076-.979.389-1.392.692-.862.64-1.334.706-1.336.19zm.931-.24c.172-.205.822-.598 1.445-.875 1.386-.616 1.74-1.008 1.644-1.836-.053-.465-.213-.655-.599-.71-.694-.096-1.289.472-1.749 1.674-.205.54-.614 1.139-.911 1.332-.529.347-.722.793-.337.793.109-.001.336-.168.507-.378zm-47.405-1.133c-1.408-.503-1.031-2.327.481-2.324 1.035-.003 1.547.37 1.548 1.124 0 .984-.992 1.573-2.029 1.2zm1.57-.729c.303-.568.3-.595-.123-1.018-.887-.889-2.468-.057-1.9 1.002.331.618 1.695.628 2.023.016zm18.041.077c-.401-.483.002-1.109.716-1.109.614.001.845.627.417 1.138-.354.427-.764.418-1.133-.029zm1.03-.544c.002-.184-.178-.369-.394-.41-.277-.052-.396.067-.396.407 0 .34.118.463.394.41.218-.041.395-.224.396-.407zm-3.668-.714c-.607-.607-.153-1.542.754-1.542.633-.001 1.052.512.957 1.172-.056.392-.241.536-.751.585-.374.038-.803-.06-.96-.215zm1.3-.301c.222-.272.223-.409 0-.68-.155-.183-.408-.338-.564-.337-.157.001-.409.151-.563.339-.226.268-.227.405-.001.676.156.186.409.338.565.341.153-.001.409-.155.563-.339zm-14.392-.386c-.152-.148-.274-.458-.273-.689.002-.277-.334-.566-1.008-.863-1.623-.72-2.129-1.807-1.25-2.687.961-.961 2.259-.293 2.257 1.168.002.519.165.94.477 1.223.264.236.567.657.673.933.357.932-.243 1.551-.876.915zm.631-.477c-.003-.285-.307-.811-.676-1.167-.509-.486-.68-.855-.677-1.465-.003-1.371-1.021-1.855-1.706-.803-.532.809-.227 1.405 1.054 2.055.619.313 1.169.718 1.224.897.059.183.151.48.21.666.164.53.57.399.571-.183zm-5.361-.076c-.386-.156-.356-1.315.043-1.644.24-.199.444-.204.788-.021.554.299.608.966.115 1.459-.371.37-.478.391-.946.206zm.805-.952c-.079-.673-.7-.814-.821-.183-.121.634.127 1.067.527.914.234-.09.337-.352.294-.731z" style="fill:#ffd42a;fill-opacity:1;fill-rule:nonzero;stroke:#fd5;stroke-width:.341597;stroke-linecap:butt;stroke-linejoin:miter;stroke-miterlimit:4;stroke-dasharray:none;stroke-opacity:1" transform="matrix(.08123 -.97382 1 .0791 0 0)"/></g></g></g><g clip-path="url(#d)" transform="translate(-64.957 -105.405) scale(.35278)"><g clip-path="url(#e)"><g clip-path="url(#f)"><path d="M279.133 384.312c-.77-.034-1.246-.089-2.043.056-2.426.435-8.461 3.097-8.574 3.153-.657.299-2.516 2.039-3.047 2.522a13.18 13.18 0 0 0-3.449 5.286c-.321.913-.465 1.69-.672 2.624-.254 1.468-.43 2.974-.348 4.463.043.747.102.952.227 1.66.351 1.178.863 2.296 1.277 3.452.769 1.634 1.359 3.345 1.992 5.039.684 1.86 1.024 3.815 1.094 5.794.051 1.391-.016 2.01-.09 3.397-.168 2.248-.516 4.476-1.109 6.652-.403 1.459-.661 2.12-1.157 3.537-.625 1.728-1.484 3.354-2.379 4.954l5.778-1.43c.816-1.625 1.594-3.268 2.168-4.996 1.133-3.405 2.137-6.733 2.25-10.351.082-1.72.16-3.435-.012-5.15-.148-1.468-.496-2.902-.941-4.301-.594-1.703-1.082-3.448-1.832-5.091-.399-1.13-.911-2.218-1.289-3.358-.43-1.945-.305-3.887.05-5.837.223-.968.332-1.583.676-2.521.707-1.925 1.875-3.606 3.375-5.001.481-.414.938-.858 1.438-1.246.531-.414 2.324-1.101 1.652-1.152-1.297-.102-2.512.704-3.785.981-.473.103.906-.35 1.379-.461.355-.081.722-.081 1.082-.102.226-.017.449-.008.676-.008l5.609-2.565z" style="fill:#ffba00;fill-opacity:1;fill-rule:nonzero;stroke:#ffba00;stroke-width:4.51894;stroke-linecap:butt;stroke-linejoin:miter;stroke-miterlimit:4;stroke-dasharray:none;stroke-opacity:1" transform="scale(1 .9155)"/><path d="M257.75 353.918c-.574.023-1.137.102-1.707.16-.313.051-.633.035-.949.07-.071.008-.426.079-.492.09-.512.094-1.032.149-1.543.231-.422.058-.809.207-1.196.355-1.593.801-.468.235-4.453 2.387a1.6 1.6 0 0 0-.324.23c-.043.043-.078.09-.121.133-.047.047-.098.094-.149.141a4.916 4.916 0 0 0-.781 1.488c-.023.086-.035.172-.066.254-.055.148-.149.289-.215.434a5.394 5.394 0 0 1-.34.664c-.301.468-.613.929-.957 1.375-.422.582-.742 1.222-1.102 1.843-.332.539-.707 1.055-.988 1.622-.133.269-.211.488-.316.765-.332.746-.387 1.559-.489 2.348-.238 1.34.141 2.648.524 3.93.5 1.605 1.141 3.167 1.777 4.726.703 1.813 1.391 3.637 1.852 5.512.097.398.176.797.262 1.195.332 1.84.57 3.715.523 5.582-.008.313-.035.625-.055.942-.199 1.933-.945 3.667-1.746 5.445-.75 1.652-1.926 3.078-3.027 4.539-.758.984-1.613 1.902-2.274 2.945-.195.356-.285.727-.199 1.117l4.301-2.086c-.02-.293.113-.558.258-.808.601-.996 1.375-1.887 2.07-2.828 1.098-1.473 2.25-2.926 2.949-4.606.774-1.801 1.547-3.621 1.68-5.574.004-.316.023-.637.02-.953-.008-.5-.098-1.609-.141-2.086a43.209 43.209 0 0 0-.285-2.344c-.063-.39-.149-.781-.223-1.172-.23-.945-.355-1.5-.617-2.445-.316-1.137-.691-2.258-1.07-3.379-.114-.328-.227-.66-.336-.992-.578-1.574-1.223-3.125-1.7-4.727-.152-.55-.273-.91-.363-1.468-.133-.789-.094-1.578.039-2.364.133-.777.262-1.558.582-2.293.325-.828.821-1.566 1.313-2.316.371-.621.719-1.254 1.179-1.824.34-.465.653-.946.946-1.434.234-.453.441-.922.582-1.41.203-.484.48-.949.902-1.305a3.55 3.55 0 0 1 .457-.328c.059-.035.235-.14.172-.109-2.746 1.441-5.336 2.84-3.824 2.023.332-.218.726-.355 1.113-.468.512-.114 1.031-.18 1.551-.25.164-.024.32-.043.48-.083.071-.015.137-.046.207-.058.243-.035.5.004.743-.043.543-.059 1.082-.141 1.625-.172z" style="fill:#ffba00;fill-opacity:1;fill-rule:nonzero;stroke:none"/><path d="M292.449 351.707c-.707-.031-1.148-.082-1.887.051-2.242.402-7.82 2.863-7.926 2.91-.605.281-2.324 1.891-2.814 2.332a12.189 12.189 0 0 0-3.189 4.891c-.294.843-.429 1.558-.621 2.425-.237 1.352-.396 2.746-.319 4.125.037.688.09.879.209 1.532.322 1.086.796 2.121 1.18 3.191.71 1.512 1.258 3.094 1.842 4.656.628 1.719.943 3.528 1.008 5.356.045 1.285-.012 1.859-.085 3.14-.152 2.079-.474 4.137-1.021 6.149-.372 1.347-.609 1.957-1.07 3.265-.58 1.602-1.372 3.102-2.197 4.582l5.337-1.324c.755-1.5 1.474-3.019 2.005-4.617 1.045-3.148 1.972-6.223 2.079-9.566.077-1.59.147-3.172-.013-4.762-.134-1.352-.457-2.68-.865-3.977-.552-1.57-1.005-3.183-1.695-4.703-.368-1.047-.841-2.051-1.192-3.101-.397-1.801-.282-3.59.049-5.395.204-.898.306-1.461.624-2.332.65-1.777 1.732-3.332 3.12-4.621.441-.387.862-.793 1.327-1.152.49-.379 2.144-1.016 1.528-1.067-1.201-.093-2.32.653-3.5.91-.437.094.837-.324 1.274-.425.327-.075.666-.078 1.001-.098.208-.016.416-.004.624-.008z" style="fill:none;stroke:#fd5;stroke-width:4.17667;stroke-linecap:butt;stroke-linejoin:miter;stroke-miterlimit:4;stroke-dasharray:none;stroke-opacity:1" transform="scale(.95656 1)"/><path d="M279.441 351.324c-.503.02-1.003.102-1.503.16-.278.051-.563.036-.84.071-.063.011-.379.078-.438.09-.453.097-.91.152-1.363.234-.371.059-.715.207-1.059.359-1.406.809-.41.235-3.933 2.41a1.25 1.25 0 0 0-.285.231c-.04.043-.075.09-.11.137-.043.046-.086.093-.133.14a5.165 5.165 0 0 0-.691 1.504c-.02.082-.031.172-.059.254-.047.152-.129.289-.187.438a5.82 5.82 0 0 1-.301.668 18.67 18.67 0 0 1-.848 1.39c-.371.59-.656 1.235-.972 1.86-.293.546-.625 1.066-.875 1.636-.114.274-.184.496-.278.774-.296.754-.343 1.574-.433 2.375-.211 1.347.125 2.672.465 3.965.441 1.617 1.004 3.195 1.566 4.773.625 1.828 1.234 3.668 1.641 5.562.086.403.152.805.23 1.207.293 1.86.504 3.747.465 5.637-.008.317-.035.629-.051.946-.172 1.957-.836 3.707-1.543 5.5-.664 1.667-1.703 3.109-2.679 4.582-.665.996-1.422 1.921-2.004 2.976-.176.356-.258.731-.18 1.125l3.801-2.105c-.016-.293.101-.563.23-.817.531-1.004 1.215-1.906 1.828-2.851.973-1.489 1.989-2.957 2.61-4.653.683-1.816 1.367-3.656 1.484-5.629.004-.32.024-.64.02-.961a40.869 40.869 0 0 0-.129-2.105 43.895 43.895 0 0 0-.25-2.367c-.055-.395-.133-.789-.199-1.184-.2-.953-.313-1.511-.543-2.465a69.896 69.896 0 0 0-.95-3.414l-.293-1.004c-.511-1.585-1.082-3.152-1.504-4.769-.136-.555-.238-.918-.32-1.484-.117-.793-.082-1.594.035-2.387.117-.781.231-1.571.516-2.313.285-.836.723-1.582 1.156-2.34.332-.625.641-1.265 1.047-1.839.301-.469.574-.953.836-1.45a8.56 8.56 0 0 0 .512-1.421c.179-.489.425-.958.8-1.317.129-.129.254-.226.403-.332.051-.039.207-.144.152-.113-2.43 1.457-4.719 2.871-3.383 2.047.293-.223.645-.364.989-.477.453-.113.906-.18 1.367-.25.148-.023.285-.047.426-.086.062-.015.121-.043.183-.054.215-.04.442 0 .656-.047.481-.059.957-.141 1.438-.172z" style="fill:#fd5;fill-opacity:1;fill-rule:nonzero;stroke:none"/></g></g></g><path d="M61.365 31.221v4.384c3.48.354 5.218 1.95 5.218 4.786 0 1.935-.725 3.398-2.177 4.389-.84.565-1.855.937-3.041 1.116v4.905c3.263-.082 5.863-.937 7.8-2.573 2.223-1.852 3.336-4.573 3.336-8.16 0-2.976-.954-5.25-2.864-6.821-1.72-1.406-4.032-2.108-6.934-2.108-.334 0-.786.029-1.338.082z" style="fill:#f0f;fill-opacity:1;fill-rule:nonzero;stroke:#f0f;stroke-width:1.32101;stroke-linecap:butt;stroke-linejoin:miter;stroke-miterlimit:4;stroke-dasharray:none;stroke-opacity:1"/><path d="M69.527 20.245c-.805 0-2.012.041-3.622.124-1.594.083-2.785.124-3.574.124-.836 0-2.083-.033-3.739-.099-1.658-.083-2.895-.124-3.716-.124-.22 0-.513.173-.877.521-.347.33-.52.612-.52.843 0 1.207.016 3.027.047 5.457.032 2.415.047 4.226.047 5.433 0 .264-.008.752-.023 1.463-.032.628-.04 1.116-.024 1.463 0 .199.015.348.047.447.095.215.316.322.663.322.458 0 1.262-.09 2.414-.272 1.168-.182 2.05-.273 2.652-.273.568 0 1.1.026 1.597.076v-4.384a35.36 35.36 0 0 0-.84.09c-.947.117-1.657.174-2.131.174.158-2.81.237-4.894.237-6.25.885-.05 1.91-.075 3.077-.075.82 0 2.044.05 3.668.15 1.642.098 2.872.148 3.694.148.188 0 .402-.1.639-.298.252-.198.378-.388.378-.57 0-.48.071-1.182.213-2.109.157-.926.237-1.562.237-1.91 0-.314-.182-.47-.544-.47z" style="fill:#f0f;fill-opacity:1;fill-rule:nonzero;stroke:#f0f;stroke-width:1.32101;stroke-linecap:butt;stroke-linejoin:miter;stroke-miterlimit:4;stroke-dasharray:none;stroke-opacity:1"/><g clip-path="url(#g)" transform="translate(-64.957 -105.405) scale(.35278)"><g clip-path="url(#h)"><path d="M249.879 390.973a81.92 81.92 0 0 0 1.508 1.238c.347.277.699.547 1.047.816.347.266.695.528 1.046.785.348.258.696.512 1.043.758a63.501 63.501 0 0 0 2.094 1.43c.348.227.695.453 1.043.672a61.12 61.12 0 0 0 2.094 1.262c.348.199.695.398 1.043.589a66.518 66.518 0 0 0 2.086 1.102c.347.176.695.344 1.043.512.347.168.695.332 1.043.488.347.16.695.313 1.043.465.347.148.691.297 1.039.441a83.68 83.68 0 0 0 2.082.809c.347.125.691.25 1.039.371.344.121.691.234 1.035.348.348.113.691.222 1.039.328.344.105.692.207 1.035.308.344.098.692.192 1.035.285a66.637 66.637 0 0 0 3.098.743 64.921 64.921 0 0 0 6.156.988c.684.078 1.364.144 2.043.199.676.059 1.356.106 2.032.141a72.12 72.12 0 0 0 4.043.117c.671.004 1.343 0 2.011-.016a83.775 83.775 0 0 0 2.004-.058c.664-.028 1.328-.059 1.992-.098.66-.039 1.325-.086 1.981-.137.66-.05 1.32-.105 1.972-.168a142.236 142.236 0 0 0 3.918-.418c.649-.078 1.293-.16 1.942-.242a445.36 445.36 0 0 0 1.93-.261c1.281-.18 2.554-.368 3.82-.559 2.531-.383 5.027-.781 7.488-1.156 1.227-.184 2.445-.367 3.656-.535a155.777 155.777 0 0 1 5.368-.668 84.765 84.765 0 0 1 1.757-.172c.582-.055 1.161-.098 1.739-.141a86.164 86.164 0 0 1 3.425-.168 79.387 79.387 0 0 1 1.684-.019c.563.003 1.117.011 1.668.027.555.019 1.102.043 1.648.078.547.035 1.086.082 1.625.133.539.055 1.079.121 1.61.195.531.074 1.058.156 1.586.254.523.098 1.047.203 1.566.32.258.059.516.125.774.188.257.066.511.133.769.203.254.074.508.148.762.227.254.078.508.156.758.242.254.082.504.172.754.261.25.09.5.184.746.282.25.097.496.195.742.3.246.106.492.211.738.325l.371.175-2.664 16.512c-5.117 31.719-5.348 33.078-5.828 34.606-1.68 5.324-5.582 8.98-11.117 10.414-2.207.574-4.914.816-7.371.66a57.81 57.81 0 0 0-1.028-.063c-.535-.019-67.457-10.324-68.105-10.484-5.379-1.344-9.746-4.137-12.551-8.039-2.258-3.137-3.34-6.645-3.324-10.754.004-.871.082-1.434.68-5.102l.914-5.652z" style="fill:#ffba00;fill-opacity:1;fill-rule:nonzero;stroke:none"/></g></g><path d="M48.996 37.576c-.691 2.05-2.006 3.365-3.946 3.947-1.706.518-3.652.43-5.838-.265-2.599-.827-4.789-2.042-6.57-3.644-.185-.168-.26-.3-.226-.397-.011.03.554-.752 1.697-2.348.15-.227.295-.32.436-.275 1.697 1.662 3.204 2.7 4.52 3.12 3.127.992 5.06.386 5.799-1.82.459-1.369.238-2.493-.662-3.373-.637-.631-1.722-1.192-3.257-1.681a34.743 33.834.012 0 0-1.351-.391 49.419 49.419 0 0 1-1.224-.353c-.665-.212-.952-.453-.86-.722.508-1.513.932-2.216 1.274-2.106.503.163 1.241.46 2.216.893.973.43 1.714.725 2.221.882.752.243 1.45.196 2.09-.143.641-.338 1.086-.876 1.333-1.615.687-2.05-.339-3.511-3.076-4.382-1.603-.51-3.156-.64-4.657-.386a.367.358.012 0 1-.177-.022c-.29-.091-.158-.968.397-2.63.187-.558 1.254-.7 3.203-.424 1.345.191 2.531.45 3.56.777 1.91.61 3.403 1.537 4.476 2.778 1.297 1.475 1.654 3.086 1.07 4.835-.306.9-.863 1.722-1.67 2.463-.864.787-1.759 1.219-2.685 1.296 2.098 1.514 2.734 3.51 1.907 5.986z" style="fill:none;stroke:#f0f;stroke-width:1.14667;stroke-linecap:butt;stroke-linejoin:miter;stroke-miterlimit:4;stroke-dasharray:none;stroke-opacity:1"/><path d="M48.739 38.079c-.692 2.05-2.007 3.365-3.947 3.946-1.706.519-3.652.43-5.838-.264-2.599-.827-4.788-2.042-6.57-3.644-.185-.168-.259-.3-.226-.397-.011.03.554-.752 1.698-2.348.15-.227.295-.32.435-.275 1.698 1.662 3.204 2.7 4.52 3.12 3.127.992 5.06.386 5.799-1.82.459-1.369.238-2.494-.662-3.373-.636-.63-1.722-1.192-3.257-1.681a34.728 33.819.012 0 0-1.35-.391 51.236 51.236 0 0 1-1.224-.353c-.666-.213-.953-.453-.86-.722.507-1.513.931-2.216 1.273-2.106.503.163 1.242.46 2.216.893.973.43 1.714.725 2.221.882.753.243 1.45.196 2.09-.143.642-.338 1.087-.877 1.334-1.615.686-2.05-.34-3.512-3.076-4.383-1.603-.51-3.156-.639-4.658-.385a.366.357.012 0 1-.177-.023c-.29-.09-.158-.967.398-2.629.187-.558 1.254-.7 3.202-.424 1.345.192 2.531.45 3.56.777 1.91.61 3.403 1.537 4.477 2.778 1.297 1.475 1.653 3.086 1.069 4.835-.306.9-.863 1.722-1.67 2.464-.864.786-1.759 1.217-2.685 1.295 2.098 1.514 2.735 3.51 1.908 5.986z" style="fill:#ec008c;fill-opacity:1;stroke:#ec008c;stroke-width:1.14667;stroke-linecap:butt;stroke-linejoin:miter;stroke-miterlimit:4;stroke-dasharray:none;stroke-opacity:1"/><path d="M60.198 36.738c-.061.035-.123.074-.184.11l-.412.24c-.137.077-.274.154-.41.228a26.226 26.226 0 0 1-.816.426l-.407.199c-.135.065-.268.126-.403.187a16.669 16.669 0 0 1-.403.178l-.4.17c-.133.053-.267.107-.4.158-.132.05-.264.102-.396.15-.133.048-.265.095-.396.14a23.985 23.985 0 0 1-.787.255c-.13.04-.26.078-.39.115-.13.036-.26.072-.39.105-.129.034-.257.067-.387.097-.13.032-.257.061-.385.09-.129.029-.258.055-.385.082-.128.026-.256.05-.383.074a23.45 23.45 0 0 1-.382.066l-.38.06-.378.05-.376.044c-.126.014-.25.027-.376.037a21.739 21.739 0 0 1-1.486.084c-.245.006-.489.01-.733.006a21.751 21.751 0 0 1-.729-.018 20.438 20.438 0 0 1-.722-.04 24.943 24.943 0 0 1-1.426-.14 24.07 24.07 0 0 1-.706-.095 28.892 28.892 0 0 1-1.394-.24l-.69-.14c-.227-.05-.455-.101-.683-.155a36.358 36.358 0 0 1-.678-.164 52.154 52.154 0 0 1-1.34-.356c-.221-.062-.443-.124-.662-.189-.22-.063-.44-.128-.659-.194a108.026 108.026 0 0 1-1.3-.398c-.86-.269-1.708-.541-2.543-.804a119.069 119.069 0 0 0-1.245-.383 58.04 58.04 0 0 0-1.226-.355 31.696 31.696 0 0 0-.607-.164 33.574 33.574 0 0 0-1.2-.296 23.66 23.66 0 0 0-.595-.128 23.838 23.838 0 0 0-1.175-.211 30.041 30.041 0 0 0-.583-.08 16.963 16.963 0 0 0-1.152-.101 15.573 15.573 0 0 0-.573-.019 13.173 13.173 0 0 0-1.13.031 9.701 9.701 0 0 0-.28.025c-.094.01-.187.018-.28.03-.092.01-.186.024-.279.036l-.278.044-.277.052c-.091.018-.183.038-.276.059a8.696 8.696 0 0 0-.275.064 19.38 19.38 0 0 0-.275.074c-.046.012-.093.027-.14.041l-.004 5.897c-.007 11.327-.004 11.812.079 12.37.284 1.946 1.437 3.43 3.286 4.225a8.588 8.588 0 0 0 2.532.623l.36.034c.188.021 24.09.013 24.325-.009 1.95-.18 3.63-.92 4.828-2.129.964-.973 1.538-2.137 1.764-3.57.048-.304.053-.505.053-1.814z" style="fill:#fd5;fill-opacity:1;fill-rule:nonzero;stroke:none;stroke-width:.35278"/><path d="M58.773 16.438c.073.764.093 1.572.046 1.875-.033.22-.224.447-.464.549-.237.099-8.223 1.21-8.953 1.244a12.992 12.992 0 0 1-3.697-.38 39.559 39.559 0 0 1-1.224-.356c-2.313-.703-3.507-.795-6.405-.496-1.43.147-2.008.258-2.062.395-.015.036-.105.104-.2.15-.144.07-.2.078-.324.048-1.437-.56-1.86.733-2.605-.284-.116-.166-.145-.256-.202-.645-.08-.55-.035-.849.167-1.127.131-.178.16-.195.38-.225.133-.018.394-.017.585.004.6.054.964-.068 1.397-.376l.21.084c.115.045.234.113.261.149.046.058.188.043 1.48-.162 3.134-.496 4.716-1.09 6.972-2.614 1.015-.686 2.093-1.203 3.397-1.627l.603-.196 3.979-.59c4.458-.664 4.998-.726 5.338-.612.364.123.45.277.663 1.2.225.972.567 3.04.658 3.99z" style="fill:#2f318d;fill-opacity:1;fill-rule:nonzero;stroke:#2f318d;stroke-width:.30003;stroke-linecap:butt;stroke-linejoin:miter;stroke-miterlimit:4;stroke-dasharray:none;stroke-opacity:1"/><path d="M15.05 62.205h55.352c.1 0 .45.02.58.257 1.014 1.842-1.56 4.172-3.455 4.762-.506.157-1.17.382-1.893.375H20.372a4.612 4.612 0 0 1-1.43-.149c-3.222-.8-5.517-5.245-3.892-5.245" style="fill:#ec008c;fill-opacity:1;fill-rule:evenodd;stroke:none;stroke-width:.35278"/><path d="M71.207 63.426c-1.682-.038-3.673.075-5.24-.06-.198-.223-.155-.629.07-.801 1.081-.039 2.345.007 3.316-.058.507 0 1.646-.012 1.651.004.01.03.217.31.203.915m-2.752 2.638c-.823-.064-1.959.135-2.556-.114-.063-.291-.083-.514.068-.746.878-.132 2.048-.02 3.04-.058h1.476c-.287.349-.45.536-.905.918zm-51.55-2.245c.924.036 2.024-.074 2.833.057.11.285.08.637-.069.86h-.138c-1.382.038-2.94-.08-4.208.054a5.843 5.843 0 0 1-.56-.97zm-2.266-.33c-.184-.55-.126-.857-.041-1.007.032-.056 1.039.025 1.477.025 1.037.058 2.463-.055 3.455.114.189.065.015.702 0 .746-1.498.172-4.832.13-4.89.123m56.535.238c-.048.306-.226.754-.496 1.142-.015-.044-.14-.077-.22-.068-1.314-.134-2.926-.02-4.354-.057-.252-.121-.347-.53-.206-.803.243-.186.636-.107.967-.115 1.167-.03 2.365.022 3.455 0 .21-.036.757.032.854-.099m-51.37 1.58c.156.2.047.59-.068.745h-2.419c-.233.037-.656-.032-.798.069-.336-.309-.48-.438-.938-.983.576 0 1.16-.004 1.736-.004.53 0 1.5.029 1.593.032.094.003.794-.064.895.14m-.826 1.186c.785-.013.831.413.69.917-.165.035-.2.011-.76.032-.378-.108-1.054-.306-1.935-.95.669 0 1.218.013 2.005 0m48.441.765c-.366-.14-1.08.188-1.492.013a1.357 1.357 0 0 1 0-.69c.752-.369 2.133-.066 3.124-.116-.404.355-1.483.768-1.632.793" style="fill:#38a7e4;fill-opacity:1;fill-rule:evenodd;stroke:none;stroke-width:.35278"/><path d="M37.151 62.565c.544.043 2.09.017 1.268.854-.496.507-.613 1.425-.564 2.096.022.294.092.633.332.835a13.77 13.77 0 0 0 1.76-.569c.458-.184.906-.4 1.321-.663.399-.252.647-.755 1.102-.344.45.405.621 1.42.17 1.89-.424.439-1.183.495-1.76.528-1.665.094-3.355-.253-5.011-.038-.043-.496.19-1.008.277-1.491.087-.485.142-1.08.103-1.573-.037-.478-.415-.872-.402-1.387.008-.387 1.069-.165 1.404-.138.652.05-.212-.018 0 0m10.642.056c.803.027 1.623-.075 2.42.058-.319 1.063-.293 2.2-.62 3.26-.311 1.01-1.722 1.271-2.638 1.306-1.647.06-3.865-.44-4.137-2.328.707-.142 1.441-.037 2.153-.007.445.02.52-.066.67.35.079.22.16.448.297.643.64.921 1.723.1 1.954-.672.111-.374.12-.797-.042-1.161-.26-.591-.707-.547-1.298-.502-1.291.098-2.483.513-3.666 1.005-.209-.429-.137-.947-.137-1.406 0-.3-.134-.483.227-.511a24.797 24.797 0 0 1 .97-.048c1.279-.047 2.568.013 3.847.013.798.027-.485 0 0 0m4.837 2.926c.16.751 1.259.6 1.76.356.317-.155.583-.38.866-.585-.032-.373.124-.741.063-1.113-.145-.882-2.946.127-2.689 1.342.101.48-.196-.927 0 0m-2.28-.401c.067-.988.835-1.567 1.612-2.05 1.002-.623 2.077-.597 3.237-.563.583.018 1.169.097 1.75.098.213 0 .718-.106.672.22-.035.251-.244.44-.291.688-.228 1.203.116 2.419.207 3.615H55.67c-.466-.042-.415-.046-.415-.515-1.053.48-2.224.853-3.382.5-.415-.127-.883-.315-1.209-.605-.425-.38-.35-.877-.315-1.388.045-.67-.015.229 0 0m8.2-1.418c-.082-.459-.362-.677-.599-1.049.586-.1 1.198-.277 1.797-.172.288.05.49.21.696.4.233.216.499-.021.739-.153.92-.51 2.493-.195 3.208.538.689.707 1.06 2.124.638 3.035-.445.956-1.856.857-2.725.712.073-.638.787-.923.756-1.656-.025-.577-.436-1.03-.994-1.196-.631-.189-1.477-.108-1.776.555-.332.732.215 1.607.425 2.297-.44-.02-.881 0-1.321.007a9.635 9.635 0 0 1-.774-.01c-.37-.023-.481.065-.422-.344.135-.923.517-2.03.351-2.964-.037-.21.051.294 0 0m-27.34.443c-.403.227-1.082 1.074-.776 1.548.4.618 1.152.448 1.728.187.805-.366.897-.833.903-1.65.004-.656-1.433-.324-1.855-.085-.358.202.394-.224 0 0m-3.11.975c-.028-.945 1.163-1.913 1.963-2.26 1.148-.497 2.612-.372 3.84-.321.37.015.737.073 1.107.056.62-.026.58.452.36.918-.241.507-.434.908-.4 1.479.04.722.236 1.467.316 2.194-.457 0-.905-.018-1.368.004-.632.029-.912.055-.912-.577-1.135.374-2.115.927-3.334.523-.453-.152-.92-.375-1.253-.718-.376-.386-.304-.803-.32-1.298-.012-.427.008.211 0 0m-4.974.573c.17.663 2.35.908 2.517.093.31-1.501-2.764-1.05-2.517-.093.092.364-.114-.445 0 0m4.702.42c-.335.691-1.183 1.158-1.938 1.245-.613.07-1.232-.05-1.819-.216-.318-.091-.631-.197-.945-.3-.194.066.063.22 0 .344-.61-.04-2.213.29-2.627-.115.324-1.081.296-2.046.277-3.155-.01-.598.01.529 0 0-.008-.443-.322-.776-.346-1.206h2.696c-.024.446-.182.87-.14 1.32.439-.01.847-.442 1.276-.557.582-.155 1.187-.108 1.766.04 1.026.265 1.907.744 1.946 1.92a1.437 1.437 0 0 1-.146.68" style="fill:#fff;fill-opacity:1;fill-rule:evenodd;stroke:none;stroke-width:.35278"/><path d="M26.858 33.136c-.863-5.654-5.242-3.994-3.172-2.15.673.584 3.172 2.15 3.172 2.15z" style="fill:#ffba00;fill-opacity:1;fill-rule:nonzero;stroke:#ffba00;stroke-width:.0751427;stroke-linecap:butt;stroke-linejoin:miter;stroke-miterlimit:4;stroke-dasharray:none;stroke-opacity:1"/><path d="M23.955 29.457c-1.748.613 1.54 2.485 2.614 3.165-.564-3.23-2.614-3.165-2.614-3.165z" style="fill:#fd5;fill-opacity:1;fill-rule:nonzero;stroke:#fd5;stroke-width:.0751427;stroke-linecap:butt;stroke-linejoin:miter;stroke-miterlimit:4;stroke-dasharray:none;stroke-opacity:1"/><path d="M27.065 29.98c-.56-3.665-3.4-2.59-2.059-1.393.437.378 2.06 1.394 2.06 1.394z" style="fill:#ffba00;fill-opacity:1;fill-rule:nonzero;stroke:#ffba00;stroke-width:.0487231;stroke-linecap:butt;stroke-linejoin:miter;stroke-miterlimit:4;stroke-dasharray:none;stroke-opacity:1"/><path d="M25.181 27.595c-1.132.398 1 1.611 1.695 2.054-.365-2.096-1.695-2.054-1.695-2.054z" style="fill:#fd5;fill-opacity:1;fill-rule:nonzero;stroke:#fd5;stroke-width:.0487231;stroke-linecap:butt;stroke-linejoin:miter;stroke-miterlimit:4;stroke-dasharray:none;stroke-opacity:1"/><path d="M25.98 34.025c-.353-2.31-2.142-1.631-1.296-.878.274.239 1.296.878 1.296.878z" style="fill:#ffba00;fill-opacity:1;fill-rule:nonzero;stroke:#ffba00;stroke-width:.0307066;stroke-linecap:butt;stroke-linejoin:miter;stroke-miterlimit:4;stroke-dasharray:none;stroke-opacity:1"/><path d="M24.793 32.522c-.714.25.63 1.016 1.07 1.294-.233-1.32-1.07-1.294-1.07-1.294z" style="fill:#fd5;fill-opacity:1;fill-rule:nonzero;stroke:#fd5;stroke-width:.0307066;stroke-linecap:butt;stroke-linejoin:miter;stroke-miterlimit:4;stroke-dasharray:none;stroke-opacity:1"/><path d="M32.225 30.081c.354-2.31 2.142-1.631 1.296-.878-.274.239-1.296.878-1.296.878z" style="fill:#ffba00;fill-opacity:1;fill-rule:nonzero;stroke:#ffba00;stroke-width:.0307066;stroke-linecap:butt;stroke-linejoin:miter;stroke-miterlimit:4;stroke-dasharray:none;stroke-opacity:1"/><path d="M33.412 28.578c.714.25-.63 1.015-1.069 1.294.23-1.32 1.07-1.294 1.07-1.294z" style="fill:#fd5;fill-opacity:1;fill-rule:nonzero;stroke:#fd5;stroke-width:.0307066;stroke-linecap:butt;stroke-linejoin:miter;stroke-miterlimit:4;stroke-dasharray:none;stroke-opacity:1"/><path d="M32.225 30.081c.354-2.31 2.142-1.631 1.296-.878-.274.239-1.296.878-1.296.878z" style="fill:#ffba00;fill-opacity:1;fill-rule:nonzero;stroke:#ffba00;stroke-width:.0307066;stroke-linecap:butt;stroke-linejoin:miter;stroke-miterlimit:4;stroke-dasharray:none;stroke-opacity:1"/><path d="M33.412 28.578c.714.25-.63 1.015-1.069 1.294.23-1.32 1.07-1.294 1.07-1.294z" style="fill:#fd5;fill-opacity:1;fill-rule:nonzero;stroke:#fd5;stroke-width:.0307066;stroke-linecap:butt;stroke-linejoin:miter;stroke-miterlimit:4;stroke-dasharray:none;stroke-opacity:1"/><path d="M31.489 36.069c.692-4.522 4.193-3.196 2.538-1.719-.539.466-2.538 1.719-2.538 1.719z" style="fill:#ffba00;fill-opacity:1;fill-rule:nonzero;stroke:#ffba00;stroke-width:.0601017;stroke-linecap:butt;stroke-linejoin:miter;stroke-miterlimit:4;stroke-dasharray:none;stroke-opacity:1"/><path d="M33.812 33.127c1.397.49-1.233 1.987-2.092 2.531.45-2.584 2.092-2.531 2.092-2.531z" style="fill:#fd5;fill-opacity:1;fill-rule:nonzero;stroke:#fd5;stroke-width:.0601017;stroke-linecap:butt;stroke-linejoin:miter;stroke-miterlimit:4;stroke-dasharray:none;stroke-opacity:1"/><path d="M23.378 32c-.561-3.665-3.4-2.59-2.058-1.392.436.377 2.058 1.393 2.058 1.393z" style="fill:#ffba00;fill-opacity:1;fill-rule:nonzero;stroke:#ffba00;stroke-width:.0487231;stroke-linecap:butt;stroke-linejoin:miter;stroke-miterlimit:4;stroke-dasharray:none;stroke-opacity:1"/><path d="M21.494 29.615c-1.133.399 1 1.612 1.696 2.054-.367-2.096-1.696-2.054-1.696-2.054z" style="fill:#fd5;fill-opacity:1;fill-rule:nonzero;stroke:#fd5;stroke-width:.0487231;stroke-linecap:butt;stroke-linejoin:miter;stroke-miterlimit:4;stroke-dasharray:none;stroke-opacity:1"/><path d="M23.143 28.66c-.495-3.238-3.003-2.288-1.816-1.231.384.334 1.816 1.23 1.816 1.23z" style="fill:#ffba00;fill-opacity:1;fill-rule:nonzero;stroke:#ffba00;stroke-width:.0430337;stroke-linecap:butt;stroke-linejoin:miter;stroke-miterlimit:4;stroke-dasharray:none;stroke-opacity:1"/><path d="M21.48 26.553c-1 .35.883 1.423 1.498 1.813-.324-1.85-1.498-1.813-1.498-1.813z" style="fill:#fd5;fill-opacity:1;fill-rule:nonzero;stroke:#fd5;stroke-width:.0430337;stroke-linecap:butt;stroke-linejoin:miter;stroke-miterlimit:4;stroke-dasharray:none;stroke-opacity:1"/><path d="M31.683 33.404c.566-3.699 3.43-2.614 2.075-1.406-.44.382-2.075 1.406-2.075 1.406z" style="fill:#ffba00;fill-opacity:1;fill-rule:nonzero;stroke:#ffba00;stroke-width:.0491486;stroke-linecap:butt;stroke-linejoin:miter;stroke-miterlimit:4;stroke-dasharray:none;stroke-opacity:1"/><path d="M33.583 30.998c1.142.4-1.008 1.624-1.711 2.07.37-2.113 1.711-2.07 1.711-2.07z" style="fill:#fd5;fill-opacity:1;fill-rule:nonzero;stroke:#fd5;stroke-width:.0491486;stroke-linecap:butt;stroke-linejoin:miter;stroke-miterlimit:4;stroke-dasharray:none;stroke-opacity:1"/><path d="M34.038 30.256c.468-3.056 2.834-2.16 1.716-1.161-.364.315-1.716 1.161-1.716 1.161z" style="fill:#ffba00;fill-opacity:1;fill-rule:nonzero;stroke:#ffba00;stroke-width:.0406145;stroke-linecap:butt;stroke-linejoin:miter;stroke-miterlimit:4;stroke-dasharray:none;stroke-opacity:1"/><path d="M35.609 28.268c.944.33-.834 1.342-1.414 1.71.305-1.746 1.414-1.71 1.414-1.71z" style="fill:#fd5;fill-opacity:1;fill-rule:nonzero;stroke:#fd5;stroke-width:.0406145;stroke-linecap:butt;stroke-linejoin:miter;stroke-miterlimit:4;stroke-dasharray:none;stroke-opacity:1"/><g clip-path="url(#i)" transform="translate(-64.957 -105.405) scale(.35278)"><g clip-path="url(#j)"><g clip-path="url(#k)"><path d="M299.508 460.152a1.348 1.348 0 1 1-2.696 0 1.348 1.348 0 0 1 2.696 0z" style="fill:none;stroke:#ffba00;stroke-width:.176863;stroke-linecap:butt;stroke-linejoin:miter;stroke-miterlimit:4;stroke-dasharray:none;stroke-opacity:1"/></g></g></g><g clip-path="url(#l)" transform="translate(-64.957 -105.405) scale(.35278)"><g clip-path="url(#m)"><g clip-path="url(#n)"><path d="M305.902 457.484c0 1.106-.894 2-2 2a2 2 0 1 1 0-4c1.106 0 2 .895 2 2z" style="fill:none;stroke:#ffba00;stroke-width:.262663;stroke-linecap:butt;stroke-linejoin:miter;stroke-miterlimit:4;stroke-dasharray:none;stroke-opacity:1"/></g></g></g><g clip-path="url(#o)" transform="translate(-64.957 -105.405) scale(.35278)"><g clip-path="url(#p)"><g clip-path="url(#q)"><path d="M311.281 453.422a1.348 1.348 0 1 1-2.695 0 1.347 1.347 0 0 1 2.695 0z" style="fill:none;stroke:#ffba00;stroke-width:.176863;stroke-linecap:butt;stroke-linejoin:miter;stroke-miterlimit:4;stroke-dasharray:none;stroke-opacity:1"/></g></g></g><g clip-path="url(#r)" transform="translate(-64.957 -105.405) scale(.35278)"><g clip-path="url(#s)"><g clip-path="url(#t)"><path d="M317.043 447.504a2 2 0 1 1-3.999.001 2 2 0 0 1 3.999-.001z" style="fill:none;stroke:#ffba00;stroke-width:.262663;stroke-linecap:butt;stroke-linejoin:miter;stroke-miterlimit:4;stroke-dasharray:none;stroke-opacity:1"/></g></g></g><g clip-path="url(#u)" transform="translate(-64.957 -105.405) scale(.35278)"><g clip-path="url(#v)"><g clip-path="url(#w)"><path d="M316.383 440.656c0 .805-.653 1.453-1.453 1.453a1.453 1.453 0 0 1-1.457-1.453c0-.804.652-1.457 1.457-1.457.8 0 1.453.653 1.453 1.457z" style="fill:none;stroke:#ffba00;stroke-width:.191163;stroke-linecap:butt;stroke-linejoin:miter;stroke-miterlimit:4;stroke-dasharray:none;stroke-opacity:1"/></g></g></g><g clip-path="url(#x)" transform="translate(-64.957 -105.405) scale(.35278)"><g clip-path="url(#y)"><g clip-path="url(#z)"><path d="M312.238 438.508a1.89 1.89 0 0 1-1.894 1.89 1.89 1.89 0 1 1 0-3.781c1.047 0 1.894.848 1.894 1.891z" style="fill:none;stroke:#ffba00;stroke-width:.248363;stroke-linecap:butt;stroke-linejoin:miter;stroke-miterlimit:4;stroke-dasharray:none;stroke-opacity:1"/></g></g></g><g clip-path="url(#A)" transform="translate(-64.957 -105.405) scale(.35278)"><g clip-path="url(#B)"><g clip-path="url(#C)"><path d="M315.602 431.781a1.893 1.893 0 1 1-3.786-.004 1.893 1.893 0 0 1 3.786.004z" style="fill:none;stroke:#ffba00;stroke-width:.248363;stroke-linecap:butt;stroke-linejoin:miter;stroke-miterlimit:4;stroke-dasharray:none;stroke-opacity:1"/></g></g></g><g clip-path="url(#D)" transform="translate(-64.957 -105.405) scale(.35278)"><g clip-path="url(#E)"><g clip-path="url(#F)"><path d="M297.609 448.32a2.87 2.87 0 1 1-5.741.001 2.87 2.87 0 0 1 5.741-.001z" style="fill:none;stroke:#ffba00;stroke-width:.377064;stroke-linecap:butt;stroke-linejoin:miter;stroke-miterlimit:4;stroke-dasharray:none;stroke-opacity:1"/></g></g></g><g clip-path="url(#G)" transform="translate(-64.957 -105.405) scale(.35278)"><g clip-path="url(#H)"><g clip-path="url(#I)"><path d="M299.73 441.766c0 .804-.652 1.453-1.457 1.453-.8 0-1.453-.649-1.453-1.453 0-.805.653-1.457 1.453-1.457.805 0 1.457.652 1.457 1.457z" style="fill:none;stroke:#ffba00;stroke-width:.191163;stroke-linecap:butt;stroke-linejoin:miter;stroke-miterlimit:4;stroke-dasharray:none;stroke-opacity:1"/></g></g></g><g clip-path="url(#J)" transform="translate(-64.957 -105.405) scale(.35278)"><g clip-path="url(#K)"><g clip-path="url(#L)"><path d="M300.406 433.703a1.783 1.783 0 1 1-3.565-.005 1.783 1.783 0 0 1 3.565.005z" style="fill:none;stroke:#ffba00;stroke-width:.234063;stroke-linecap:butt;stroke-linejoin:miter;stroke-miterlimit:4;stroke-dasharray:none;stroke-opacity:1"/></g></g></g><g clip-path="url(#M)" transform="translate(-64.957 -105.405) scale(.35278)"><g clip-path="url(#N)"><g clip-path="url(#O)"><path d="M293.121 429.234a2.328 2.328 0 0 1-4.656 0 2.326 2.326 0 0 1 2.328-2.324 2.326 2.326 0 0 1 2.328 2.324z" style="fill:none;stroke:#ffba00;stroke-width:.305564;stroke-linecap:butt;stroke-linejoin:miter;stroke-miterlimit:4;stroke-dasharray:none;stroke-opacity:1"/></g></g></g><g clip-path="url(#P)" transform="translate(-64.957 -105.405) scale(.35278)"><g clip-path="url(#Q)"><g clip-path="url(#R)"><path d="M298.5 425.176c0 .926-.75 1.672-1.676 1.672a1.675 1.675 0 1 1 1.676-1.672z" style="fill:none;stroke:#ffba00;stroke-width:.219763;stroke-linecap:butt;stroke-linejoin:miter;stroke-miterlimit:4;stroke-dasharray:none;stroke-opacity:1"/></g></g></g><g clip-path="url(#S)" transform="translate(-64.957 -105.405) scale(.35278)"><g clip-path="url(#T)"><g clip-path="url(#U)"><path d="M319.297 422.672a1.239 1.239 0 1 1-2.478-.002 1.239 1.239 0 0 1 2.478.002z" style="fill:none;stroke:#ffba00;stroke-width:.162563;stroke-linecap:butt;stroke-linejoin:miter;stroke-miterlimit:4;stroke-dasharray:none;stroke-opacity:1"/></g></g></g><g clip-path="url(#V)" transform="translate(-64.957 -105.405) scale(.35278)"><g clip-path="url(#W)"><g clip-path="url(#X)"><path d="M324.344 427.719a1.24 1.24 0 1 1-2.478-.002 1.24 1.24 0 0 1 2.478.002z" style="fill:none;stroke:#ffba00;stroke-width:.162563;stroke-linecap:butt;stroke-linejoin:miter;stroke-miterlimit:4;stroke-dasharray:none;stroke-opacity:1"/></g></g></g><g clip-path="url(#Y)" transform="translate(-64.957 -105.405) scale(.35278)"><g clip-path="url(#Z)"><g clip-path="url(#aa)"><path d="M301.414 419.898a1.457 1.457 0 1 1-2.913-.005 1.457 1.457 0 0 1 2.913.005z" style="fill:none;stroke:#ffba00;stroke-width:.191163;stroke-linecap:butt;stroke-linejoin:miter;stroke-miterlimit:4;stroke-dasharray:none;stroke-opacity:1"/></g></g></g><g clip-path="url(#ab)" transform="translate(-64.957 -105.405) scale(.35278)"><g clip-path="url(#ac)"><g clip-path="url(#ad)"><path d="M305.902 447.391a2 2 0 1 1-4 0c0-1.106.895-2 2-2 1.106 0 2 .894 2 2z" style="fill:none;stroke:#ffba00;stroke-width:.262663;stroke-linecap:butt;stroke-linejoin:miter;stroke-miterlimit:4;stroke-dasharray:none;stroke-opacity:1"/></g></g></g><g clip-path="url(#ae)" transform="translate(-64.957 -105.405) scale(.35278)"><g clip-path="url(#af)"><g clip-path="url(#ag)"><path d="M305.004 426.742a1.567 1.567 0 0 1-3.133 0c0-.863.703-1.566 1.567-1.566.863 0 1.566.703 1.566 1.566z" style="fill:none;stroke:#ffba00;stroke-width:.205463;stroke-linecap:butt;stroke-linejoin:miter;stroke-miterlimit:4;stroke-dasharray:none;stroke-opacity:1"/></g></g></g><g clip-path="url(#ah)" transform="translate(-64.957 -105.405) scale(.35278)"><g clip-path="url(#ai)"><g clip-path="url(#aj)"><path d="M305.004 438.516c0 .863-.703 1.566-1.566 1.566a1.569 1.569 0 0 1-1.567-1.566c0-.864.703-1.563 1.567-1.563.863 0 1.566.699 1.566 1.563z" style="fill:none;stroke:#ffba00;stroke-width:.205463;stroke-linecap:butt;stroke-linejoin:miter;stroke-miterlimit:4;stroke-dasharray:none;stroke-opacity:1"/></g></g></g><g clip-path="url(#ak)" transform="translate(-64.957 -105.405) scale(.35278)"><g clip-path="url(#al)"><g clip-path="url(#am)"><path d="M310.051 421.695c0 .864-.703 1.567-1.567 1.567a1.569 1.569 0 0 1-1.566-1.567c0-.863.703-1.566 1.566-1.566.864 0 1.567.703 1.567 1.566z" style="fill:none;stroke:#ffba00;stroke-width:.205463;stroke-linecap:butt;stroke-linejoin:miter;stroke-miterlimit:4;stroke-dasharray:none;stroke-opacity:1"/></g></g></g><g clip-path="url(#an)" transform="translate(-64.957 -105.405) scale(.35278)"><g clip-path="url(#ao)"><g clip-path="url(#ap)"><path d="M307.523 432.766a1.238 1.238 0 1 1-2.477 0 1.238 1.238 0 0 1 2.477 0z" style="fill:none;stroke:#ffba00;stroke-width:.162563;stroke-linecap:butt;stroke-linejoin:miter;stroke-miterlimit:4;stroke-dasharray:none;stroke-opacity:1"/></g></g></g><g clip-path="url(#aq)" transform="translate(-64.957 -105.405) scale(.35278)"><g clip-path="url(#ar)"><g clip-path="url(#as)"><path d="M305.785 416.184a1.13 1.13 0 1 1-2.26-.001 1.13 1.13 0 0 1 2.26.001z" style="fill:none;stroke:#ffba00;stroke-width:.148263;stroke-linecap:butt;stroke-linejoin:miter;stroke-miterlimit:4;stroke-dasharray:none;stroke-opacity:1"/></g></g></g><g clip-path="url(#at)" transform="translate(-64.957 -105.405) scale(.35278)"><g clip-path="url(#au)"><g clip-path="url(#av)"><path d="M293.785 463.168a1.021 1.021 0 1 1-2.042-.002 1.021 1.021 0 0 1 2.042.002z" style="fill:none;stroke:#ffba00;stroke-width:.133963;stroke-linecap:butt;stroke-linejoin:miter;stroke-miterlimit:4;stroke-dasharray:none;stroke-opacity:1"/></g></g></g><g clip-path="url(#aw)" transform="translate(-64.957 -105.405) scale(.35278)"><g clip-path="url(#ax)"><g clip-path="url(#ay)"><path d="M308.672 414.258a.895.895 0 0 1-.899.894.895.895 0 0 1-.898-.894.899.899 0 1 1 1.797 0z" style="fill:none;stroke:#ffba00;stroke-width:.117928;stroke-linecap:butt;stroke-linejoin:miter;stroke-miterlimit:4;stroke-dasharray:none;stroke-opacity:1"/></g></g></g><path d="M355.852 388.457v12.426c9.859 1.004 14.793 5.527 14.793 13.566 0 5.485-2.059 9.629-6.176 12.442-2.383 1.601-5.254 2.656-8.617 3.164v13.902c9.246-.23 16.617-2.656 22.105-7.293 6.305-5.25 9.461-12.961 9.461-23.129 0-8.437-2.707-14.883-8.121-19.336-4.875-3.984-11.426-5.976-19.656-5.976-.946 0-2.227.082-3.789.234z" style="fill:#ec008c;fill-opacity:1;fill-rule:nonzero;stroke:#ec008c;stroke-width:3.74455;stroke-linecap:butt;stroke-linejoin:miter;stroke-miterlimit:4;stroke-dasharray:none;stroke-opacity:1" transform="translate(-64.957 -105.405) scale(.35278)"/><path d="M378.746 356.172c-2.281 0-5.703.117-10.266.351-4.519.235-7.894.352-10.132.352-2.371 0-5.903-.094-10.602-.281-4.695-.235-8.207-.352-10.531-.352-.629 0-1.457.492-2.485 1.477-.984.937-1.476 1.734-1.476 2.39 0 3.422.047 8.579.137 15.469.086 6.844.132 11.977.132 15.399 0 .75-.023 2.132-.066 4.148-.09 1.781-.113 3.164-.07 4.148 0 .563.047.985.136 1.266.266.609.895.914 1.879.914 1.297 0 3.578-.258 6.844-.773 3.309-.516 5.813-.774 7.512-.774 1.613 0 3.121.071 4.531.215v-12.426c-.734.071-1.512.153-2.383.258-2.683.328-4.695.492-6.039.492.449-7.968.672-13.875.672-17.718 2.504-.141 5.41-.211 8.723-.211 2.324 0 5.793.14 10.398.422 4.652.281 8.141.421 10.465.421.539 0 1.145-.281 1.813-.843.714-.563 1.074-1.102 1.074-1.618 0-1.359.203-3.351.605-5.976.445-2.625.668-4.43.668-5.414 0-.891-.512-1.336-1.543-1.336z" style="fill:#ec008c;fill-opacity:1;fill-rule:nonzero;stroke:#ec008c;stroke-width:3.74455;stroke-linecap:butt;stroke-linejoin:miter;stroke-miterlimit:4;stroke-dasharray:none;stroke-opacity:1" transform="translate(-64.957 -105.405) scale(.35278)"/><path d="M354.477 461.215v-62.231" style="fill:none;stroke:#ec008c;stroke-width:4.27576;stroke-linecap:butt;stroke-linejoin:miter;stroke-miterlimit:4;stroke-dasharray:none;stroke-opacity:1" transform="matrix(.35278 0 0 .34354 -64.957 -105.405)"/><path d="M306.207 397.568c-52.289 0-54.125.004-54.539.121-1.281.365-2.199 1.199-2.594 2.354l-.148.433-.02 31.401c-.019 31.809-.011 33.173.219 34.741.809 5.464 4.078 9.627 9.316 11.861 2.09.895 4.723 1.537 7.176 1.753.453.041.914.081 1.024.093.535.06 68.285.036 68.953-.024 5.527-.502 10.289-2.584 13.683-5.981 2.731-2.732 4.364-5.997 5.004-10.024.149-.931.153-1.055.149-5.853l-.004-4.906.566-.044c5.684-.433 11.301-1.528 14.68-2.856 1.047-.413 2.012-.902 3.359-1.717 7.727-4.641 12.184-9.851 14.067-16.442.875-3.072 1.238-7.529.855-10.549-.711-5.596-3.293-10.795-7.504-15.099-4.867-4.913-11.66-8.319-19.238-9.173-.731-.073-10.754-.089-55.004-.089z" style="fill:none;stroke:#ec008c;stroke-width:4.27575;stroke-linecap:butt;stroke-linejoin:miter;stroke-miterlimit:4;stroke-dasharray:none;stroke-opacity:1" transform="matrix(.35278 0 0 .34354 -64.957 -105.405)"/></svg>