<svg height="600" style="width:100%;opacity:.6" xmlns="http://www.w3.org/2000/svg"><style>text{font:700 100% sans-serif}</style><rect x="10%" y="-.75" width="80%" height="1.5"/><text x="9%" y="15" text-anchor="end" alignment-baseline="middle">190</text><rect x="10%" y="13.5" width="80%" height="3"/><text x="91%" y="15" alignment-baseline="middle">190</text><rect x="10%" y="29.25" width="80%" height="1.5"/><text x="9%" y="45" text-anchor="end" alignment-baseline="middle">180</text><rect x="10%" y="43.5" width="80%" height="3"/><text x="91%" y="45" alignment-baseline="middle">180</text><rect x="10%" y="59.25" width="80%" height="1.5"/><text x="9%" y="75" text-anchor="end" alignment-baseline="middle">170</text><rect x="10%" y="73.5" width="80%" height="3"/><text x="91%" y="75" alignment-baseline="middle">170</text><rect x="10%" y="89.25" width="80%" height="1.5"/><text x="9%" y="105" text-anchor="end" alignment-baseline="middle">160</text><rect x="10%" y="103.5" width="80%" height="3"/><text x="91%" y="105" alignment-baseline="middle">160</text><rect x="10%" y="119.25" width="80%" height="1.5"/><text x="9%" y="135" text-anchor="end" alignment-baseline="middle">150</text><rect x="10%" y="133.5" width="80%" height="3"/><text x="91%" y="135" alignment-baseline="middle">150</text><rect x="10%" y="149.25" width="80%" height="1.5"/><text x="9%" y="165" text-anchor="end" alignment-baseline="middle">140</text><rect x="10%" y="163.5" width="80%" height="3"/><text x="91%" y="165" alignment-baseline="middle">140</text><rect x="10%" y="179.25" width="80%" height="1.5"/><text x="9%" y="195" text-anchor="end" alignment-baseline="middle">130</text><rect x="10%" y="193.5" width="80%" height="3"/><text x="91%" y="195" alignment-baseline="middle">130</text><rect x="10%" y="209.25" width="80%" height="1.5"/><text x="9%" y="225" text-anchor="end" alignment-baseline="middle">120</text><rect x="10%" y="223.5" width="80%" height="3"/><text x="91%" y="225" alignment-baseline="middle">120</text><rect x="10%" y="239.25" width="80%" height="1.5"/><text x="9%" y="255" text-anchor="end" alignment-baseline="middle">110</text><rect x="10%" y="253.5" width="80%" height="3"/><text x="91%" y="255" alignment-baseline="middle">110</text><rect x="10%" y="269.25" width="80%" height="1.5"/><text x="9%" y="285" text-anchor="end" alignment-baseline="middle">100</text><rect x="10%" y="283.5" width="80%" height="3"/><text x="91%" y="285" alignment-baseline="middle">100</text><rect x="10%" y="299.25" width="80%" height="1.5"/><text x="9%" y="315" text-anchor="end" alignment-baseline="middle">90</text><rect x="10%" y="313.5" width="80%" height="3"/><text x="91%" y="315" alignment-baseline="middle">90</text><rect x="10%" y="329.25" width="80%" height="1.5"/><text x="9%" y="345" text-anchor="end" alignment-baseline="middle">80</text><rect x="10%" y="343.5" width="80%" height="3"/><text x="91%" y="345" alignment-baseline="middle">80</text><rect x="10%" y="359.25" width="80%" height="1.5"/><text x="9%" y="375" text-anchor="end" alignment-baseline="middle">70</text><rect x="10%" y="373.5" width="80%" height="3"/><text x="91%" y="375" alignment-baseline="middle">70</text><rect x="10%" y="389.25" width="80%" height="1.5"/><text x="9%" y="405" text-anchor="end" alignment-baseline="middle">60</text><rect x="10%" y="403.5" width="80%" height="3"/><text x="91%" y="405" alignment-baseline="middle">60</text><rect x="10%" y="419.25" width="80%" height="1.5"/><text x="9%" y="435" text-anchor="end" alignment-baseline="middle">50</text><rect x="10%" y="433.5" width="80%" height="3"/><text x="91%" y="435" alignment-baseline="middle">50</text><rect x="10%" y="449.25" width="80%" height="1.5"/><text x="9%" y="465" text-anchor="end" alignment-baseline="middle">40</text><rect x="10%" y="463.5" width="80%" height="3"/><text x="91%" y="465" alignment-baseline="middle">40</text><rect x="10%" y="479.25" width="80%" height="1.5"/><text x="9%" y="495" text-anchor="end" alignment-baseline="middle">30</text><rect x="10%" y="493.5" width="80%" height="3"/><text x="91%" y="495" alignment-baseline="middle">30</text><rect x="10%" y="509.25" width="80%" height="1.5"/><text x="9%" y="525" text-anchor="end" alignment-baseline="middle">20</text><rect x="10%" y="523.5" width="80%" height="3"/><text x="91%" y="525" alignment-baseline="middle">20</text><rect x="10%" y="539.25" width="80%" height="1.5"/><text x="9%" y="555" text-anchor="end" alignment-baseline="middle">10</text><rect x="10%" y="553.5" width="80%" height="3"/><text x="91%" y="555" alignment-baseline="middle">10</text><rect x="10%" y="569.25" width="80%" height="1.5"/><text x="9%" y="585" text-anchor="end" alignment-baseline="middle">0</text><rect x="10%" y="583.5" width="80%" height="3"/><text x="91%" y="585" alignment-baseline="middle">0</text></svg>