<svg xmlns="http://www.w3.org/2000/svg" viewBox="0 0 420 90">
  <defs>
    <clipPath id="a" clipPathUnits="userSpaceOnUse">
      <path style="fill:#ff8acf;fill-opacity:1;stroke:#2e318e;stroke-width:.16500001;stroke-opacity:1" d="M0 27.755h420v189.34H0z"/>
    </clipPath>
  </defs>
  <g style="display:inline">
    <g style="display:inline">
      <path transform="translate(0 -47.47)" clip-path="url(#a)" d="M-34.156 144.728c9.263 0 16.233.322 34.156-12.736 17.923-13.059 38.208-30.683 45.734-34.735 7.526-4.052 17.946-1.737 28.367-8.684 10.42-6.947 17.946-13.893 25.472-18.525 7.526-4.631 10.999-7.526 13.894-12.157 2.894-4.631 4.63-1.737 11.578 3.474 6.947 5.21.579 4.052 12.157 15.63 11.578 11.578 17.946 23.157 17.946 23.157l2.316 22.577s11-6.947 13.894-13.315c2.894-6.368-1.158-14.473 20.84-17.946 22-3.474 35.314-8.105 45.156-15.63 9.841-7.526 12.157-14.473 23.735-12.158 11.578 2.316 12.736 6.947 22.577 9.842 9.842 2.894 24.315 12.736 35.893 1.158C331.137 63.1 350.82 47.47 350.82 47.47s9.263 15.631 21.42 28.946c12.157 13.315 16.788 6.947 20.84 7.526 4.053.579 16.21 8.105 20.841 11 4.632 2.894 31.262 12.157 31.262 12.157 109.04 301.988-516.263 387.82-479.339 37.629z" style="display:inline;fill:#2e318e;fill-opacity:1;stroke:none;stroke-width:.26458299px;stroke-linecap:butt;stroke-linejoin:miter;stroke-opacity:1"/>
    </g>
    <path d="M224.226 273.536s-1.09.403-1.402.29c-.312-.114-.37.056-.37.34 0 .284.03.312.285.54.255.226 4.001 1.333 5.506 1.333 1.504 0 2.923-1.078 2.923-1.845 0-.766-.284-1.73-2.072-1.73s-2.923-.03-3.377.198c-.454.227-1.493.874-1.493.874z" style="fill:#2e318e;fill-opacity:1;stroke:#2e318e;stroke-width:.26458299px;stroke-linecap:butt;stroke-linejoin:miter;stroke-opacity:1" transform="translate(0 -210.454)"/>
    <path style="fill:#fff;fill-opacity:1;fill-rule:evenodd;stroke:none;stroke-width:.17634501" d="M105.772-33.2h85.83c.153 0 .697.036.9.47 1.573 3.372-2.418 7.641-5.358 8.72-.783.288-1.814.7-2.936.686h-70.185c-.882.058-1.578-.084-2.217-.271-4.997-1.465-8.555-9.605-6.034-9.605" transform="translate(0 -210.454)"/>
  </g>
</svg>
