<svg id="Layer_1" xmlns="http://www.w3.org/2000/svg" viewBox="0 0 512.002 512.002"><circle cx="256.001" cy="256" r="256" fill="#4e598f"/><path d="M511.596 241.7L391.019 121.085c-1.998.605-6.982-1.714-9.173-1.274-51.717 8.62-101.71 0-151.704 13.791-24.135 6.896-25.859 36.202-34.478 55.165-12.067 34.478-10.343 72.404-25.859 105.158-10.343 22.411-34.478 36.202-43.098 62.061-2.875 10.785-2.705 24.379-5.956 34.69l120.98 120.922c4.725.26 9.48.403 14.269.403 141.384 0 256-114.616 256-256 .001-4.8-.142-9.567-.404-14.301z" fill="#364270"/><g fill="#fff"><path d="M363.043 109.466H148.958c-21.809 0-39.49 17.68-39.49 39.49v214.085c0 21.811 17.68 39.49 39.49 39.49h105.584l.183-104.722h-27.21a6.418 6.418 0 0 1-6.418-6.396l-.133-33.759a6.422 6.422 0 0 1 6.42-6.444h27.162v-32.618c0-37.852 23.118-58.463 56.884-58.463h27.71a6.421 6.421 0 0 1 6.42 6.42v28.463a6.419 6.419 0 0 1-6.416 6.42l-17.006.01c-18.363 0-21.921 8.725-21.921 21.533v28.239h40.351c3.848 0 6.83 3.358 6.375 7.173l-4.001 33.759a6.418 6.418 0 0 1-6.375 5.665h-36.168l-.183 104.726h62.826c21.809 0 39.49-17.682 39.49-39.491v-214.09c.001-21.809-17.68-39.49-39.489-39.49z"/><path d="M254.542 402.53l.183-104.722h-.448V402.53z"/></g><path d="M363.043 109.466H254.277v141.741h.269V218.59c0-37.852 23.118-58.463 56.884-58.463h27.71a6.421 6.421 0 0 1 6.42 6.42v28.463a6.419 6.419 0 0 1-6.416 6.42l-17.006.01c-18.363 0-21.921 8.725-21.921 21.533v28.238h40.351c3.848 0 6.83 3.358 6.375 7.173l-4.001 33.759a6.418 6.418 0 0 1-6.375 5.665h-36.168l-.183 104.726h62.826c21.809 0 39.49-17.682 39.49-39.491V148.956c.001-21.809-17.68-39.49-39.489-39.49z" fill="#d1d1d1"/></svg>