<?xml version="1.0" encoding="UTF-8" standalone="no"?>
<!-- Created with Inkscape (http://www.inkscape.org/) -->

<svg
   width="55.000801mm"
   height="102.44066mm"
   viewBox="0 0 55.000801 102.44066"
   version="1.1"
   id="svg6685"
   inkscape:version="1.2 (dc2aeda, 2022-05-15)"
   sodipodi:docname="kleggbert2.svg"
   xml:space="preserve"
   inkscape:export-filename="kleggbert2_plain.svg"
   inkscape:export-xdpi="96"
   inkscape:export-ydpi="96"
   xmlns:inkscape="http://www.inkscape.org/namespaces/inkscape"
   xmlns:sodipodi="http://sodipodi.sourceforge.net/DTD/sodipodi-0.dtd"
   xmlns:xlink="http://www.w3.org/1999/xlink"
   xmlns="http://www.w3.org/2000/svg"
   xmlns:svg="http://www.w3.org/2000/svg"><sodipodi:namedview
     id="namedview6687"
     pagecolor="#505050"
     bordercolor="#eeeeee"
     borderopacity="1"
     inkscape:showpageshadow="0"
     inkscape:pageopacity="0"
     inkscape:pagecheckerboard="0"
     inkscape:deskcolor="#505050"
     inkscape:document-units="mm"
     showgrid="false"
     inkscape:zoom="0.55256478"
     inkscape:cx="-350.18519"
     inkscape:cy="224.40808"
     inkscape:window-width="1680"
     inkscape:window-height="938"
     inkscape:window-x="0"
     inkscape:window-y="25"
     inkscape:window-maximized="1"
     inkscape:current-layer="layer1" /><defs
     id="defs6682"><linearGradient
       inkscape:collect="always"
       id="linearGradient1338"><stop
         style="stop-color:#ffffff;stop-opacity:1;"
         offset="0"
         id="stop1334" /><stop
         style="stop-color:#e5e5e5;stop-opacity:1;"
         offset="1"
         id="stop1336" /></linearGradient><linearGradient
       inkscape:collect="always"
       id="linearGradient1330"><stop
         style="stop-color:#ffffff;stop-opacity:1;"
         offset="0"
         id="stop1326" /><stop
         style="stop-color:#e7e7e7;stop-opacity:1;"
         offset="1"
         id="stop1328" /></linearGradient><linearGradient
       inkscape:collect="always"
       id="linearGradient1262"><stop
         style="stop-color:#ffffff;stop-opacity:1;"
         offset="0"
         id="stop1258" /><stop
         style="stop-color:#e5e5e5;stop-opacity:1;"
         offset="1"
         id="stop1260" /></linearGradient><linearGradient
       inkscape:collect="always"
       id="linearGradient12590"><stop
         style="stop-color:#754131;stop-opacity:1;"
         offset="0"
         id="stop12586" /><stop
         style="stop-color:#613629;stop-opacity:1;"
         offset="1"
         id="stop12588" /></linearGradient><linearGradient
       inkscape:collect="always"
       id="linearGradient12580"><stop
         style="stop-color:#774232;stop-opacity:1;"
         offset="0"
         id="stop12576" /><stop
         style="stop-color:#613629;stop-opacity:1;"
         offset="1"
         id="stop12578" /></linearGradient><linearGradient
       inkscape:collect="always"
       id="linearGradient12546"><stop
         style="stop-color:#8fb64b;stop-opacity:1;"
         offset="0"
         id="stop12542" /><stop
         style="stop-color:#779a3c;stop-opacity:1;"
         offset="1"
         id="stop12544" /></linearGradient><linearGradient
       id="linearGradient15607"
       inkscape:swatch="solid"><stop
         style="stop-color:#ffffff;stop-opacity:1;"
         offset="0"
         id="stop15605" /></linearGradient><radialGradient
       inkscape:collect="always"
       xlink:href="#linearGradient12546"
       id="radialGradient12548"
       cx="113.89414"
       cy="177.38708"
       fx="113.89414"
       fy="177.38708"
       r="30.882856"
       gradientTransform="matrix(-0.55694628,0,0,0.71830381,316.56766,-51.01588)"
       gradientUnits="userSpaceOnUse" /><radialGradient
       inkscape:collect="always"
       xlink:href="#linearGradient12580"
       id="radialGradient12582"
       cx="103.8845"
       cy="229.02049"
       fx="103.8845"
       fy="229.02049"
       r="34.495392"
       gradientTransform="matrix(-0.55694628,0,0,0.4707983,316.56766,-2.6634782)"
       gradientUnits="userSpaceOnUse" /><radialGradient
       inkscape:collect="always"
       xlink:href="#linearGradient12590"
       id="radialGradient12584"
       cx="118.93005"
       cy="132.69196"
       fx="118.93005"
       fy="132.69196"
       r="33.040745"
       gradientTransform="matrix(-0.55694628,0,0,0.46026008,316.56766,-9.5636511)"
       gradientUnits="userSpaceOnUse" /><radialGradient
       inkscape:collect="always"
       xlink:href="#linearGradient1262"
       id="radialGradient1264"
       cx="118.43874"
       cy="137.6301"
       fx="118.43874"
       fy="137.6301"
       r="19.853472"
       gradientTransform="matrix(-0.55694628,0,0,0.22799336,316.56766,22.880691)"
       gradientUnits="userSpaceOnUse" /><radialGradient
       inkscape:collect="always"
       xlink:href="#linearGradient1330"
       id="radialGradient1332"
       cx="138.50331"
       cy="112.73344"
       fx="138.50331"
       fy="112.73344"
       r="10"
       gradientUnits="userSpaceOnUse"
       gradientTransform="matrix(0.55694628,0,0,0.55694628,-316.56766,-22.393132)" /><radialGradient
       inkscape:collect="always"
       xlink:href="#linearGradient1338"
       id="radialGradient1340"
       cx="107.55275"
       cy="109.29449"
       fx="107.55275"
       fy="109.29449"
       r="10"
       gradientUnits="userSpaceOnUse"
       gradientTransform="matrix(0.55694628,0,0,0.55694628,-316.56766,-22.393132)" /></defs><g
     inkscape:label="Layer 1"
     inkscape:groupmode="layer"
     id="layer1"
     transform="translate(-226.48687,-32.908562)"><path
       style="fill:none;fill-opacity:1;stroke:#000000;stroke-width:1.67084;stroke-linecap:round;stroke-linejoin:round;stroke-dasharray:none;stroke-opacity:1;paint-order:stroke fill markers"
       d="m 267.31394,118.50783 c 0.35596,1.0804 0.1888,2.25204 0.18554,3.37159 -0.0962,2.78497 -0.45425,5.56474 -0.35484,8.35386 0.006,0.92865 0.60632,1.70873 1.14825,2.40942 0.66129,0.43602 1.50659,0.51584 2.26829,0.71836 3.31539,0.68485 6.72179,0.66141 10.09107,0.6677"
       id="path21959-9" /><path
       style="fill:none;fill-opacity:1;stroke:#000000;stroke-width:1.67084;stroke-linecap:round;stroke-linejoin:round;stroke-dasharray:none;stroke-opacity:1;paint-order:stroke fill markers"
       d="m 248.17854,118.99287 c -0.35595,1.08039 -0.18879,2.25204 -0.18554,3.37159 0.0962,2.78497 0.45426,5.56474 0.35485,8.35386 -0.006,0.92865 -0.60632,1.70873 -1.14826,2.40941 -0.66128,0.43603 -1.50659,0.51585 -2.26828,0.71836 -3.3154,0.68486 -6.72179,0.66142 -10.09107,0.66771"
       id="path21959" /><path
       style="fill:none;fill-opacity:1;stroke:#000000;stroke-width:1.67084;stroke-linecap:round;stroke-linejoin:round;stroke-dasharray:none;stroke-opacity:1;paint-order:stroke fill markers"
       d="m 238.47796,73.642647 c -1.6274,-0.297644 -3.27258,0.120294 -4.90537,0.161548 -1.0752,0.02796 -2.37963,0.05842 -3.12745,-0.859408 -1.02522,-1.293825 -1.54598,-2.898242 -2.0569,-4.445617 -0.50566,-1.721064 -0.98353,-3.48449 -1.06595,-5.284652"
       id="path21961" /><path
       style="fill:none;fill-opacity:1;stroke:#000000;stroke-width:1.67084;stroke-linecap:round;stroke-linejoin:round;stroke-dasharray:none;stroke-opacity:1;paint-order:stroke fill markers"
       d="m 267.57971,71.460013 c 0.71329,-0.163508 1.48515,0.237783 2.16058,-0.161275 1.95005,-0.95572 3.73794,-2.22148 5.41688,-3.592404 0.73679,-0.668937 1.67823,-1.343109 1.7799,-2.415375 0.18433,-1.379996 0.0602,-2.777542 0.13096,-4.165012 0.0179,-1.48547 -0.0254,-3.041233 -0.68856,-4.399419 -0.0897,-0.06859 -0.0562,0.172075 -0.0692,0.182612"
       id="path21963" /><path
       style="fill:url(#radialGradient12582);fill-opacity:1;stroke:#000000;stroke-width:2.22779;stroke-linecap:round;stroke-linejoin:round;stroke-dasharray:none;stroke-opacity:1;paint-order:stroke fill markers"
       d="m 242.84323,118.50784 c 2.8803,0.74199 5.727,2.0753 8.76889,1.70555 4.46284,-0.0879 8.92596,0.17219 13.38832,0.026 1.89765,-0.73559 3.94762,-0.95929 5.88959,-1.56414 1.77611,-0.63367 3.93833,-0.44407 5.3818,-1.80218 1.42678,-1.49648 -0.11151,-3.26147 -1.19398,-4.38368 -0.72074,-1.3956 -1.70081,-2.69164 -2.24258,-4.16465 -0.54606,-1.42264 -1.40491,-2.69346 -1.70296,-4.19405 -0.66263,-1.47053 -0.69014,-3.09589 -1.04418,-4.656545 -0.54431,-1.580369 -0.0834,-3.382196 -0.89594,-4.854333 -1.09675,-0.932595 -1.75275,-2.342527 -3.21902,-2.972433 -1.40591,-1.274683 -3.49838,-0.822354 -5.14557,-1.524284 -2.89443,-0.06775 -5.85663,-0.309428 -8.67063,0.522104 -2.65479,0.660159 -5.36456,1.07529 -8.07337,1.418202 -1.64513,0.796556 -2.98436,2.556946 -3.22855,4.387623 0.24623,4.846796 -0.35114,9.690556 -0.22567,14.539996 0.23971,1.91969 0.69062,3.84419 0.84855,5.73215 0.13002,0.78211 0.75334,1.34516 1.3653,1.78466 z"
       id="path18106" /><path
       style="fill:url(#radialGradient12548);fill-opacity:1;stroke:#000000;stroke-width:2.22779;stroke-linecap:round;stroke-linejoin:round;stroke-dasharray:none;stroke-opacity:1;paint-order:stroke fill markers"
       d="m 265.6396,56.90914 c -0.38249,3.713707 1.13535,7.247893 1.45216,10.904134 0.90549,2.556027 1.33969,5.250282 1.25364,7.958472 0.25238,3.297334 0.83783,6.601184 0.37469,9.910436 -0.18096,2.338272 0.39149,4.621151 0.35994,6.946357 0.74153,2.409244 -1.22364,3.666388 -3.32115,3.822601 -3.0619,0.950952 -6.30789,0.801601 -9.47515,0.979919 -2.60292,0.01888 -5.213,0.15355 -7.78901,-0.228343 -2.33111,-0.219498 -4.86272,0.225318 -6.98283,-0.65528 -1.16352,-2.090972 0.0758,-4.804659 -0.32009,-7.159573 -0.087,-2.569922 -0.67914,-5.092449 -0.99549,-7.642973 -0.72882,-4.287997 -1.68545,-8.559725 -2.06439,-12.901605 -0.24983,-2.49561 -0.90054,-4.966112 -1.08338,-7.486756 0.71068,-1.009076 2.95637,-1.050674 3.21021,-1.254728 1.85369,-1.169108 4.05973,-1.52146 6.07186,-2.357849 1.99653,-0.697976 3.8037,-1.993801 5.99515,-2.014959 2.83134,-0.162773 5.66418,-0.238696 8.49505,-0.38319 1.85079,-0.169323 3.08248,1.307966 4.81879,1.563337 z"
       id="path18118" /><path
       style="fill:url(#radialGradient12584);fill-opacity:1;stroke:#000000;stroke-width:2.22779;stroke-linecap:round;stroke-linejoin:round;stroke-dasharray:none;stroke-opacity:1;paint-order:stroke fill markers"
       d="m 237.02288,64.669607 c 4.16376,-0.03943 8.49055,2.330241 12.38804,-0.318423 4.90221,-1.968621 10.70592,-1.854107 14.92945,-5.339015 2.46142,-2.241386 2.98824,-5.685285 2.56129,-8.837467 -0.74588,-3.266451 0.75863,-6.358344 0.71529,-9.583637 0.005,-3.777549 -4.18335,-3.670359 -6.64603,-2.284978 -4.18551,0.510408 -8.45895,-0.09203 -12.68032,0.140663 -3.29385,0.06951 -6.56387,0.936365 -9.67669,1.883358 -2.20201,0.980164 -6.5545,1.325137 -5.38445,4.825628 1.51416,5.171218 0.96689,10.73686 2.62274,15.901618 0.25831,1.232945 0.31037,2.608218 1.17068,3.612253 z"
       id="path18116" /><circle
       style="fill:url(#radialGradient1340);fill-opacity:1;stroke:#000000;stroke-width:2.22779;stroke-linecap:round;stroke-linejoin:round;stroke-dasharray:none;stroke-opacity:1;paint-order:stroke fill markers"
       id="path20417"
       cx="-256.66656"
       cy="38.478027"
       r="4.4555702"
       transform="scale(-1,1)" /><circle
       style="fill:#040404;fill-opacity:1;stroke:#000000;stroke-width:2.06818;stroke-linecap:round;stroke-linejoin:round;stroke-dasharray:none;stroke-opacity:1;paint-order:stroke fill markers"
       id="path20807"
       cx="-255.94212"
       cy="39.936218"
       r="2.068176"
       transform="scale(-1,1)" /><path
       style="fill:url(#radialGradient1264);fill-opacity:1;stroke:#000000;stroke-width:1.92105;stroke-linecap:round;stroke-linejoin:round;stroke-dasharray:none;stroke-opacity:1;paint-order:stroke fill markers"
       d="m 260.70057,50.69348 c -12.42694,14.949563 -20.19378,1.773679 -20.19378,1.773679 l 7.07645,-0.253382 z"
       id="path21128" /><circle
       style="fill:url(#radialGradient1332);fill-opacity:1;stroke:#000000;stroke-width:2.22779;stroke-linecap:round;stroke-linejoin:round;stroke-dasharray:none;stroke-opacity:1;paint-order:stroke fill markers"
       id="circle1322"
       cx="-239.42876"
       cy="40.393337"
       r="4.4555702"
       transform="scale(-1,1)" /><circle
       style="fill:#040404;fill-opacity:1;stroke:#000000;stroke-width:2.06818;stroke-linecap:round;stroke-linejoin:round;stroke-dasharray:none;stroke-opacity:1;paint-order:stroke fill markers"
       id="circle1324"
       cx="-238.70433"
       cy="41.851528"
       r="2.068176"
       transform="scale(-1,1)" /></g></svg>
