<svg viewBox="0 0 850 550"
  xmlns="http://www.w3.org/2000/svg">
  <rect width="850" height="550" rx="20" fill="#00b9e7"/>
  <text style="font: bold 36px monospace" y="50" x="410" textLength="420">13371337133713370</text>
  <svg viewBox="0 0 377.709 94.617" width="770" x="40" y="140">
    <g fill="#fff">
      <path d="M482.484 216.75H696.879V694.645H482.484V216.75M216.762 216.75H431.16V908.914H216.762V216.75M951.113 312.707c0 63.008-50.957 114.57-114.328 114.57-62.269 0-113.234-51.562-113.234-114.57 0-63.008 50.965-113.418 113.234-113.418 63.371 0 114.328 50.41 114.328 113.418M1226.13 694.645V417.297c0-24.582-10.13-36.875-30.38-36.875-20.54 0-30.81 12.293-30.81 36.875V694.645H951.148V470.676c0-78.887 18.532-140.539 55.592-184.922 47.69-56.887 110.63-82.695 188.79-82.695 78.17 0 141.1 25.808 188.8 82.695 37.06 44.383 55.58 106.035 55.58 184.922v223.969h-213.78M1880.57 216.758h-16.99l-.27.441-100.02 168.125V216.758h-18.87v205.051h16.73l.26-.45 100.3-168.703v169.153h18.86V216.758M2050.47 216.758h-18.05l-.22.625-66.95 204.426h19.81l.22-.625 56.16-174.649 56.68 175.274h19.81l-.41-1.211-67.05-203.84M1630.24 214.465c-40.58 0-68.94 29.414-68.94 71.531v135.813h18.85V285.422c0-31.524 20.13-52.695 50.09-52.695 29.98 0 50.11 21.171 50.11 52.695v136.387h18.83V285.996c0-42.117-28.34-71.531-68.94-71.531M1943.62 216.758h-18.85v205.051h18.85V216.758M2299.67 299.641h39.43c32.27 0 51.53 17.636 51.53 47.207v8.066c0 31.191-18.3 48.367-51.53 48.367h-39.43zm110.2-82.852h-22.79l-.29.359-49.01 64.211h-38.11v-64.57h-18.86v205.059h59.73c42.53 0 68.95-25.879 68.95-67.512v-7.488c0-33.731-19.5-56.934-52.28-62.344l52.66-67.715M2620.96 216.789h-18.85v205.059h18.85V216.789M2715.49 216.789h-18.84v186.492h-56.21v18.567h130.68v-18.567h-55.63V216.789M2905.95 216.789h-114.54v205.059h110.18v-18.567h-91.34v-74.246h68.6v-17.129h-68.6V235.07h95.7v-18.281M2253.19 216.758h-114.55v205.051h111.93v-18.555h-93.08v-74.258h68.61v-17.129h-68.61v-76.816h95.7v-18.293M2993.09 216.789h-18.85v186.492h-53.6v18.567h128.94v-18.567h-56.49V216.789M2503.89 327.492c-26.9 6.746-52.32 13.125-52.32 41.836 0 23.613 16.11 37.703 45.31 37.703 22.29 0 46-12.754 47.11-48.105h18.91c-1.14 48.859-34.32 66.367-65.43 66.367-40.57 0-64.46-21.445-64.46-55.965 0-42.441 33.87-51.008 63.76-58.574 26.05-6.563 50.66-12.785 50.66-39.719 0-29.285-25.43-39.715-49.24-39.715-31.18 0-49.81 20.332-49.81 54.414v.926h-18.55v-.926c0-43.984 26.84-72.402 68.36-72.402 41.37 0 68.08 22.762 68.08 57.988 0 40.528-31.7 48.477-62.38 56.172M1891.24 489.602h-17.02l-.26.449-100.03 168.14V489.602h-18.85V694.66h16.72l.28-.449 100.29-168.691v169.14h18.87V489.602M2611.22 489.602h-17.02l-.26.449-100.03 168.14V489.602h-18.86V694.66h16.73l.28-.449 100.29-168.691v169.14h18.87V489.602M1672.39 489.602H1564.18V694.66h18.85V507.883h89.36v-18.281M1713.45 489.602h-18.84V694.66h18.84V489.602M2118.33 706.707c-6.23 0-11.49 5.262-11.49 11.473 0 6.226 5.26 11.488 11.49 11.488 6.21 0 11.46-5.262 11.46-11.488 0-6.211-5.25-11.473-11.46-11.473zm52.51 0c-6.22 0-11.48 5.262-11.48 11.473 0 6.226 5.26 11.488 11.48 11.488 6.23 0 11.49-5.262 11.49-11.488 0-6.211-5.26-11.473-11.49-11.473zm-26.26-27.144c-29.96 0-50.08-21.184-50.08-52.692v-68.598c0-31.523 20.12-52.695 50.08-52.695 29.98 0 50.09 21.172 50.09 52.695v68.313c0 31.676-20.11 52.977-50.09 52.977zm0-192.247c-40.6 0-68.95 29.414-68.95 71.524v67.168c0 42.289 28.35 71.816 68.95 71.816 40.59 0 68.94-29.527 68.94-71.816V558.84c0-42.11-28.35-71.524-68.94-71.524M2269.72 566.691h39.45c32.26 0 51.53 18.938 51.53 50.664v7.208c0 32.753-18.79 51.542-51.53 51.542h-39.45zm0-77.089h-18.84V694.66h58.85c42.42 0 69.82-27.512 69.82-70.097v-7.493c0-42.351-26.75-68.66-69.82-68.66h-40.01v-58.808M2431.25 489.602h-18.86V694.66h18.86V489.602M2717.08 486.73c-40.43 0-68.68 29.415-68.68 71.543v68.313c0 42.113 28.25 71.535 68.68 71.535 39.7 0 68.05-28.699 68.94-69.793v-.937h-18.84l-.01.906c-.54 30.832-20.68 51.555-50.09 51.555-31.2 0-49.82-21.532-49.82-57.598V557.98c0-31.523 20.02-52.687 49.82-52.687 29.96 0 50.09 21.164 50.09 52.687v10.625h-50.74v17.098h69.59v-27.43c0-42.128-28.36-71.543-68.94-71.543M2883.8 486.164c-41.53 0-68.37 28.399-68.37 72.383v.937h18.56v-.937c0-34.063 18.63-54.406 49.81-54.406 23.8 0 49.23 10.422 49.23 39.718 0 26.934-24.61 33.145-50.64 39.715-29.9 7.571-63.79 16.121-63.79 58.567 0 34.511 25.2 55.98 65.78 55.98 31.66 0 65.49-18.113 65.49-68.949v-.914h-18.85v.914c0 37.363-24.38 50.68-47.22 50.68-29.21 0-46.63-14.102-46.63-37.711 0-28.711 25.42-35.082 52.33-41.828 30.68-7.696 62.38-15.645 62.38-56.172 0-35.77-26.08-57.977-68.08-57.977M2071.9 489.602h-22.43l-.29.351-71.28 95.067h-21.04v-95.418h-18.85V694.66h18.85v-91.945h21.32l60.86 91.945h21.57l-66.68-100.949 77.97-104.109" transform="matrix(.13333 0 0 -.13333 -28.902 121.189)"/>
    </g>
  </svg>
</svg>