<svg xmlns="http://www.w3.org/2000/svg" id="svg3336" width="766.311" height="601.465" viewBox="0 0 766.31143 601.46479"><defs id="defs3340"><clipPath id="clipPath3350"><path d="M0 595.28h841.89V0H0v595.28z" id="path3352"/></clipPath></defs><g id="g3344" transform="matrix(1.25 0 0 -1.25 -4.01 743.24)"><g id="g3346" transform="translate(-112.982 48.594)"><g id="g3348" clip-path="url(#clipPath3350)"><g id="g3354" transform="translate(602.299 283.419)"><path d="M0 0c8.242-.941 14.576 1.167 19.373 3.019 1.596.614 2.74 1.082 4.098 1.735a41.042 41.042 0 0 1 4.015 2.212c14.204 8.885 28.912 24.149 26.743 42.439C36.992 42.988 17.608 37.136 0 31.036V0zm3.711 120.979C-1.08 120.625 0 116.092 0 112.745V84.242c-.082-4.768-.185-9.587-.131-14.046.045-3.621.278-6.766.262-9.356 10.355.741 15.807.655 27.966 2.899 6.908 1.276 20.39 4.49 23.851 8.325 2.758 3.055.183 10.392-.692 12.812-1.502 4.16-6.559 12.293-8.914 15.2-5.231 6.463-11.293 11.518-17.828 15.202-4.912 2.768-13.627 6.232-20.803 5.701m118.117-67.773c-2.871-39.367-27.355-62.914-58.43-80.709C42.647-39.387 0-41.804 0-41.804l.256-28.135c0-43.474-35.395-69.409-77.088-69.409h-233.463c-45.775 0-72.8 23.281-72.8 60.44v227.39c0 7.828 6.314 13.034 14.341 13.034H15.6c59.695 0 112.66-50.937 106.228-108.31" id="path3356" fill="#2e318e" fill-rule="evenodd"/></g><g id="g3358" transform="translate(325.944 278.352)"><path d="M0 0c-8.768-10.896-4.299-26.417 4.936-35.477 9.981-9.792 26.193-9.88 38.412-4.554 12.546 5.468 22.393 16.239 27.779 28.711 5.114 11.841 4.648 24.047 4.648 36.656-12.999-.712-26.248-2.056-38.935-5.031C23.682 17.219 8.688 10.797 0 0c-11.657-14.486 5.545 6.891 0 0m284.523 2.533c19.902 1.974 38.85 16.259 46.35 34.804 1.963 4.855 3.039 10.021 3.421 15.235 6.738 0 13.476-.007 20.215-.016 13.058-.017 26.117-.042 39.176-.042-1.944-20.984-15.331-41.547-31.066-54.967-12.8-10.917-27.651-19.219-43.787-24.123-40.351-12.265-88.619-4.135-116.569 29.244a86.318 86.318 0 0 0-5.666 7.561c-1.113 1.669-2.893 6.302-4.935 6.871 0-21.354-1.174-43.08 1.92-64.276 2.752-18.861 9.675-36.561 18.138-53.535h-89.144c2.185 8.693 6.183 16.719 9.538 24.985.612 1.507.869 4.046 2.574 4.331 1.693.283 3.407.41 5.12.468 3.91.134 7.828-.014 11.739-.014-4.451 9.129-6.413 20.772-8.035 30.723-1.484 9.1-1.757 18.42-2.047 27.619-.398 12.661.172 25.289.798 37.935h-5.682c-2.35 0-1.386-2.59-1.431-4.583-.106-4.684-.336-9.364-.508-14.046-.32-8.685-.064-17.254.569-25.916 1.191-16.307 5.162-32.384 11.881-47.298-27.954-1.559-55.971-.208-83.947-.633.557 6.418 5.944 11.197 5.944 17.735-4.085-2.914-7.711-6.282-11.723-9.247-4.531-3.349-9.799-5.706-14.98-7.856-9.657-4.006-19.719-5.251-30.116-4.221-20.898 2.068-42.578 10.852-55.276 28.36-6.208 8.558-8.827 18.993-9.501 29.429-.773 11.973 5.663 23.876 13.068 32.915 14.242 17.386 35.11 27.397 56.281 33.646 19.002 5.609 38.375 8.452 58.19 8.452h66.86c0 12.939-.252 25.877-.217 38.816.033 12.136.002 23.396 6.387 34.147 10.131 17.059 27.644 26.377 47.268 27.614 19.66 1.239 39.949.696 56.428-11.296 7.32-5.327 14.707-11.841 18.15-20.409 3.313-8.241 3.036-17.474.429-25.865-3.836-12.35-12.337-23.029-23.789-29.082-14.849-7.848-33.016-12.871-49.685-8.858.82 4.843 5.026 8.815 7.233 13.07 2.667 5.142 4.894 10.518 6.78 15.991 3.384 9.823 6.471 20.953 5.203 31.444-1.073 8.871-8.252 16.02-17.502 10.986-9.353-5.092-7.795-18.047-7.201-26.853.869-12.906.286-25.992.286-38.924v-9.643c0-2.442.835-1.609 2.896-1.645.989-.016 1.978-.034 2.968-.053 1.442-.029 2.884-.074 4.327-.075 25.277-.017 50.538-.492 75.751 1.754 16.34 1.456 32.842 3.88 48.395 9.267a115.04 115.04 0 0 1 4.449 1.644c2.657 1.046 2.349 2.078 2.349 4.853a37.891 37.891 0 0 1-1.647 11.107c-2.447 8-7.469 14.986-13.092 21.069-9.581 10.365-22.579 18.753-37.017 19.065a70.74 70.74 0 0 1-5.771-.126 56.603 56.603 0 0 1-3.544 5.783c-2.347 3.371-5.032 6.499-7.924 9.412-5.026 5.061-10.65 9.918-16.863 13.468 20.274 6.73 41.488 5.891 62.007 2.725 18.963-2.925 34.628-11.799 49.709-23.489 6.551-5.077 11.835-11.685 16.833-18.264 7.12-9.37 13.211-19.831 16.363-31.237a59.867 59.867 0 0 0 1.713-8.491c.279-2.227-1.016-1.861-2.887-2.53a2087.85 2087.85 0 0 0-4.576-1.631 2251.825 2251.825 0 0 0-19.903-6.949c-12.844-4.421-25.72-8.742-38.61-13.029-32.599-10.843-65.296-21.372-98.039-31.769 4.681-7.084 12.899-11.079 20.425-14.414 8.618-3.82 17.72-6.279 27.119-7.123" id="path3360" fill="#38a7e4" fill-rule="evenodd"/></g><g id="g3362" transform="translate(322.23 398.164)"><path d="M0 0c-15.703-14.415-26.075-33.829-30.86-54.493-1.789-7.725-2.504-15.145-1.187-23.004.814-4.861 2.291-10.052-.635-14.492-2.958-4.489-7.049-8.262-10.283-12.568-11.835-15.754-13.549-37.464-3.075-54.6 9.772-15.986 26.645-27.036 44.602-31.668 10.063-2.595 20.589-3.208 30.898-1.946 5.692.696 11.311 1.955 16.772 3.703 1.439.461 2.868.955 4.284 1.481a206.548 206.548 0 0 1 10.466-3.706c22.462-7.275 46.181-10.496 69.764-8.96-2.171-8.236-6.927-15.414-9.658-23.436H221.15c1.532 0-2.369 5.743-2.667 6.288-3.077 5.632-6.127 11.279-8.819 17.107-5.178 11.213-8.342 22.284-8.342 34.666 0 5.226 3.698 11.563 5.433 16.493.998 2.837 2.097 5.62 3.266 8.391.782 1.857 2.409 8.59 4.373 8.142 2.243-.513 3.658-2.476 5.5-3.679 2.261-1.477 4.593-2.846 6.952-4.16 5.368-2.99 10.884-5.708 16.285-8.639 9.562-5.188 19.189-11.213 25.824-20.007 6.525-8.649 6.236-17.222 3.945-27.55-2.39-10.775-7.218-20.728-14.794-28.803-7.078-7.545-15.547-13.302-25.126-17.167-12.295-4.962-24.32-5.785-37.425-5.785H-13.542c-11.691 0-23.578-.678-35.129 1.499-16.628 3.135-32.19 11.975-40.934 26.819-10.846 18.412-7.71 41.203-7.71 61.622V26.797c0 4.815-.913 10.16 3.678 13.209 4.481 2.977 10.748 1.966 15.817 1.966H67.495c12.455 0 24.431.531 36.337-3.728 9.965-3.566 19.125-9.376 26.042-17.453 7.612-8.888 9.046-18.42 9.046-29.758.03-21.248-19.979-36.872-38.68-42.466-10.326-3.089-25.41-6.145-35.608-1.239 4.068 8.741 9.448 17.008 11.322 26.58 2.388 12.194.626 25.759-8.359 35.036C48.409 28.752 17.031 15.633 0 0c-16.836-15.455 7.996 7.34 0 0" id="path3364" fill="#38a7e4" fill-rule="evenodd"/></g><g id="g3366" transform="translate(121.952 124.447)"><path d="M0 0h595.043c1.07 0 4.836-.218 6.241-2.836 10.911-20.329-16.761-46.067-37.142-52.571-5.429-1.733-12.579-4.22-20.357-4.135H57.203c-6.113-.353-10.94.509-15.37 1.638C7.191-49.078-17.477 0 0 0" id="path3368" fill="#2e318e" fill-rule="evenodd"/></g><g id="g3370" transform="translate(725.66 110.97)"><path d="M0 0c-18.084.415-39.485-.824-56.335.643-2.125 2.481-1.665 6.956.741 8.868 11.64.421 25.217-.081 35.659.634 5.448 0 17.689.134 17.747-.05C-2.084 9.758.136 6.667 0 0" id="path3372" fill="#38a7e4" fill-rule="evenodd"/></g><g id="g3374" transform="translate(696.066 81.845)"><path d="M0 0c-8.841.697-21.057-1.484-27.485 1.267-.665 3.21-.881 5.674.743 8.233 9.44 1.455 22.015.23 32.685.634h15.86C18.724 6.291 16.973 4.225 12.081 0H0z" id="path3376" fill="#38a7e4" fill-rule="evenodd"/></g><g id="g3378" transform="translate(141.891 106.637)"><path d="M0 0c9.933-.399 21.758.817 30.457-.632 1.188-3.15.865-7.035-.74-9.502h-1.488c-14.857-.421-31.616.872-45.237-.604-2.295 3.349-4.318 6.855-6.02 10.738H0z" id="path3380" fill="#38a7e4" fill-rule="evenodd"/></g><g id="g3382" transform="translate(117.531 110.267)"><path d="M0 0c-1.978 6.072-1.359 9.469-.438 11.127.342.616 11.169-.278 15.876-.278 11.14-.64 26.469.614 37.143-1.267 2.031-.709.166-7.743 0-8.235C36.473-.541.634-.079 0 0" id="path3384" fill="#38a7e4" fill-rule="evenodd"/></g><g id="g3386" transform="translate(725.313 107.637)"><path d="M0 0c-.514-3.381-2.431-8.326-5.329-12.614-.166.492-1.509.859-2.373.757-14.116 1.475-31.447.212-46.802.632-2.709 1.335-3.732 5.854-2.227 8.87 2.621 2.049 6.845 1.171 10.401 1.264 12.559.33 25.427-.247 37.143 0C-6.929-.694-1.031-1.443 0 0" id="path3388" fill="#38a7e4" fill-rule="evenodd"/></g><g id="g3390" transform="translate(173.071 90.2)"><path d="M0 0c1.675-2.212.508-6.503-.74-8.235h-26.002c-2.5-.401-7.055.349-8.571-.751-3.621 3.4-5.176 4.84-10.087 10.849 6.192 0 12.467.036 18.658.036 5.695 0 16.118-.319 17.128-.348C-8.604 1.521-1.076 2.247 0 0" id="path3392" fill="#38a7e4" fill-rule="evenodd"/></g><g id="g3394" transform="translate(164.192 77.121)"><path d="M0 0c8.448.134 8.941-4.569 7.427-10.134-1.775-.385-2.155-.127-8.179-.356C-4.813-9.301-12.075-7.109-21.544 0-14.361 0-8.448-.134 0 0" id="path3396" fill="#38a7e4" fill-rule="evenodd"/></g><g id="g3398" transform="translate(684.96 68.682)"><path d="M0 0c-3.941 1.551-11.623-2.068-16.052-.138-.638 3.171-.638 4.427 0 7.601 8.095 4.076 22.944.724 33.593 1.299C13.201 4.837 1.59.261 0 0" id="path3400" fill="#38a7e4" fill-rule="evenodd"/></g><g id="g3402" transform="translate(359.546 120.481)"><path d="M0 0c5.848-.477 22.467-.187 13.633-9.439-5.34-5.593-6.601-15.735-6.066-23.135.234-3.245.997-6.984 3.575-9.229 6.423 1.701 12.771 3.738 18.913 6.283 4.925 2.041 9.739 4.412 14.212 7.325 4.273 2.782 6.945 8.333 11.838 3.805 4.843-4.481 6.674-15.688 1.822-20.862-4.554-4.855-12.719-5.472-18.924-5.832-17.89-1.038-36.054 2.793-53.863.412-.464 5.49 2.041 11.132 2.972 16.47.935 5.356 1.527 11.902 1.115 17.355-.4 5.278-4.453 9.622-4.331 15.322C-15.013 2.746-3.61.293 0 0c7.003-.57-2.284.186 0 0" id="path3404" fill="#38a7e4" fill-rule="evenodd"/></g><g id="g3406" transform="translate(473.95 119.849)"><path d="M0 0c8.622-.281 17.448.843 25.998-.632-3.421-11.739-3.13-24.283-6.65-35.997-3.345-11.132-18.52-14.024-28.37-14.4-17.702-.676-41.537 4.838-44.466 25.693 7.601 1.568 15.491.406 23.154.072 4.779-.208 5.583.731 7.192-3.865.855-2.437 1.726-4.941 3.187-7.096 6.9-10.174 18.542-1.1 21.015 7.411 1.202 4.138 1.282 8.811-.44 12.821-2.806 6.537-7.609 6.05-13.967 5.551-13.881-1.089-26.697-5.667-39.398-11.094-2.261 4.732-1.487 10.447-1.487 15.518 0 3.31-1.439 5.335 2.451 5.635 3.461.268 6.953.413 10.422.543C-27.61.673-13.762 0 0 0c8.585-.28-5.202 0 0 0" id="path3408" fill="#38a7e4" fill-rule="evenodd"/></g><g id="g3410" transform="translate(525.95 87.547)"><path d="M0 0c1.702-8.279 13.536-6.614 18.915-3.925C22.325-2.22 25.194.27 28.23 2.533c-.35 4.121 1.332 8.18.677 12.286C27.351 24.562-2.766 13.418 0 0c1.091-5.306-2.11 10.238 0 0m-24.515 4.432c.721 10.906 8.98 17.304 17.338 22.637 10.77 6.871 22.321 6.592 34.789 6.203 6.267-.195 12.575-1.053 18.828-1.074 2.276-.007 7.708 1.165 7.214-2.433-.381-2.774-2.631-4.848-3.137-7.597-2.446-13.272 1.253-26.687 2.227-39.905H32.686c-5.01.462-4.456.503-4.456 5.7-11.321-5.32-23.918-9.428-36.358-5.529-4.466 1.4-9.494 3.466-12.988 6.675-4.581 4.208-3.772 9.678-3.399 15.323.489 7.389-.167-2.528 0 0" id="path3412" fill="#38a7e4" fill-rule="evenodd"/></g><g id="g3414" transform="translate(589.581 107.628)"><path d="M0 0c-.873 5.075-3.887 7.476-6.43 11.589 6.303 1.1 12.872 3.055 19.313 1.898 3.096-.554 5.284-2.321 7.487-4.419 2.503-2.383 5.364.233 7.936 1.695 9.896 5.629 26.804 2.151 34.496-5.951 7.402-7.796 11.409-23.445 6.857-33.496-4.779-10.555-19.962-9.465-29.29-7.866.779 7.042 8.454 10.194 8.118 18.29-.264 6.376-4.685 11.372-10.678 13.204-6.793 2.077-15.879 1.179-19.104-6.13-3.562-8.077 2.321-17.743 4.578-25.364-4.732.223-9.473-.002-14.207-.08-2.774-.045-5.555-.056-8.326.12-3.959.252-5.17-.729-4.524 3.791C-2.318-22.518 1.774-10.304 0 0c-.4 2.328.556-3.227 0 0" id="path3416" fill="#38a7e4" fill-rule="evenodd"/></g><g id="g3418" transform="translate(295.657 102.748)"><path d="M0 0c-4.323-2.513-11.621-11.869-8.333-17.094 4.294-6.822 12.377-4.943 18.572-2.056 8.658 4.035 9.647 9.196 9.709 18.21C19.997 6.295 4.545 2.637 0 0c-3.851-2.238 4.25 2.466 0 0m-33.428-10.77c-.294 10.442 12.499 21.12 21.103 24.947 12.345 5.49 28.083 4.113 41.298 3.556 3.965-.167 7.902-.81 11.886-.632 6.667.295 6.242-4.989 3.868-10.128-2.586-5.601-4.666-10.031-4.311-16.319.451-7.972 2.55-16.208 3.414-24.226-4.927 0-9.737.203-14.713-.037-6.787-.327-9.802-.614-9.802 6.371-12.197-4.14-22.73-10.237-35.835-5.78-4.884 1.662-9.884 4.126-13.477 7.914-4.046 4.267-3.276 8.875-3.431 14.334-.133 4.721.066-2.321 0 0" id="path3420" fill="#38a7e4" fill-rule="evenodd"/></g><g id="g3422" transform="translate(208.74 85.645)"><path d="M0 0c1.829-7.315 25.265-10.023 27.076-1.006C30.403 15.559-2.64 10.566 0 0c1.001-4.003-1.227 4.914 0 0m50.552-4.616C46.956-12.26 37.846-17.412 29.716-18.37c-6.59-.779-13.238.551-19.544 2.39C6.748-14.981 3.38-13.805 0-12.669c-2.089-.724.684-2.425 0-3.801-6.557.446-23.794-3.208-28.23 1.268 3.476 11.945 3.188 22.586 2.971 34.838-.116 6.597.104-5.85 0 0-.086 4.877-3.463 8.553-3.712 13.3H0c-.241-4.921-1.949-9.587-1.485-14.569 4.7.114 9.09 4.885 13.699 6.149 6.265 1.717 12.766 1.195 18.987-.447 11.045-2.917 20.502-8.217 20.924-21.185.088-2.694-.495-5.208-1.573-7.5" id="path3424" fill="#38a7e4" fill-rule="evenodd"/></g><g id="g3426" transform="translate(671.534 434.218)"><path d="M0 0c12.993-6.919 24.509-16.253 33.688-27.277l24.016 13.851v40.538L0 0z" id="path3428" fill="#ec008c" fill-rule="evenodd"/></g><g id="g3430" transform="translate(469.133 448.79)"><path d="M0 0c.477 4.029 2.996 6.315 3.715 10.136-1.756 1.247-6.645-.177-8.17 1.266 3.93 8.895 8.453 17.284 11.887 26.603-5.307-.756-9.78-2.219-15.602-2.533-3.783-10.797-13.295-19.798-11.887-32.936 1.987-1.474 4.342-2.802 7.418-2.991C-8.549-.704-2.893-1.331 0 0m2.897 42.919c6.226 0 11.271 4.304 11.271 9.612s-5.045 9.611-11.271 9.611c-6.227 0-11.272-4.303-11.272-9.611 0-5.308 5.045-9.612 11.272-9.612M-112.171 27.87c-2.642-5.139-8.198-7.788-14.117-10.134 3.322 4.558 6.409 9.316 14.117 10.134m57.199-1.899c.233-1.797 9.649.667 6.686-1.902-1.601-4.967-3.893-9.345-5.942-13.933-7.092 1.55-16.224-1.138-17.828 3.8-.462 1.421.915 4.094 2.227 5.701 3.129 3.832 12.5 7.256 14.857 10.134 1.848-.095.113-2.1 0-2.534-.106-.407-.054-.849 0-1.266M-135.202.634c6.913-2.894 15.244-2.204 24.514-1.901h8.171c4.71.153 7.756-.071 10.401 1.267 4.432 2.246 3.051 7.955 7.431 10.136 1.653-7.88 7.447-12.228 19.313-11.403 4.854 0 6.305-.307 7.429 1.267.191 2.373 1.167 4.074 2.971 5.069 1.515-3.565 5.29-5.202 10.402-5.701H-29.713c.854 4.126 3.832 6.443 4.459 10.768h-.744c-3.727.411-9.395-.83-11.887.632 1.815 5.421 3.625 10.845 7.428 14.569h8.174c.711 4.461 3.594 7.069 4.455 11.402-2.92.044-2.92.044-7.867.373 1.908 4.494 4.472 9.7 6.383 14.195-5.715.016-10.147-1.062-15.6-1.267a86.4 86.4 0 0 0-6.686-12.669c-3.804.498-5.396-.887-8.915-.632-1.119-1.37-.828-3.941-2.972-4.434-4.137 2.101-6.341 5.35-11.145 5.066-4.799-.283-6.344-5.711-10.398-5.066 4.952 15.2 12.503 28.187 19.313 41.803-5.862.143-9.876-1.291-15.6-1.267-7.853-15.41-15.057-31.765-22.284-46.87-2.452-5.124-4.661-10.586-8.174-15.203-3.972.414-9.89-.83-12.628.634 5.631 2.97 15.285 8.206 16.343 15.201.992 6.548-3.427 11.751-8.915 12.669-17.077 2.853-41.078-18.44-34.915-32.304 1.261-2.836 3.697-5.082 6.686-6.334M36.402 17.736c-2.345-4.334-5.509-7.97-12.629-8.235-8.175 5.042.838 12.78 5.2 16.47 2.968.208 1.941-2.94 2.972-4.435 1.172-1.699 3.502-2.079 4.457-3.8m-28.97-2.533C5.992 3.467 15.625-2.503 28.23-1.267 39.982-.112 46.82 8.982 50.518 17.736c1.972.007 4.244-.239 5.199.634.797 3.544 2.508 6.307 3.713 9.5-3.164.048-5.196 1.059-8.912.634C41.18 49.606 9.67 33.461 7.432 15.203m100.287 6.333c3.334-2.011 8.31-2.626 11.886-4.433 1.53 1.253 3.842 5.136 5.944 3.801 2.074-14.496-19.072-11.236-31.203-10.136 2.842 7.291 13.799 21.295 3.715 25.971-8.889 4.122-14.368-4.633-19.315-5.068-.277 1.765 2.828 3.854.744 5.068-4.416-1.093-9.769-1.384-14.857-1.902-5.09-12.339-11.768-22.75-16.19-35.659 4.832 0 8.922-.119 14.479 0 3.051 3.302 5.855 9.058 9.139 12.857 3.154 3.652 7.103 8.283 11.144 8.869-1.984-6.148-11.496-13.275-5.203-19.637 1.08-1.091 2.885-1.474 4.459-1.899 2.684-.723 4.516-.635 8.914-.635h6.686c6.439 0 12.878.035 19.316 0 20.059-.105 26.404 18.961 19.312 34.205 1.7 1.315 3.024 2.53 4.664 4.381 1.315 1.482 4.147 3.509 2.661 5.567-5.608.073-3.19-.114-8.065.186-3.394-.063-7.535.514-8.918-1.266-5.658-7.419-13.461-13.013-19.312-20.27m-300.12-5.7c8.793.271 22.77-1.266 24.515 5.7 1.916 7.672-12.566 17.781-17.089 22.169-1.03 1.002-1.952 2.557-2.971 3.801-6.717 8.214-4.809 18.664 2.228 25.969.888.92 1.964 1.957 2.791 2.689.833.742 1.997 1.485 3.151 2.379 11.369 8.78 31.48 16.159 51.26 18.368 3.263.364 6.465.423 9.658 0 4.434-.588 9.349-1.803 11.142-5.067 2.557-4.652.299-9.505-1.484-13.301-5.628-11.976-16.443-21.356-25.258-30.404h-8.174c-3.636-.016 8.174 0-14.808.108 9.283 10.031 20.125 19.217 26.696 31.563-5.274.981-11.002-.798-15.6-2.534-4.346-1.641-9.11-4.269-12.629-6.335-5.374-3.155-12.363-6.86-12.629-12.668-.454-9.928 20.434-18.706 24.515-28.502 7.4-17.768-10.308-29.729-30.457-30.403h-65.374c5.397 5.904 8.54 9.627 14.113 15.2 10.426 1.879 25.757.939 36.404 1.268" id="path3432" fill="#ec008c" fill-rule="evenodd"/></g><g id="g3434" transform="translate(712 477.238)"><path d="M0 0l-66.465-32.543a113.352 113.352 0 0 0 22.836-8.37l60.867 29.3V0H0z" id="path3436" fill="#38a7e4" fill-rule="evenodd"/></g><g id="g3438" transform="translate(619.335 447.93)"><path d="M0 0c7.465 0 14.825-.787 21.983-2.27C27.733.64 69.018 21.507 85.79 29.309H44.932L-10.346 0H0z" id="path3440" fill="#2e318e" fill-rule="evenodd"/></g></g></g></g></svg>