<svg xmlns="http://www.w3.org/2000/svg" viewBox="0 0 448.01 453.99"><defs><style>.cls-1,.cls-11,.cls-3,.cls-4,.cls-5,.cls-7,.cls-8,.cls-9{fill:none}.cls-2{clip-path:url(#clip-path)}.cls-3,.cls-9{stroke:#19b5fe}.cls-11,.cls-3,.cls-4,.cls-5{stroke-linecap:round}.cls-3,.cls-4,.cls-8{stroke-width:9.96px}.cls-4{stroke:#f8e71c}.cls-5,.cls-8{stroke:#ff3ca6}.cls-11,.cls-5,.cls-7,.cls-9{stroke-width:4.98px}.cls-6{fill:#f8e71c}.cls-7{stroke:#fff}.cls-10{fill:#ff3ca6}.cls-11{stroke:#1f3a93}</style><clipPath id="clip-path" transform="translate(0 -.01)"><path class="cls-1" d="M0 0h448v453.85H0z"/></clipPath></defs><title>sparkle</title><g id="Layer_2" data-name="Layer 2"><g class="cls-2" id="Layer_1-2" data-name="Layer 1"><path class="cls-3" d="M355.02 92.75l87.63-87.77"/><path class="cls-3" d="M5 439l74.28-74.39m62.12-62.21l39.6-39.62" transform="translate(0 -.01)"/><path class="cls-4" d="M171.39 181.24L80.21 89.92"/><path class="cls-4" d="M443 449l-93.39-93.53m-56.52-56.6L267 272.75" transform="translate(0 -.01)"/><path class="cls-5" d="M159.3 227.88H86.11m-45.84 0H10M428.09 227.88h-96.47m-22.74 0h-30.12" transform="translate(0 -.01)"/><path class="cls-5" d="M219.03 168.67v-40.61M219.03 437.27v-61.05"/><path class="cls-6" d="M219 203a24.93 24.93 0 1 1-24.89 24.93A24.91 24.91 0 0 1 219 203" transform="translate(0 -.01)"/><ellipse class="cls-7" cx="219.03" cy="227.88" rx="27.38" ry="27.42"/><ellipse class="cls-8" cx="219.03" cy="227.88" rx="19.91" ry="19.94"/><ellipse class="cls-9" cx="219.03" cy="227.88" rx="22.4" ry="22.43"/><path class="cls-10" d="M171.74 222.9a5 5 0 1 1-5 5 5 5 0 0 1 5-5M266.32 222.9a5 5 0 1 1-5 5 5 5 0 0 1 5-5M219 175.54a5 5 0 1 1-5 5 5 5 0 0 1 5-5M219 270.26a5 5 0 1 1-5 5 5 5 0 0 1 5-5" transform="translate(0 -.01)"/><path class="cls-11" d="M165.53 352.69l18.72-45.26"/><path class="cls-11" d="M251.85 179.32L289.61 88m11.16-27l19.65-47.53" transform="translate(0 -.01)"/><path class="cls-11" d="M154.69 76.64l-21.51-52.03"/></g></g></svg>