<?xml version="1.0" encoding="iso-8859-1"?><!DOCTYPE svg PUBLIC "-//W3C//DTD SVG 1.1//EN" "http://www.w3.org/Graphics/SVG/1.1/DTD/svg11.dtd"><svg width="52" height="184" viewBox="0 0 52 184" xmlns="http://www.w3.org/2000/svg" xmlns:xlink="http://www.w3.org/1999/xlink"><svg viewBox="-160 -160 832 832" width="52" height="52" id="facebook-example-icon" xmlns="http://www.w3.org/2000/svg"><circle cx="256.001" cy="256" r="256" fill="#4e598f"/><path d="M511.596 241.7L391.019 121.085c-1.998.605-6.982-1.714-9.173-1.274-51.717 8.62-101.71 0-151.704 13.791-24.135 6.896-25.859 36.202-34.478 55.165-12.067 34.478-10.343 72.404-25.859 105.158-10.343 22.411-34.478 36.202-43.098 62.061-2.875 10.785-2.705 24.379-5.956 34.69l120.98 120.922c4.725.26 9.48.403 14.269.403 141.384 0 256-114.616 256-256 .001-4.8-.142-9.567-.404-14.301z" fill="#364270"/><g fill="#fff"><path d="M363.043 109.466H148.958c-21.809 0-39.49 17.68-39.49 39.49v214.085c0 21.811 17.68 39.49 39.49 39.49h105.584l.183-104.722h-27.21a6.418 6.418 0 0 1-6.418-6.396l-.133-33.759a6.422 6.422 0 0 1 6.42-6.444h27.162v-32.618c0-37.852 23.118-58.463 56.884-58.463h27.71a6.421 6.421 0 0 1 6.42 6.42v28.463a6.419 6.419 0 0 1-6.416 6.42l-17.006.01c-18.363 0-21.921 8.725-21.921 21.533v28.239h40.351c3.848 0 6.83 3.358 6.375 7.173l-4.001 33.759a6.418 6.418 0 0 1-6.375 5.665h-36.168l-.183 104.726h62.826c21.809 0 39.49-17.682 39.49-39.491v-214.09c.001-21.809-17.68-39.49-39.489-39.49z"/><path d="M254.542 402.53l.183-104.722h-.448V402.53z"/></g><path d="M363.043 109.466H254.277v141.741h.269V218.59c0-37.852 23.118-58.463 56.884-58.463h27.71a6.421 6.421 0 0 1 6.42 6.42v28.463a6.419 6.419 0 0 1-6.416 6.42l-17.006.01c-18.363 0-21.921 8.725-21.921 21.533v28.238h40.351c3.848 0 6.83 3.358 6.375 7.173l-4.001 33.759a6.418 6.418 0 0 1-6.375 5.665h-36.168l-.183 104.726h62.826c21.809 0 39.49-17.682 39.49-39.491V148.956c.001-21.809-17.68-39.49-39.489-39.49z" fill="#d1d1d1"/></svg><svg width="52" height="45.12" viewBox="-239.47 -239.47 1245.26 1080.41" id="logo" y="52" xmlns="http://www.w3.org/2000/svg"><defs><clipPath id="ba"><path d="M0 595.28h841.89V0H0v595.28z"/></clipPath></defs><g clip-path="url(#ba)" transform="matrix(1.25 0 0 -1.25 -145.236 682.496)"><path d="M602.299 283.419c8.242-.941 14.576 1.167 19.373 3.019 1.596.614 2.74 1.082 4.098 1.735a41.042 41.042 0 0 1 4.015 2.212c14.204 8.885 28.912 24.149 26.743 42.439-17.237-6.417-36.621-12.27-54.23-18.37V283.42zm3.71 120.979c-4.79-.354-3.71-4.887-3.71-8.234V367.66c-.082-4.768-.185-9.587-.131-14.046.045-3.621.278-6.766.262-9.356 10.355.74 15.807.655 27.966 2.899 6.908 1.276 20.39 4.49 23.85 8.325 2.759 3.055.184 10.392-.691 12.812-1.502 4.16-6.56 12.293-8.914 15.2-5.231 6.463-11.293 11.518-17.828 15.202-4.912 2.768-13.627 6.232-20.803 5.7m118.117-67.772c-2.871-39.367-27.355-62.914-58.43-80.71-20.751-11.883-63.398-14.3-63.398-14.3l.256-28.135c0-43.474-35.395-69.41-77.088-69.41H292.004c-45.775 0-72.8 23.282-72.8 60.44V431.9c0 7.829 6.314 13.035 14.34 13.035H617.9c59.695 0 112.66-50.937 106.228-108.31" fill="#2e318e" fill-rule="evenodd"/><path d="M325.944 278.352c-8.768-10.896-4.299-26.417 4.936-35.477 9.981-9.792 26.193-9.88 38.412-4.554 12.546 5.468 22.393 16.239 27.78 28.71 5.113 11.842 4.647 24.048 4.647 36.657-12.999-.712-26.248-2.056-38.935-5.031-13.158-3.086-28.152-9.508-36.84-20.305-11.657-14.486 5.545 6.89 0 0m284.523 2.533c19.902 1.974 38.85 16.259 46.35 34.804 1.963 4.855 3.04 10.02 3.421 15.235 6.738 0 13.476-.007 20.215-.016 13.058-.017 26.117-.042 39.176-.042-1.944-20.984-15.33-41.547-31.066-54.967-12.8-10.917-27.65-19.22-43.787-24.123-40.35-12.265-88.619-4.135-116.569 29.244a86.318 86.318 0 0 0-5.666 7.56c-1.113 1.67-2.893 6.303-4.935 6.872 0-21.354-1.174-43.08 1.92-64.276 2.752-18.861 9.675-36.561 18.138-53.535H448.52c2.185 8.693 6.183 16.719 9.538 24.985.612 1.507.87 4.046 2.574 4.33 1.693.284 3.407.41 5.12.469 3.91.134 7.828-.014 11.74-.014-4.452 9.129-6.414 20.772-8.036 30.723-1.484 9.1-1.757 18.42-2.047 27.619-.398 12.66.172 25.289.798 37.935h-5.682c-2.35 0-1.386-2.59-1.43-4.583-.107-4.684-.337-9.364-.509-14.046-.32-8.685-.064-17.254.57-25.916 1.19-16.307 5.161-32.384 11.88-47.298-27.954-1.56-55.97-.208-83.947-.633.557 6.418 5.944 11.197 5.944 17.735-4.085-2.914-7.71-6.282-11.723-9.247-4.53-3.35-9.799-5.706-14.98-7.856-9.657-4.006-19.719-5.251-30.116-4.221-20.898 2.068-42.578 10.852-55.276 28.36-6.208 8.558-8.827 18.993-9.5 29.429-.774 11.973 5.662 23.876 13.067 32.915 14.242 17.386 35.11 27.397 56.281 33.646 19.002 5.609 38.375 8.452 58.19 8.452h66.86c0 12.939-.252 25.877-.217 38.816.033 12.136.002 23.396 6.387 34.147 10.131 17.059 27.644 26.377 47.268 27.614 19.66 1.239 39.95.696 56.428-11.296 7.32-5.327 14.707-11.841 18.15-20.41 3.313-8.24 3.036-17.473.43-25.864-3.837-12.35-12.338-23.03-23.79-29.082-14.849-7.848-33.016-12.871-49.685-8.858.82 4.843 5.026 8.815 7.233 13.07 2.667 5.142 4.894 10.518 6.78 15.99 3.384 9.824 6.471 20.954 5.203 31.445-1.073 8.87-8.252 16.02-17.502 10.986-9.353-5.092-7.795-18.047-7.2-26.853.868-12.906.285-25.992.285-38.924v-9.643c0-2.442.835-1.61 2.896-1.645.99-.016 1.978-.034 2.968-.053 1.442-.03 2.884-.074 4.327-.075 25.277-.017 50.538-.492 75.751 1.754 16.34 1.456 32.842 3.88 48.395 9.267a115.04 115.04 0 0 1 4.45 1.644c2.656 1.046 2.348 2.078 2.348 4.853a37.891 37.891 0 0 1-1.647 11.107c-2.447 8-7.469 14.986-13.092 21.069-9.58 10.365-22.579 18.753-37.017 19.065a70.74 70.74 0 0 1-5.77-.126 56.603 56.603 0 0 1-3.545 5.783c-2.347 3.37-5.032 6.499-7.924 9.412-5.026 5.06-10.65 9.918-16.863 13.468 20.274 6.73 41.488 5.89 62.007 2.725 18.963-2.925 34.628-11.8 49.71-23.49 6.55-5.076 11.834-11.684 16.832-18.263 7.12-9.37 13.211-19.831 16.363-31.237a59.867 59.867 0 0 0 1.713-8.491c.28-2.227-1.016-1.861-2.887-2.53a2087.85 2087.85 0 0 0-4.576-1.631 2251.825 2251.825 0 0 0-19.903-6.95c-12.844-4.42-25.72-8.741-38.61-13.028-32.599-10.843-65.296-21.372-98.039-31.77 4.681-7.083 12.9-11.078 20.425-14.413 8.618-3.82 17.72-6.28 27.12-7.123" fill="#38a7e4" fill-rule="evenodd"/><path d="M322.23 398.164c-15.703-14.415-26.075-33.83-30.86-54.493-1.789-7.725-2.504-15.145-1.187-23.004.814-4.861 2.291-10.052-.635-14.492-2.958-4.49-7.049-8.262-10.283-12.568-11.835-15.754-13.549-37.464-3.075-54.6 9.772-15.986 26.645-27.036 44.602-31.668 10.063-2.595 20.589-3.208 30.898-1.946 5.692.696 11.311 1.955 16.772 3.703 1.439.46 2.868.955 4.284 1.48a206.548 206.548 0 0 1 10.466-3.706c22.462-7.274 46.181-10.495 69.764-8.96-2.171-8.235-6.927-15.413-9.658-23.435H543.38c1.532 0-2.369 5.743-2.667 6.288-3.077 5.632-6.127 11.279-8.819 17.107-5.178 11.213-8.342 22.284-8.342 34.666 0 5.226 3.698 11.563 5.433 16.493.998 2.837 2.097 5.62 3.266 8.39.782 1.858 2.409 8.59 4.373 8.143 2.243-.513 3.658-2.476 5.5-3.68 2.261-1.476 4.593-2.845 6.952-4.16 5.368-2.99 10.884-5.707 16.285-8.638 9.562-5.188 19.189-11.213 25.824-20.007 6.525-8.65 6.236-17.222 3.945-27.55-2.39-10.775-7.218-20.728-14.794-28.803-7.078-7.545-15.547-13.302-25.126-17.167-12.295-4.962-24.32-5.785-37.425-5.785H308.688c-11.691 0-23.578-.678-35.129 1.499-16.628 3.135-32.19 11.975-40.934 26.819-10.846 18.412-7.71 41.203-7.71 61.622V424.96c0 4.815-.913 10.16 3.678 13.209 4.481 2.977 10.748 1.966 15.817 1.966h145.315c12.455 0 24.431.53 36.337-3.728 9.965-3.566 19.125-9.376 26.042-17.453 7.612-8.888 9.046-18.42 9.046-29.758.03-21.248-19.979-36.872-38.68-42.466-10.326-3.09-25.41-6.145-35.608-1.24 4.068 8.742 9.448 17.009 11.322 26.58 2.388 12.195.626 25.76-8.359 35.037-19.186 19.808-50.564 6.689-67.595-8.944-16.836-15.455 7.996 7.34 0 0" fill="#38a7e4" fill-rule="evenodd"/><path d="M121.952 124.447h595.043c1.07 0 4.836-.218 6.241-2.836 10.911-20.329-16.76-46.067-37.142-52.57-5.429-1.734-12.579-4.22-20.357-4.136H179.155c-6.113-.353-10.94.51-15.37 1.638-34.642 8.826-59.31 57.904-41.833 57.904" fill="#2e318e" fill-rule="evenodd"/><path d="M725.66 110.97c-18.085.416-39.486-.823-56.336.644-2.125 2.48-1.665 6.956.741 8.868 11.64.42 25.217-.081 35.66.634 5.447 0 17.688.134 17.746-.05.104-.337 2.324-3.428 2.188-10.095M696.066 81.845c-8.84.697-21.057-1.484-27.485 1.267-.665 3.21-.88 5.674.743 8.233 9.44 1.455 22.015.23 32.685.634h15.86c-3.079-3.843-4.83-5.91-9.722-10.134h-12.08zM141.891 106.637c9.933-.4 21.758.817 30.457-.632 1.188-3.15.865-7.035-.74-9.502h-1.488c-14.857-.421-31.616.872-45.237-.604-2.295 3.349-4.318 6.855-6.02 10.738h23.028zM117.531 110.267c-1.978 6.072-1.359 9.469-.438 11.127.342.616 11.17-.278 15.876-.278 11.14-.64 26.47.614 37.143-1.267 2.031-.71.166-7.743 0-8.235-16.108-1.888-51.947-1.426-52.58-1.347M725.313 107.637c-.514-3.381-2.431-8.326-5.33-12.614-.165.492-1.508.859-2.372.757-14.116 1.475-31.447.212-46.802.632-2.71 1.335-3.732 5.854-2.227 8.87 2.62 2.049 6.845 1.17 10.4 1.264 12.56.33 25.427-.247 37.143 0 2.258.397 8.156-.352 9.187 1.09M173.071 90.2c1.675-2.212.508-6.503-.74-8.235H146.33c-2.5-.4-7.055.35-8.57-.75-3.622 3.4-5.177 4.84-10.088 10.848 6.192 0 12.467.036 18.658.036 5.695 0 16.118-.319 17.128-.348 1.01-.03 8.538.696 9.614-1.55M164.192 77.121c8.448.134 8.94-4.569 7.427-10.134-1.775-.385-2.155-.127-8.18-.356-4.06 1.19-11.322 3.381-20.791 10.49 7.183 0 13.096-.134 21.544 0M684.96 68.682c-3.941 1.55-11.623-2.068-16.052-.138-.638 3.17-.638 4.427 0 7.6 8.095 4.077 22.944.725 33.593 1.3-4.34-3.925-15.951-8.501-17.541-8.762M359.546 120.481c5.848-.477 22.467-.187 13.633-9.439-5.34-5.593-6.601-15.735-6.066-23.135.234-3.245.997-6.984 3.575-9.229 6.423 1.701 12.77 3.738 18.913 6.283 4.925 2.041 9.739 4.412 14.212 7.325 4.273 2.782 6.945 8.333 11.838 3.805 4.843-4.48 6.674-15.688 1.822-20.862-4.554-4.855-12.72-5.472-18.924-5.832-17.89-1.038-36.054 2.793-53.863.412-.464 5.49 2.04 11.132 2.972 16.47.935 5.356 1.527 11.902 1.115 17.355-.4 5.278-4.453 9.622-4.331 15.322.09 4.271 11.494 1.818 15.104 1.525 7.003-.57-2.284.186 0 0M473.95 119.849c8.621-.281 17.447.843 25.997-.632-3.42-11.74-3.13-24.283-6.65-35.997-3.345-11.132-18.52-14.024-28.37-14.4-17.702-.676-41.537 4.838-44.466 25.693 7.601 1.568 15.491.406 23.154.072 4.78-.208 5.583.73 7.192-3.865.855-2.437 1.726-4.941 3.187-7.096 6.9-10.174 18.542-1.1 21.015 7.41 1.202 4.139 1.282 8.812-.44 12.822-2.806 6.537-7.609 6.05-13.967 5.55-13.88-1.088-26.697-5.666-39.398-11.093-2.26 4.732-1.487 10.447-1.487 15.518 0 3.31-1.439 5.335 2.451 5.635 3.461.268 6.953.413 10.422.543 13.75.513 27.597-.16 41.36-.16 8.584-.28-5.203 0 0 0M525.95 87.547c1.701-8.28 13.535-6.614 18.914-3.925 3.41 1.705 6.28 4.195 9.315 6.458-.35 4.12 1.332 8.18.677 12.286-1.556 9.743-31.673-1.401-28.907-14.82 1.091-5.305-2.11 10.239 0 0m-24.515 4.433c.721 10.906 8.98 17.304 17.338 22.637 10.77 6.87 22.321 6.592 34.79 6.203 6.266-.195 12.574-1.053 18.827-1.074 2.276-.007 7.708 1.165 7.214-2.433-.38-2.774-2.63-4.848-3.137-7.597-2.446-13.272 1.253-26.687 2.227-39.905h-20.058c-5.01.462-4.456.503-4.456 5.7-11.32-5.32-23.918-9.428-36.358-5.53-4.466 1.4-9.494 3.467-12.988 6.676-4.58 4.208-3.772 9.678-3.399 15.323.49 7.389-.167-2.528 0 0M589.581 107.628c-.873 5.075-3.887 7.476-6.43 11.589 6.303 1.1 12.872 3.055 19.313 1.898 3.096-.554 5.284-2.321 7.487-4.42 2.503-2.382 5.364.234 7.936 1.696 9.896 5.629 26.804 2.15 34.496-5.951 7.402-7.796 11.41-23.445 6.857-33.496-4.779-10.555-19.962-9.465-29.29-7.866.78 7.042 8.454 10.194 8.118 18.29-.264 6.376-4.685 11.372-10.678 13.204-6.793 2.077-15.879 1.179-19.104-6.13-3.562-8.077 2.321-17.743 4.578-25.364-4.732.223-9.473-.002-14.207-.08-2.774-.045-5.555-.056-8.326.12-3.959.252-5.17-.73-4.524 3.79 1.456 10.202 5.548 22.416 3.774 32.72-.4 2.328.556-3.227 0 0M295.657 102.748c-4.323-2.513-11.621-11.869-8.333-17.094 4.294-6.822 12.377-4.943 18.572-2.056 8.658 4.035 9.647 9.196 9.709 18.21.049 7.235-15.403 3.577-19.948.94-3.851-2.238 4.25 2.466 0 0m-33.428-10.77c-.294 10.442 12.499 21.12 21.103 24.947 12.345 5.49 28.083 4.113 41.298 3.556 3.965-.167 7.902-.81 11.886-.632 6.667.295 6.242-4.989 3.868-10.128-2.586-5.601-4.666-10.031-4.311-16.319.45-7.972 2.55-16.208 3.414-24.226-4.927 0-9.737.203-14.713-.037-6.787-.327-9.802-.614-9.802 6.371-12.197-4.14-22.73-10.237-35.835-5.78-4.884 1.662-9.884 4.126-13.477 7.914-4.046 4.267-3.276 8.875-3.431 14.334-.133 4.721.066-2.321 0 0M208.74 85.645c1.83-7.314 25.266-10.022 27.077-1.005 3.327 16.564-29.716 11.571-27.076 1.005 1-4.002-1.227 4.915 0 0m50.552-4.615c-3.596-7.645-12.706-12.797-20.836-13.755-6.59-.779-13.238.551-19.544 2.39-3.424 1-6.792 2.175-10.172 3.311-2.09-.724.684-2.425 0-3.8-6.557.445-23.794-3.209-28.23 1.267 3.476 11.945 3.188 22.586 2.97 34.838-.115 6.597.105-5.85 0 0-.085 4.877-3.462 8.553-3.711 13.3h28.97c-.24-4.92-1.948-9.587-1.484-14.569 4.7.114 9.09 4.885 13.699 6.15 6.265 1.716 12.766 1.194 18.987-.448 11.045-2.917 20.502-8.217 20.924-21.185.088-2.694-.495-5.208-1.573-7.5" fill="#38a7e4" fill-rule="evenodd"/><path d="M671.534 434.218c12.993-6.919 24.51-16.253 33.688-27.277l24.016 13.851v40.538l-57.704-27.112zM469.133 448.79c.477 4.03 2.996 6.315 3.715 10.136-1.756 1.248-6.645-.176-8.17 1.267 3.93 8.895 8.453 17.284 11.887 26.603-5.307-.756-9.78-2.22-15.602-2.533-3.783-10.797-13.295-19.798-11.887-32.936 1.987-1.474 4.342-2.802 7.418-2.991 4.09-.25 9.746-.876 12.639.455m2.897 42.919c6.226 0 11.27 4.304 11.27 9.612s-5.044 9.61-11.27 9.61c-6.227 0-11.272-4.302-11.272-9.61s5.045-9.612 11.272-9.612m-115.068-15.05c-2.642-5.138-8.198-7.787-14.117-10.133 3.322 4.558 6.409 9.316 14.117 10.134m57.199-1.9c.233-1.796 9.649.668 6.686-1.901-1.601-4.967-3.893-9.345-5.942-13.933-7.092 1.55-16.224-1.138-17.828 3.8-.462 1.42.915 4.094 2.227 5.7 3.129 3.833 12.5 7.257 14.857 10.135 1.848-.095.113-2.1 0-2.534-.106-.407-.054-.85 0-1.266m-80.23-25.337c6.913-2.894 15.244-2.204 24.514-1.901h8.17c4.71.153 7.757-.071 10.402 1.267 4.432 2.246 3.05 7.955 7.43 10.136 1.654-7.88 7.448-12.228 19.314-11.403 4.854 0 6.305-.307 7.429 1.267.19 2.373 1.167 4.074 2.97 5.069 1.516-3.565 5.29-5.202 10.403-5.701H439.42c.854 4.126 3.832 6.443 4.459 10.768h-.744c-3.727.41-9.395-.83-11.887.632 1.815 5.42 3.625 10.845 7.428 14.569h8.174c.71 4.46 3.594 7.069 4.455 11.402-2.92.044-2.92.044-7.867.373 1.908 4.494 4.472 9.7 6.383 14.195-5.715.016-10.147-1.062-15.6-1.267a86.4 86.4 0 0 0-6.686-12.67c-3.804.499-5.396-.886-8.915-.631-1.12-1.37-.828-3.941-2.972-4.434-4.137 2.1-6.341 5.35-11.145 5.066-4.8-.283-6.344-5.711-10.398-5.066 4.952 15.2 12.503 28.187 19.313 41.803-5.862.143-9.876-1.291-15.6-1.267-7.853-15.41-15.057-31.765-22.284-46.87-2.452-5.124-4.661-10.586-8.174-15.203-3.972.414-9.89-.83-12.628.634 5.63 2.97 15.285 8.206 16.343 15.2.992 6.549-3.427 11.752-8.915 12.67-17.077 2.853-41.078-18.44-34.915-32.304 1.26-2.836 3.697-5.082 6.686-6.334m171.604 17.102c-2.345-4.334-5.51-7.97-12.63-8.235-8.174 5.042.839 12.78 5.2 16.47 2.969.208 1.942-2.94 2.973-4.435 1.172-1.7 3.502-2.08 4.457-3.8m-28.97-2.533c-1.44-11.736 8.193-17.706 20.798-16.47 11.752 1.155 18.59 10.249 22.288 19.003 1.972.007 4.244-.24 5.199.634.797 3.544 2.508 6.307 3.713 9.5-3.164.048-5.196 1.059-8.912.634-9.338 21.102-40.848 4.957-43.086-13.301m100.287 6.333c3.334-2.011 8.31-2.626 11.886-4.433 1.53 1.253 3.842 5.136 5.944 3.8 2.074-14.495-19.072-11.235-31.203-10.135 2.842 7.29 13.799 21.295 3.715 25.97-8.89 4.123-14.368-4.632-19.315-5.067-.277 1.765 2.828 3.854.744 5.068-4.416-1.093-9.77-1.384-14.857-1.902-5.09-12.34-11.768-22.75-16.19-35.66 4.832 0 8.922-.118 14.479 0 3.05 3.303 5.855 9.059 9.139 12.858 3.154 3.652 7.103 8.283 11.144 8.869-1.984-6.148-11.496-13.275-5.203-19.637 1.08-1.091 2.885-1.474 4.459-1.9 2.684-.722 4.516-.634 8.914-.634h6.686c6.439 0 12.878.035 19.316 0 20.059-.105 26.404 18.96 19.312 34.205 1.7 1.315 3.024 2.53 4.664 4.38 1.315 1.483 4.147 3.51 2.66 5.568-5.607.073-3.19-.114-8.064.186-3.394-.063-7.535.514-8.918-1.266-5.658-7.42-13.461-13.013-19.312-20.27m-300.12-5.7c8.793.27 22.77-1.266 24.515 5.7 1.916 7.672-12.566 17.78-17.09 22.169-1.03 1.002-1.951 2.557-2.97 3.8-6.717 8.214-4.81 18.664 2.228 25.97.888.92 1.964 1.957 2.79 2.689.834.741 1.998 1.484 3.152 2.378 11.369 8.78 31.48 16.16 51.26 18.368 3.263.364 6.465.423 9.658 0 4.434-.588 9.349-1.803 11.142-5.067 2.557-4.652.299-9.505-1.484-13.3-5.628-11.976-16.443-21.356-25.258-30.404H326.5c-3.636-.017 8.174 0-14.808.107 9.283 10.031 20.125 19.217 26.696 31.563-5.274.981-11.002-.798-15.6-2.534-4.346-1.64-9.11-4.269-12.63-6.335-5.373-3.155-12.362-6.86-12.628-12.668-.454-9.928 20.434-18.706 24.515-28.502 7.4-17.768-10.308-29.729-30.457-30.403h-65.374c5.397 5.904 8.54 9.627 14.113 15.2 10.426 1.88 25.757.94 36.404 1.268" fill="#ec008c" fill-rule="evenodd"/><path d="M712 477.238l-66.465-32.543a113.352 113.352 0 0 0 22.836-8.37l60.867 29.3v11.613H712z" fill="#38a7e4" fill-rule="evenodd"/><path d="M619.335 447.93c7.465 0 14.825-.788 21.983-2.27 5.75 2.91 47.035 23.776 63.807 31.578h-40.858l-55.278-29.309h10.346z" fill="#2e318e" fill-rule="evenodd"/></g></svg><svg width="52" height="33.92" viewBox="-125 -125 450 337" id="pattern" y="98" xmlns="http://www.w3.org/2000/svg"><defs><style>.cblue-dark{fill:#391985}.cblue-light{fill:#00aae4}.cpink{fill:#f70079}</style></defs><g class="cblue-dark"><path d="M0 0l25 43.301 12.5-21.65zM100 0L75 43.301l-12.5-21.65zM50 86.603L37.5 64.952 50 57.735l12.5 7.217z"/></g><g class="cblue-light"><path d="M0 86.603L25 43.3l12.5 21.65zM100 86.603L75 43.3l-12.5 21.65zM50 0L37.5 21.65 50 28.869l12.5-7.217z"/></g><path class="cpink" d="M25 43.301l12.5-21.65L50 28.868l12.5-7.217L75 43.3l-12.5 21.65L50 57.736l-12.5 7.217z"/><g transform="translate(100)"><g class="cpink"><path d="M0 0l25 43.301 12.5-21.65zM100 0L75 43.301l-12.5-21.65zM50 86.603L37.5 64.952 50 57.735l12.5 7.217z"/></g><g class="cblue-dark"><path d="M0 86.603L25 43.3l12.5 21.65zM100 86.603L75 43.3l-12.5 21.65zM50 0L37.5 21.65 50 28.869l12.5-7.217z"/></g><path class="cblue-light" d="M25 43.301l12.5-21.65L50 28.868l12.5-7.217L75 43.3l-12.5 21.65L50 57.736l-12.5 7.217z"/></g></svg><svg viewBox="-141.87 -141.87 731.75 737.73" width="51.58" height="52" id="sparkle" y="132" xmlns="http://www.w3.org/2000/svg"><defs><style>.dcls-1,.dcls-11,.dcls-3,.dcls-4,.dcls-5,.dcls-7,.dcls-8,.dcls-9{fill:none}.dcls-2{clip-path:url(#dclip-path)}.dcls-3,.dcls-9{stroke:#19b5fe}.dcls-11,.dcls-3,.dcls-4,.dcls-5{stroke-linecap:round}.dcls-3,.dcls-4,.dcls-8{stroke-width:9.96px}.dcls-4{stroke:#f8e71c}.dcls-5,.dcls-8{stroke:#ff3ca6}.dcls-11,.dcls-5,.dcls-7,.dcls-9{stroke-width:4.98px}.dcls-6{fill:#f8e71c}.dcls-7{stroke:#fff}.dcls-10{fill:#ff3ca6}.dcls-11{stroke:#1f3a93}</style><clipPath id="dclip-path" transform="translate(0 -.01)"><path class="dcls-1" d="M0 0h448v453.85H0z"/></clipPath></defs><title>sparkle</title><g id="dLayer_2" data-name="Layer 2"><g class="dcls-2" id="dLayer_1-2" data-name="Layer 1"><path class="dcls-3" d="M355.02 92.75l87.63-87.77"/><path class="dcls-3" d="M5 439l74.28-74.39m62.12-62.21l39.6-39.62" transform="translate(0 -.01)"/><path class="dcls-4" d="M171.39 181.24L80.21 89.92"/><path class="dcls-4" d="M443 449l-93.39-93.53m-56.52-56.6L267 272.75" transform="translate(0 -.01)"/><path class="dcls-5" d="M159.3 227.88H86.11m-45.84 0H10M428.09 227.88h-96.47m-22.74 0h-30.12" transform="translate(0 -.01)"/><path class="dcls-5" d="M219.03 168.67v-40.61M219.03 437.27v-61.05"/><path class="dcls-6" d="M219 203a24.93 24.93 0 1 1-24.89 24.93A24.91 24.91 0 0 1 219 203" transform="translate(0 -.01)"/><ellipse class="dcls-7" cx="219.03" cy="227.88" rx="27.38" ry="27.42"/><ellipse class="dcls-8" cx="219.03" cy="227.88" rx="19.91" ry="19.94"/><ellipse class="dcls-9" cx="219.03" cy="227.88" rx="22.4" ry="22.43"/><path class="dcls-10" d="M171.74 222.9a5 5 0 1 1-5 5 5 5 0 0 1 5-5M266.32 222.9a5 5 0 1 1-5 5 5 5 0 0 1 5-5M219 175.54a5 5 0 1 1-5 5 5 5 0 0 1 5-5M219 270.26a5 5 0 1 1-5 5 5 5 0 0 1 5-5" transform="translate(0 -.01)"/><path class="dcls-11" d="M165.53 352.69l18.72-45.26"/><path class="dcls-11" d="M251.85 179.32L289.61 88m11.16-27l19.65-47.53" transform="translate(0 -.01)"/><path class="dcls-11" d="M154.69 76.64l-21.51-52.03"/></g></g></svg></svg>