<?xml version="1.0" encoding="UTF-8" standalone="no"?>
<!-- Created with Inkscape (http://www.inkscape.org/) -->

<svg
   xmlns:dc="http://purl.org/dc/elements/1.1/"
   xmlns:cc="http://creativecommons.org/ns#"
   xmlns:rdf="http://www.w3.org/1999/02/22-rdf-syntax-ns#"
   xmlns:svg="http://www.w3.org/2000/svg"
   xmlns="http://www.w3.org/2000/svg"
   xmlns:sodipodi="http://sodipodi.sourceforge.net/DTD/sodipodi-0.dtd"
   xmlns:inkscape="http://www.inkscape.org/namespaces/inkscape"
   id="svg2"
   version="1.1"
   inkscape:version="0.47 r22583"
   width="113"
   height="79"
   sodipodi:docname="baljan-trace.svg"
   inkscape:export-filename="/home/pilt/envs/cafesys/cafesys/media/img/logo/baljan-trace.png"
   inkscape:export-xdpi="120"
   inkscape:export-ydpi="120">
  <metadata
     id="metadata8">
    <rdf:RDF>
      <cc:Work
         rdf:about="">
        <dc:format>image/svg+xml</dc:format>
        <dc:type
           rdf:resource="http://purl.org/dc/dcmitype/StillImage" />
      </cc:Work>
    </rdf:RDF>
  </metadata>
  <defs
     id="defs6">
    <inkscape:perspective
       sodipodi:type="inkscape:persp3d"
       inkscape:vp_x="0 : 0.5 : 1"
       inkscape:vp_y="0 : 1000 : 0"
       inkscape:vp_z="1 : 0.5 : 1"
       inkscape:persp3d-origin="0.5 : 0.33333333 : 1"
       id="perspective10" />
    <filter
       id="filter3577"
       inkscape:label="Clean edges"
       inkscape:menu="ABCs"
       inkscape:menu-tooltip="Removes or decreases glows and jaggeries around objects edges after applying some filters"
       height="1"
       width="1"
       y="0"
       x="0"
       color-interpolation-filters="sRGB">
      <feGaussianBlur
         id="feGaussianBlur3579"
         result="result6"
         stdDeviation="0.4" />
      <feComposite
         id="feComposite3581"
         in2="result6"
         operator="in"
         in="SourceGraphic"
         result="result7" />
      <feComposite
         id="feComposite3583"
         in2="result7"
         operator="in"
         result="result8"
         in="result7" />
    </filter>
  </defs>
  <sodipodi:namedview
     pagecolor="#ffffff"
     bordercolor="#666666"
     borderopacity="1"
     objecttolerance="10"
     gridtolerance="10"
     guidetolerance="10"
     inkscape:pageopacity="0"
     inkscape:pageshadow="2"
     inkscape:window-width="1077"
     inkscape:window-height="774"
     id="namedview4"
     showgrid="false"
     inkscape:zoom="5.9746835"
     inkscape:cx="46.92081"
     inkscape:cy="40.521587"
     inkscape:window-x="2141"
     inkscape:window-y="83"
     inkscape:window-maximized="0"
     inkscape:current-layer="svg2" />
  <g
     id="g2982"
     transform="translate(0.06164582,-0.18384456)"
     inkscape:export-filename="/home/pilt/envs/cafesys/cafesys/media/img/logo/baljan.png"
     inkscape:export-xdpi="86.07"
     inkscape:export-ydpi="86.07"
     style="filter:url(#filter3577)">
    <path
       style="fill:#c8cde3"
       d="M 3.4,75.6 C -0.49660986,73.025251 -2.0171717,64.772726 4.7103882,65.647185 22.304669,64.683843 39.94436,65.320718 57.558087,65.247682 c 17.07888,0.200726 34.178585,-0.14959 51.240003,0.725842 6.09692,-0.791764 4.30623,6.919499 1.43206,9.545686 -3.4761,3.928552 -9.24594,2.791412 -13.926024,3.248943 -25.887903,0.35001 -51.78423,0.331163 -77.672752,0.05255 C 13.977729,78.413329 8.7919117,79.204658 4.618351,76.722266 L 4.010497,76.198486 3.4,75.6 z M 27.881475,61.496912 C 22.163232,58.564295 22.498506,51.326836 22.122602,45.835509 21.610155,38.689098 22.744907,31.370143 21.161391,24.342638 18.34971,19.74911 11.883604,22.440619 7.4268216,21.863695 4.7454968,22.601958 0.63477404,21.216316 4.4503955,18.780997 7.1002237,17.482369 13.021039,18.97573 8.9071695,14.565273 7.0176248,9.4672415 15.450689,5.3338112 19.263347,7.8813943 20.09285,10.683447 14.149787,16.889652 20.758093,14.783855 22.467653,10.939134 21.507377,4.2245417 27.986256,5.5089493 45.906893,4.4646349 63.884558,5.5602873 81.798877,4.5517025 86.459278,4.3197986 89.754889,0.04376851 94.536723,0.16206286 98.694367,-0.39666164 105.64527,-0.84575775 104,5.4503099 c 1.64246,4.8857401 -5.347575,7.1313811 -1.50467,11.5393401 4.38724,8.723573 1.01408,20.450223 -7.802506,24.951944 -3.325301,2.885461 -11.05263,1.466095 -9.721272,7.567891 -0.119872,6.65493 -5.310228,13.45245 -12.400056,13.169514 -13.286756,0.44868 -26.61397,0.464923 -39.893984,-0.187696 -1.618768,-0.174959 -3.304836,-0.274706 -4.796037,-0.994391 z m 61.66398,-27.951457 c 2.765673,-1.7144 3.390767,-6.386574 -0.881398,-3.810849 -4.454887,-0.784811 -6.818625,8.030858 -1.30293,5.579957 0.805493,-0.485541 1.519406,-1.107952 2.184328,-1.769108 z M 89.75,23.511959 C 95.253897,21.978976 87.098994,11.94254 84.45334,15.129152 83.924758,19.703924 82.060383,27.672738 89.75,23.511959 z"
       id="path3010" />
    <path
       style="fill:#e5a7e6"
       d="M 5.7625707,77.434612 C 2.6782684,75.473614 -1.5744386,70.142013 0.91239517,66.86792 10.087882,65.615736 19.426703,66.247763 28.671725,66.017931 c 25.754256,0.09826 51.51789,-0.321795 77.265775,0.329256 4.1929,-0.731772 9.40434,1.443794 6.14524,6.217074 -2.03869,4.520987 -7.06882,6.005287 -11.66608,5.743874 -27.005219,1.176681 -54.062615,1.005138 -81.07849,0.277281 -4.511132,-0.295207 -9.159081,-0.12527 -13.5755993,-1.150804 z M 29.096399,61.735258 C 24.944606,59.466971 22.287702,55.031532 22.57244,50.25817 21.885964,41.05236 22.619388,31.741254 21.394939,22.590857 20.008202,20.335861 16.312083,22.841295 14.465507,20.577569 11.086173,21.088506 5.0616637,23.728 3.1127385,20.585643 4.2956403,16.747404 14.444806,19.312895 9.29375,14.379945 7.8262743,9.3362592 15.65131,5.6425169 19.496974,8.2555633 c 1.843953,2.9448817 -6.71193,7.0112817 -3.718673,8.2574667 2.521556,-1.960843 6.482695,0.01893 6.089774,-4.829282 -0.574104,-6.1743355 5.862681,-5.6815852 10.236452,-5.6042602 16.146336,-0.3520976 32.322469,0.3875783 48.450909,-0.5292864 5.668387,-0.055777 9.438992,-5.58049365 15.159795,-5.48076422 5.283149,-1.46727038 9.733699,1.29991642 8.172749,7.08827602 0.8431,4.1134648 -5.899692,5.6104618 -1.72254,9.5784328 2.45648,5.678837 2.34368,12.575732 -0.27381,18.179621 -3.571315,5.500418 -9.84883,8.49974 -16.060054,9.936007 -3.943755,3.22019 -0.202159,10.51561 -4.830643,14.075733 -4.71896,4.951869 -12.199439,3.5467 -18.338924,4.016088 C 51.777231,62.838977 40.801308,63.469781 29.987056,62.036953 L 29.096399,61.735258 z M 88.803544,34.511853 c 2.371812,-1.130006 6.264712,-8.53773 0.865016,-5.560974 -3.902461,-0.109477 -8.335855,6.067392 -4.066127,7.781535 1.205603,-0.517398 2.194283,-1.404054 3.201111,-2.220561 z M 91.25,23.323386 c 2.408507,-3.332821 -3.016174,-10.679235 -6.724958,-8.709146 -0.613311,3.538666 -2.377466,12.670332 4.046052,9.542135 0.902141,-0.241192 1.826698,-0.440188 2.678906,-0.832989 z"
       id="path3008" />
    <path
       style="fill:#9ca5eb"
       d="M 5.7625707,77.434612 C 2.6782684,75.473614 -1.5744386,70.142013 0.91239517,66.86792 10.087882,65.615736 19.426703,66.247763 28.671725,66.017931 c 25.754256,0.09826 51.51789,-0.321795 77.265775,0.329256 4.1929,-0.731772 9.40434,1.443794 6.14524,6.217074 -2.03869,4.520987 -7.06882,6.005287 -11.66608,5.743874 -27.005219,1.176681 -54.062615,1.005138 -81.07849,0.277281 -4.511132,-0.295207 -9.159081,-0.12527 -13.5755993,-1.150804 z M 29.096399,61.735258 C 25.175942,59.54913 22.424628,55.433307 22.619763,50.852058 21.854717,41.959646 22.757351,32.934963 21.305109,24.114919 19.282027,18.421803 11.907572,21.596105 7.4087162,20.826157 4.7030799,21.358716 1.6030425,19.544691 6.0707878,19.081236 9.1079477,19.617007 13.73303,18.104478 9.7015352,14.950099 7.445084,10.397697 15.29064,6.0732893 18.677318,8.4089997 c 1.751207,3.1815833 -6.541271,9.4499673 -3.843732,3.4858633 2.330469,-3.7828015 -5.9694044,1.471753 -1.38374,3.434183 1.918339,2.678355 5.275626,-0.799786 7.303995,0.996212 C 22.976406,12.813512 20.338499,5.7048147 26.8923,6.393333 44.502971,5.4057731 62.174921,6.5724231 79.789571,5.625 c 6.011961,0.2527155 9.96933,-5.58804716 15.92566,-5.55556282 5.093639,-1.36421298 9.742939,1.04993132 8.161459,6.80680002 -0.15731,4.3317658 -5.877107,6.3159908 -1.3231,10.7228308 1.97467,5.80787 2.02733,12.769767 -1.19226,18.140161 -3.73198,4.969826 -9.601883,7.751137 -15.529767,9.112545 -3.943731,3.220205 -0.202151,10.515608 -4.83063,14.075733 -4.71896,4.951869 -12.199439,3.5467 -18.338924,4.016088 C 51.777231,62.838977 40.801308,63.469781 29.987056,62.036953 L 29.096399,61.735258 z M 88.803544,34.511853 c 2.371812,-1.130006 6.264712,-8.53773 0.865016,-5.560974 -3.902461,-0.109477 -8.335855,6.067392 -4.066127,7.781535 1.205603,-0.517398 2.194283,-1.404054 3.201111,-2.220561 z M 91.25,23.323386 c 2.408507,-3.332821 -3.016174,-10.679235 -6.724958,-8.709146 -0.613311,3.538666 -2.377466,12.670332 4.046052,9.542135 0.902141,-0.241192 1.826698,-0.440188 2.678906,-0.832989 z"
       id="path3006" />
    <path
       style="fill:#d959f5"
       d="M 8.9878134,78.15448 C 4.4138386,77.054651 0.32494444,73.052598 -0.10197094,68.321174 3.8881184,65.484712 9.5207032,66.705812 14.220293,66.158393 c 27.806384,-0.256244 55.618032,-0.224377 83.424808,-0.02846 4.971309,0.354878 10.310329,-0.345111 14.956629,1.701691 0.81492,4.205709 -2.73239,9.945052 -7.72261,9.773928 -14.198554,1.446244 -28.515526,0.781174 -42.766053,1.037381 -17.704899,-0.03462 -35.4379,0.277233 -53.1252536,-0.488448 z M 28.893269,61.503091 C 23.291505,59.260359 22.735433,52.695545 22.509901,47.511276 21.886595,39.714002 22.625679,31.796623 21.250751,24.077183 19.202556,18.434159 11.878164,21.594933 7.3935341,20.826134 4.6843731,21.359135 1.6154203,19.539501 6.0707878,19.081236 9.1079477,19.617007 13.73303,18.104478 9.7015352,14.950099 7.445084,10.397697 15.29064,6.0732893 18.677318,8.4089997 c 1.751207,3.1815833 -6.541271,9.4499673 -3.843732,3.4858633 2.330469,-3.7828015 -5.9694044,1.471753 -1.38374,3.434183 1.812536,2.827545 5.158005,-0.975231 7.3243,1.051076 0.977911,-4.636825 2.079061,-10.7219043 8.426901,-9.7270216 18.326968,-0.763396 36.707972,-0.020297 55.017736,-1.3071832 4.029471,-3.4956787 9.703284,-5.62356182 15.245179,-5.10020373 2.737318,-0.25885533 6.401938,0.73418208 2.114588,2.45872473 -2.120117,1.5550609 -7.542194,3.5520427 -7.568414,5.0635978 3.157323,-0.2388126 8.190084,-6.0412152 9.891824,-3.6664735 0.62786,3.6659383 -1.14201,6.8860515 -3.93741,8.6473605 1.6549,4.447616 4.5411,8.740698 3.90634,13.762688 -0.5345,7.780358 -6.027021,15.337332 -13.950628,16.826011 -7.250405,-0.04811 -5.376402,7.972017 -7.343874,12.602523 -1.946312,4.767746 -7.20953,6.76445 -12.045481,6.635741 C 57.325436,63.252753 44.009703,63.492267 30.850698,62.02495 30.1906,61.896192 29.504578,61.803701 28.893269,61.503091 z M 88.46036,35.434016 c 2.648862,-1.384498 6.777194,-10.013612 0.633332,-6.508229 -4.232964,-0.424211 -7.739882,7.693091 -2.789655,7.71617 0.762465,-0.321142 1.465415,-0.758572 2.156323,-1.207941 z m 1.335722,-11.512774 c 5.629933,-1.261939 0.05022,-8.725284 -3.118564,-9.807002 -4.486833,-0.100578 -2.665426,7.825149 -1.801852,10.549053 1.584377,0.764347 3.383903,-0.360741 4.920416,-0.742051 z"
       id="path3004" />
    <path
       style="fill:#6aa0fe"
       d="M 8.9878134,78.15448 C 4.4138386,77.054651 0.32494444,73.052598 -0.10197094,68.321174 3.8881184,65.484712 9.5207032,66.705812 14.220293,66.158393 c 27.806384,-0.256244 55.618032,-0.224377 83.424808,-0.02846 4.971309,0.354878 10.310329,-0.345111 14.956629,1.701691 0.81492,4.205709 -2.73239,9.945052 -7.72261,9.773928 -14.198554,1.446244 -28.515526,0.781174 -42.766053,1.037381 -17.704899,-0.03462 -35.4379,0.277233 -53.1252536,-0.488448 z M 28.893269,61.503091 C 23.284784,59.25773 22.735791,52.682978 22.509095,47.494353 21.919863,39.209552 22.463515,30.849611 21.428735,22.603236 20.479245,19.26862 15.504653,21.8183 13.953818,19.552816 c -2.081287,1.319571 -9.3906661,2.617779 -8.9423319,0.0589 2.4750115,-1.118801 9.4889539,0.493414 5.4658289,-4.005997 -4.5438206,-4.842063 6.907756,-10.6207919 8.42051,-5.6239328 -0.611452,2.8288358 -7.062022,5.9757538 -3.140201,1.1943388 -2.013507,-3.1478645 -5.8386984,4.265852 -1.817545,5.774068 1.977813,1.5307 6.614585,-3.225077 5.798682,1.73871 4.06435,-3.438798 0.193794,-12.0822227 6.875622,-12.3007861 19.269449,-0.9369243 38.60156,0.2020787 57.865233,-1.021499 3.545137,-2.5179494 7.572334,-5.56956092 12.333329,-5.17466753 2.448165,-0.0304437 10.260535,-0.1429199 4.775895,2.53547033 -2.907698,1.9616731 -11.324277,4.6912049 -4.433124,7.6670373 1.160051,0.600427 -2.88521,-3.7738758 0.844989,-4.1372848 2.449775,-1.7225724 7.383795,-4.737009 5.967705,0.8074311 0.35808,3.2635797 -3.80952,5.0806337 -4.776123,4.4911637 2.699903,5.596009 6.146193,11.652477 4.205353,18.10536 -1.5883,6.586288 -6.643931,12.376585 -13.477408,13.676491 -7.250388,-0.04809 -5.376363,7.972031 -7.343844,12.602523 -1.946312,4.767746 -7.20953,6.76445 -12.045481,6.635741 C 57.325436,63.252753 44.009703,63.492267 30.850698,62.02495 30.1906,61.896192 29.504578,61.803701 28.893269,61.503091 z M 88.46036,35.434016 c 2.648862,-1.384498 6.777194,-10.013612 0.633332,-6.508229 -4.232964,-0.424211 -7.739882,7.693091 -2.789655,7.71617 0.762465,-0.321142 1.465415,-0.758572 2.156323,-1.207941 z m 1.335722,-11.512774 c 5.629933,-1.261939 0.05022,-8.725284 -3.118564,-9.807002 -4.486833,-0.100578 -2.665426,7.825149 -1.801852,10.549053 1.584377,0.764347 3.383903,-0.360741 4.920416,-0.742051 z"
       id="path3002" />
    <path
       style="fill:#f708fd"
       d="M 9.4933092,78.137193 C 4.6609158,77.282688 0.3796987,73.000747 8.7628127e-4,68.088964 3.4156663,64.926068 9.0539673,66.480558 13.449519,66.003415 c 5.195833,0.183493 10.509072,-0.464777 15.620895,0.533692 0.326079,1.600187 -3.857826,4.654499 -0.18993,2.047292 3.839101,-3.199441 9.243702,-2.055582 13.866166,-2.461992 20.895663,-0.04172 41.80266,-0.270573 62.69114,0.325644 4.69818,-0.683344 10.42189,1.91383 5.66695,6.749322 -0.83067,3.44951 -10.15426,7.838524 -8.38157,1.802627 -1.94059,3.581534 -6.819347,3.472347 -9.333965,1.492737 -4.019407,2.84224 -9.815318,1.169325 -14.541736,1.654312 -3.425943,0.375671 -7.616425,-0.451515 -9.527747,-1.103822 -3.618364,3.218231 -8.559805,0.877268 -11.793627,-0.001 -3.928541,1.669092 -8.951673,0.928993 -13.328341,1.238748 -9.22336,0.05729 -18.442038,-0.485572 -27.652969,0.207123 -2.351362,0.0053 -4.724401,0.03157 -7.0514758,-0.350902 z M 11.717581,70.26375 c -0.912252,-1.816524 -0.314506,9.430229 0.155585,3.278266 0.03437,-1.094078 0.0011,-2.193807 -0.155585,-3.278266 z M 86.705733,70.75 c -0.977873,-1.132047 -0.210942,8.694906 0.167592,2.858643 0.03133,-0.954976 3.26e-4,-1.915691 -0.167592,-2.858643 z m -52.583848,3.346491 c -1.683293,-1.050504 0.716695,-4.681984 -1.901371,-1.665854 -1.988405,2.289727 4.294227,3.616586 1.901371,1.665854 z M 63,71 c 3.06059,-3.122379 -8.381406,2.170894 -1.5,0.684621 L 62.299219,71.37639 63,71 z M 28.893269,61.503091 C 23.284784,59.25773 22.735791,52.682978 22.509095,47.494353 21.919863,39.209552 22.463515,30.849611 21.428735,22.603236 20.479245,19.26862 15.504653,21.8183 13.953818,19.552816 c -2.081287,1.319571 -9.3906661,2.617779 -8.9423319,0.0589 2.4750115,-1.118801 9.4889539,0.493414 5.4658289,-4.005997 -4.5438206,-4.842063 6.907756,-10.6207919 8.42051,-5.6239328 -0.611452,2.8288358 -7.062022,5.9757538 -3.140201,1.1943388 -2.013507,-3.1478645 -5.8386984,4.265852 -1.817545,5.774068 1.977813,1.5307 6.614585,-3.225077 5.798682,1.73871 4.06435,-3.438798 0.193794,-12.0822227 6.875622,-12.3007861 19.269449,-0.9369243 38.60156,0.2020787 57.865233,-1.021499 3.646546,-2.9031065 8.492491,-5.79231487 13.519462,-5.2788505 0.261013,2.3347761 -8.456463,3.716699 -7.41905,6.8425484 2.104728,-0.8768892 7.270961,4.8752022 6.484274,2.7167513 -2.560424,-3.1785785 4.776138,-5.8384537 6.790678,-5.7677322 1.54839,3.7910726 -2.27512,8.8765431 -4.662693,7.6764331 2.699903,5.596009 6.146193,11.652477 4.205353,18.10536 -1.5883,6.586288 -6.643931,12.376585 -13.477408,13.676491 -7.250388,-0.04809 -5.376363,7.972031 -7.343844,12.602523 -1.946312,4.767746 -7.20953,6.76445 -12.045481,6.635741 C 57.325436,63.252753 44.009703,63.492267 30.850698,62.02495 30.1906,61.896192 29.504578,61.803701 28.893269,61.503091 z M 63.304351,60.25472 c -7.843534,-0.175183 -15.699939,-0.244087 -23.538096,0.123653 8.599888,0.313927 17.245331,0.299152 25.839844,0.0018 -0.763929,-0.09149 -1.534347,-0.09112 -2.301748,-0.125486 z M 79.411106,56.923275 C 82.555586,53.987179 83.100335,46.6104 79.17014,45.32459 c 3.190637,3.484253 2.029972,10.140382 -2.063503,12.429141 -5.058298,1.21333 -10.347528,0.2874 -15.497364,0.647219 4.977288,0.476225 10.082434,1.075969 15.012808,1.242312 1.065479,-0.754227 1.941601,-1.73719 2.789025,-2.719987 z M 72,55.242794 C 68.760163,54.242442 64.050367,54.849737 61.252623,55.612338 64.759356,55.828835 68.638997,56.366859 72,55.242794 z M 24.744131,29.295706 c -0.357137,-4.123984 -0.343187,4.674165 -0.343613,6.445606 0.07099,2.913168 -0.150753,8.374598 0.271978,9.695432 0.299768,-5.372619 0.256815,-10.764979 0.07164,-16.141038 z m 23.089202,18.368191 c 0.611224,-2.329252 6.426867,-7.384662 1.570246,-3.607588 -2.484873,-0.289793 -2.649613,7.759511 -1.570246,3.607588 z M 63.729798,36.272304 c -0.620905,-1.270322 -0.499335,5.822512 -0.163381,7.70091 0.500971,-2.5182 0.340719,-5.153217 0.163381,-7.70091 z m -25.524241,3.780509 c 0.541975,-5.916709 -2.716035,2.211013 -0.634854,2.714636 0.342676,-0.868399 0.487948,-1.797835 0.634854,-2.714636 z M 73.841879,37 c -0.798022,-1.552483 -4.19418,-4.680127 -1.825342,-1.076109 1.010532,1.704933 6.634299,7.807437 1.825342,1.076109 z m 14.555443,-1.49977 c 0.743468,-0.731454 5.813847,-1.438393 3.757186,-2.095722 -3.19029,1.224562 3.392947,-7.710648 -2.203484,-4.813813 -4.019324,0.09312 -8.783826,5.824622 -4.260289,8.298829 1.027196,-0.158514 1.888911,-0.794312 2.706587,-1.389294 z M 32.705733,25.75 c -0.977873,-1.132047 -0.210942,8.694906 0.167592,2.858643 0.03133,-0.954976 3.26e-4,-1.915691 -0.167592,-2.858643 z m 58.429457,0.789142 c 7.042945,-2.633299 -7.773732,-1.172945 -3.50457,1.357911 1.228224,-0.269748 2.344788,-0.891632 3.50457,-1.357911 z M 63.723396,16.75 c -0.607134,-1.573729 -0.607134,8.073729 0,6.5 0.227302,-2.1563 0.227296,-4.343765 0,-6.5 z m 26.072686,7.171242 c 5.629933,-1.261939 0.05022,-8.725284 -3.118564,-9.807002 -4.486833,-0.100578 -2.665426,7.825149 -1.801852,10.549053 1.584377,0.764347 3.383903,-0.360741 4.920416,-0.742051 z M 101.53765,20.25 c -0.23595,-2.546135 -3.246596,-5.697775 -1.39001,-1.328113 0.21619,1.607275 0.42432,6.336801 1.61158,2.524532 l -0.082,-0.556451 L 101.53765,20.25 z M 29.552786,18.08541 c 0.485115,-1.773954 2.020377,-2.725911 -0.980448,-1.161602 -3.473843,1.696559 0.947716,3.226263 0.980448,1.161602 z m 67.86339,-5.178034 C 96.012759,10.860628 90.642312,8.1250874 95,11.849645 c 1.292934,1.408861 5.83654,4.686222 2.416176,1.057731 l 0,0 z M 82,13 c 0.127669,-2.392363 -5.982671,-6.0858929 -5.832493,-4.2798177 3.021567,0.3001506 4.135807,3.7748327 5.693574,5.1205477 L 82,13 z m 2,-3 c -1.31678,-1.8189107 -4.111872,-2.5433912 -1.5,0 1.154229,1.819509 4.500058,2.927335 1.5,0 z M 97.419684,2.9487984 c 1.16865,-1.6424516 8.315816,-3.66580885 4.026356,-0.7210429 -2.306405,1.0607629 -5.502877,3.8513847 -7.554769,3.3963763 0.998242,-1.1000452 2.300967,-1.8626377 3.528413,-2.6753334 z"
       id="path3000" />
    <path
       style="fill:#6598fe"
       d="M 9.4933092,78.137193 C 4.6609158,77.282688 0.3796987,73.000747 8.7628127e-4,68.088964 3.4156663,64.926068 9.0539673,66.480558 13.449519,66.003415 c 5.195833,0.183493 10.509072,-0.464777 15.620895,0.533692 0.326079,1.600187 -3.857826,4.654499 -0.18993,2.047292 3.839101,-3.199441 9.243702,-2.055582 13.866166,-2.461992 20.895663,-0.04172 41.80266,-0.270573 62.69114,0.325644 4.69818,-0.683344 10.42189,1.91383 5.66695,6.749322 -0.83067,3.44951 -10.15426,7.838524 -8.38157,1.802627 -1.94059,3.581534 -6.819347,3.472347 -9.333965,1.492737 -4.019407,2.84224 -9.815318,1.169325 -14.541736,1.654312 -3.425943,0.375671 -7.616425,-0.451515 -9.527747,-1.103822 -3.618364,3.218231 -8.559805,0.877268 -11.793627,-0.001 -3.928541,1.669092 -8.951673,0.928993 -13.328341,1.238748 -9.22336,0.05729 -18.442038,-0.485572 -27.652969,0.207123 -2.351362,0.0053 -4.724401,0.03157 -7.0514758,-0.350902 z M 11.717581,70.26375 c -0.912252,-1.816524 -0.314506,9.430229 0.155585,3.278266 0.03437,-1.094078 0.0011,-2.193807 -0.155585,-3.278266 z M 86.705733,70.75 c -0.977873,-1.132047 -0.210942,8.694906 0.167592,2.858643 0.03133,-0.954976 3.26e-4,-1.915691 -0.167592,-2.858643 z m -52.583848,3.346491 c -1.683293,-1.050504 0.716695,-4.681984 -1.901371,-1.665854 -1.988405,2.289727 4.294227,3.616586 1.901371,1.665854 z M 63,71 c 3.06059,-3.122379 -8.381406,2.170894 -1.5,0.684621 L 62.299219,71.37639 63,71 z M 28.893269,61.503091 C 23.341211,59.276072 22.738993,52.772086 22.513586,47.621184 22.25262,39.748991 21.693692,31.831799 22.311155,23.971218 c 1.515713,-6.035625 9.623726,-1.384865 13.722356,-3.665513 2.602698,-2.101006 1.023145,-0.638644 1.731365,0.65955 2.033509,-0.654583 2.986927,-2.948521 4.066242,-0.241749 3.861598,2.488453 8.722125,-4.276975 4.531372,-5.313421 -1.640031,1.428778 -2.082339,6.959153 -3.143578,2.098596 -2.158495,-2.607459 -7.296964,0.451036 -8.829251,-4.137593 -1.411947,-3.5886492 -4.756133,-1.287975 -2.482891,1.372427 4.996358,-1.99078 0.649279,5.71312 -0.773372,1.345053 -2.39305,0.236422 -3.059207,-3.868392 -4.542695,-0.384921 -3.526802,0.999314 -1.452694,-2.692139 -1.132837,-3.771821 -1.526906,-1.0281 -4.87431,0.247571 -2.888315,-3.050199 C 25.40696,4.4365652 32.091718,6.7932779 36.664174,6.0497862 52.601226,5.8548015 68.562276,6.317446 84.479616,5.3666209 88.126162,2.4635144 92.972107,-0.42569397 97.999078,0.0877704 98.727351,2.2696239 86.303254,5.0350576 92.25,7.3603432 c 6.575926,2.3938675 10.35055,9.4919478 11.56501,16.0456618 0.69212,6.277273 -2.31509,12.799707 -6.98248,16.919086 -3.512091,3.49385 -10.743205,1.780689 -12.518974,6.76391 -0.463989,5.235251 -1.284125,11.551666 -6.673375,14.057318 -4.594958,2.007188 -9.885995,1.366434 -14.794386,1.801992 -10.940562,0.124321 -21.981399,0.47424 -32.83917,-1.085807 l -0.656921,-0.173963 -0.456435,-0.18545 z M 63.304351,60.25472 c -7.843534,-0.175183 -15.699939,-0.244087 -23.538096,0.123653 8.599888,0.313927 17.245331,0.299152 25.839844,0.0018 -0.763929,-0.09149 -1.534347,-0.09112 -2.301748,-0.125486 z M 79.411106,56.923275 C 82.555586,53.987179 83.100335,46.6104 79.17014,45.32459 c 3.190637,3.484253 2.029972,10.140382 -2.063503,12.429141 -5.058298,1.21333 -10.347528,0.2874 -15.497364,0.647219 4.977288,0.476225 10.082434,1.075969 15.012808,1.242312 1.065479,-0.754227 1.941601,-1.73719 2.789025,-2.719987 z M 72,55.242794 C 68.760163,54.242442 64.050367,54.849737 61.252623,55.612338 64.759356,55.828835 68.638997,56.366859 72,55.242794 z M 24.744131,29.295706 c -0.357137,-4.123984 -0.343187,4.674165 -0.343613,6.445606 0.07099,2.913168 -0.150753,8.374598 0.271978,9.695432 0.299768,-5.372619 0.256815,-10.764979 0.07164,-16.141038 z m 23.089202,18.368191 c 0.611224,-2.329252 6.426867,-7.384662 1.570246,-3.607588 -2.484873,-0.289793 -2.649613,7.759511 -1.570246,3.607588 z M 63.729798,36.272304 c -0.620905,-1.270322 -0.499335,5.822512 -0.163381,7.70091 0.500971,-2.5182 0.340719,-5.153217 0.163381,-7.70091 z m -25.524241,3.780509 c 0.541975,-5.916709 -2.716035,2.211013 -0.634854,2.714636 0.342676,-0.868399 0.487948,-1.797835 0.634854,-2.714636 z M 73.841879,37 c -0.798022,-1.552483 -4.19418,-4.680127 -1.825342,-1.076109 1.010532,1.704933 6.634299,7.807437 1.825342,1.076109 z m 14.555443,-1.49977 c 0.743468,-0.731454 5.813847,-1.438393 3.757186,-2.095722 -3.19029,1.224562 3.392947,-7.710648 -2.203484,-4.813813 -4.019324,0.09312 -8.783826,5.824622 -4.260289,8.298829 1.027196,-0.158514 1.888911,-0.794312 2.706587,-1.389294 z M 32.705733,25.75 c -0.977873,-1.132047 -0.210942,8.694906 0.167592,2.858643 0.03133,-0.954976 3.26e-4,-1.915691 -0.167592,-2.858643 z m 58.429457,0.789142 c 7.042945,-2.633299 -7.773732,-1.172945 -3.50457,1.357911 1.228224,-0.269748 2.344788,-0.891632 3.50457,-1.357911 z M 63.723396,16.75 c -0.607134,-1.573729 -0.607134,8.073729 0,6.5 0.227302,-2.1563 0.227296,-4.343765 0,-6.5 z m 26.072686,7.171242 c 5.629933,-1.261939 0.05022,-8.725284 -3.118564,-9.807002 -4.486833,-0.100578 -2.665426,7.825149 -1.801852,10.549053 1.584377,0.764347 3.383903,-0.360741 4.920416,-0.742051 z M 101.53765,20.25 c -0.23595,-2.546135 -3.246596,-5.697775 -1.39001,-1.328113 0.21619,1.607275 0.42432,6.336801 1.61158,2.524532 l -0.082,-0.556451 L 101.53765,20.25 z M 97.416176,12.907376 C 96.012759,10.860628 90.642312,8.1250874 95,11.849645 c 1.292934,1.408861 5.83654,4.686222 2.416176,1.057731 l 0,0 z M 82,13 c 0.127669,-2.392363 -5.982671,-6.0858929 -5.832493,-4.2798177 3.021567,0.3001506 4.135807,3.7748327 5.693574,5.1205477 L 82,13 z m 2,-3 c -1.31678,-1.8189107 -4.111872,-2.5433912 -1.5,0 1.154229,1.819509 4.500058,2.927335 1.5,0 z M 97.419684,2.9487984 c 1.16865,-1.6424516 8.315816,-3.66580885 4.026356,-0.7210429 -2.306405,1.0607629 -5.502877,3.8513847 -7.554769,3.3963763 0.998242,-1.1000452 2.300967,-1.8626377 3.528413,-2.6753334 z"
       id="path2998" />
    <path
       style="fill:#7b74f3"
       d="M 9.4933092,78.064321 C 4.3361021,77.593288 -1.0208358,71.682509 0.94820225,66.711124 c 4.63703135,-1.26657 9.60711275,-0.006 14.31456875,0.411793 3.291645,-0.183423 0.677575,4.526111 4.247371,1.637075 3.901448,-1.223308 8.214122,4.451477 10.733098,-1.218999 4.354906,-1.783456 9.303535,-0.824814 13.909192,-0.938419 3.132963,-0.393583 6.383719,1.262625 3.167014,4.166081 -2.006571,7.689219 7.268992,2.146217 8.44268,-1.619863 0.319943,-5.545555 7.896326,-2.12799 11.578838,-2.787362 3.712318,-0.771775 4.293371,2.203637 3.929293,4.911582 3.216958,-3.791439 7.607523,-6.041948 12.705446,-5.101756 4.890913,0.425773 10.186466,-0.643551 14.797298,1.323333 4.542139,2.602545 4.254059,11.486673 -2.190759,10.49111 C 93.98,77.142771 99.48794,70.725994 93.900542,71 c -4.40798,0.159693 1.782482,9.179035 -4.977411,6.990234 -4.421339,-0.568745 1.439141,-9.364989 -2.261296,-9.635859 -1.551003,3.658355 1.4218,11.515195 -5.406123,9.730831 -4.07529,0.963546 -8.025289,-0.829064 -10.858723,-2.546192 -3.490462,3.694696 -9.225247,2.528919 -13.37233,0.82655 -5.488192,2.499558 -11.838608,1.231184 -17.723981,1.565435 -4.733279,0.650389 -9.19876,0.418452 -13.521716,-1.163922 -3.567189,2.74263 -8.611122,1.73362 -12.848539,1.742031 -1.151624,-0.09522 -2.30084,-0.232516 -3.4371138,-0.444787 z M 12,72.440983 c 0.805794,-2.045106 -1.679721,-6.123382 -1.349337,-1.908958 0.227911,2.109819 -3.1120084,1.279708 0.02192,3.175353 -0.0044,1.741864 0.939824,5.13118 1.24172,1.278017 0.06193,-0.846607 0.08498,-1.695688 0.08569,-2.544412 z m 9.823324,1.891883 c -0.516433,-4.708694 -8.328548,0.551851 -2.20105,1.449671 1.054403,0.495856 2.63512,-0.03575 2.20105,-1.449671 z M 42.705733,69.75 c -0.977873,-1.132047 -0.210942,8.694906 0.167592,2.858643 0.03133,-0.954976 3.26e-4,-1.915691 -0.167592,-2.858643 z m -5.886182,2.5 C 37.041422,66.032085 28.032085,75.041422 34.25,74.819551 35.587244,74.70465 36.70465,73.587244 36.819551,72.25 z M 66,72.5 C 67.336933,67.131204 53.732232,72.296706 60.712622,72.075365 62.804315,72.900457 65.153571,78.027057 66,72.5 z m 14.8,1.3 C 84.904312,69.180749 76.206276,69.108433 76.104622,73.714765 75.529143,76.23524 79.935236,74.63938 80.8,73.8 z M 103.13301,72 c -2.29953,-6.415312 5.95419,-7.830939 9.53125,-4.432539 0.54863,4.380492 -4.40409,11.428697 -8.96818,9.825673 C 102.99253,75.705118 103.2225,73.785892 103.13301,72 z M 28.893269,61.503091 C 23.341211,59.276072 22.738993,52.772086 22.513586,47.621184 22.190853,39.110753 21.707906,30.553887 22.40485,22.054603 c 1.391175,-2.281826 1.251632,4.859155 1.474326,6.518485 0.618889,8.546458 -0.104949,17.198544 1.175613,25.683901 1.496325,4.522334 6.495357,6.904486 11.061841,6.589256 12.007736,0.167392 24.052298,0.475354 36.040203,-0.358452 5.578164,0.308925 10.020522,-4.346284 9.9,-9.855656 -0.03401,-3.741614 -4.71136,-9.089423 -8.213637,-7.745253 -4.066343,4.34509 0.181776,9.628257 1.156804,14.23524 -4.691231,1.398907 -9.895396,0.780569 -14.788955,0.739654 -3.484284,0.290927 -0.599239,-4.834756 -4.832157,-4.330982 -5.038924,-1.570303 -10.334652,-1.537111 -15.530015,-1.816809 -7.256587,-0.864925 -12.132165,-9.119311 -9.406556,-15.897191 3.644499,-3.908453 1.442028,-9.733856 3.872307,-13.966755 1.573718,-1.506467 3.701164,-3.660493 3.450252,-0.884785 2.033509,-0.654583 2.986927,-2.948521 4.066242,-0.241749 3.861598,2.488453 8.722125,-4.276975 4.531372,-5.313421 -1.640559,1.437817 -2.085651,6.958973 -3.145871,2.090068 -0.812569,-2.646106 -7.367985,0.172851 -6.696277,-2.236153 4.007646,-0.294405 6.836303,-7.0163253 11.417885,-4.106151 5.749883,2.329573 2.715573,8.803181 4.330406,12.719593 4.263574,0.457438 8.368974,-4.145629 8.216068,-8.286664 C 60.125316,10.750527 55.809404,7.3605879 51.045226,7.6949224 42.905217,7.1552951 34.668913,6.5992004 26.541571,7.5041642 23.411436,6.8474457 25.001785,13.33566 22.058416,10.919411 22.417807,4.549167 30.194388,6.6081609 34.507919,6.0765668 51.163155,5.8179252 67.843922,6.355826 84.479616,5.3666209 88.126162,2.4635144 92.972107,-0.42569397 97.999078,0.0877704 98.727351,2.2696239 86.303254,5.0350576 92.25,7.3603432 c 6.575926,2.3938675 10.35055,9.4919478 11.56501,16.0456618 0.69212,6.277273 -2.31509,12.799707 -6.98248,16.919086 -3.512091,3.49385 -10.743205,1.780689 -12.518974,6.76391 -0.463989,5.235251 -1.284125,11.551666 -6.673375,14.057318 -4.594958,2.007188 -9.885995,1.366434 -14.794386,1.801992 -10.940562,0.124321 -21.981399,0.47424 -32.83917,-1.085809 l -0.656921,-0.173962 -0.456435,-0.185451 0,2e-6 z M 71.448973,52.532119 C 69.75347,46.866286 69.714265,40.714867 70.352785,34.894117 c 3.759931,3.29778 8.28278,8.412027 14.391456,7.904093 7.867411,0.402183 14.917486,-5.462377 17.058149,-12.836691 -1.75912,-4.275401 -9.582783,-1.672914 -9.906116,3.078195 -2.364126,3.988593 -7.620209,6.607879 -11.73973,3.432284 C 77.256743,35.477917 74.204071,32.434816 78.978162,31.634616 86.53141,28.096305 94.80825,26.029186 102,21.808345 100.6922,15.412306 95.780909,9.698845 89.32976,8.0743774 86.712034,6.4812725 78.406217,6.4075706 82.946167,11.015254 c 3.086543,2.131251 8.082914,3.100123 9.429886,7.966565 1.743076,2.76996 2.411798,6.244532 -2.089107,6.024677 -5.960123,1.004663 -12.132124,1.410344 -18.126112,0.594328 -3.905055,-2.387086 -1.515355,-8.291108 -2.074709,-12.138734 0.328281,-5.3439719 6.342663,-0.186694 4.298866,3.176826 -1.128868,3.271422 -2.279768,9.952518 3.262788,6.540071 5.136155,-2.408242 7.518298,-9.575669 2.064717,-13.171454 -4.550437,-4.1662729 -13.68173,-3.8032369 -15.771323,2.798139 -2.428609,3.929215 1.581535,11.256353 -3.850856,12.892804 -8.362009,0.928415 -17.880958,0.498743 -24.55387,6.523112 -4.430459,3.590808 -5.750727,10.952637 -1.15503,14.998632 3.558668,3.706968 9.923781,4.752477 13.864938,1.015353 1.469144,-1.742206 3.832462,-3.19888 2.343564,0.224238 1.432601,2.622047 8.462744,2.256695 10.470928,-0.06162 0.922663,-5.355416 -0.817829,-10.926621 0.479724,-16.24199 2.317531,3.176977 1.415614,9.188018 1.738046,13.465388 1.560554,3.8178 -3.550975,7.322591 -2.033589,10.083936 3.000081,-0.345635 11.010978,2.317117 10.669685,-2.028736 l -0.212251,-0.534237 -0.253489,-0.610435 0,0 z M 40.086658,45.086658 c -3.336621,-2.933523 -2.185514,-8.766731 1.912391,-10.3861 3.049377,-1.82809 11.934644,-5.508084 10.902604,1.097968 -0.745941,4.835296 -3.506008,11.022896 -9.268624,10.815537 -1.316464,-0.05138 -2.617416,-0.584255 -3.546371,-1.527405 z M 88.46036,35.434016 c 2.648862,-1.384498 6.777194,-10.013612 0.633332,-6.508229 -4.232964,-0.424211 -7.739882,7.693091 -2.789655,7.71617 0.762465,-0.321142 1.465415,-0.758572 2.156323,-1.207941 z m 1.335722,-11.512774 c 5.629933,-1.261939 0.05022,-8.725284 -3.118564,-9.807002 -4.486833,-0.100578 -2.665426,7.825149 -1.801852,10.549053 1.584377,0.764347 3.383903,-0.360741 4.920416,-0.742051 z m -58.116157,-7.31296 c -0.518671,-4.043559 5.592618,-1.126084 1.242214,0.778405 -0.5682,0.433683 -1.157669,-0.287596 -1.242214,-0.778405 z m -2.98719,-1.966618 c -0.70403,-2.612811 5.237064,-2.854163 1.640062,-0.140916 -0.637073,0.880543 -1.140825,2.144488 -1.640062,0.140916 z"
       id="path2996" />
    <path
       style="fill:#5782fe"
       d="M 9.2561634,77.970541 C 4.3729804,77.362009 1.1462764,72.821002 0.43824622,68.23797 2.5287893,64.083894 9.1651976,67.12062 13.01661,66.801387 c 1.887131,0.157809 5.23203,0.385118 4.192522,2.93396 3.824703,-4.099981 8.821551,3.375753 11.811265,-1.008063 3.574187,-3.630187 9.353811,-1.764519 13.938654,-2.17607 3.040587,-0.271223 8.166415,0.629979 4.360395,4.217441 -2.006571,7.689219 7.268992,2.146217 8.44268,-1.619863 0.319943,-5.545555 7.896326,-2.12799 11.578838,-2.787362 3.712318,-0.771775 4.293371,2.203637 3.929293,4.911582 3.216958,-3.791439 7.607523,-6.041948 12.705446,-5.101756 4.890913,0.425773 10.186466,-0.643551 14.797298,1.323333 4.542139,2.602545 4.254059,11.486673 -2.190759,10.49111 C 93.98,77.142771 99.48794,70.725994 93.900542,71 c -4.40798,0.159693 1.782482,9.179035 -4.977411,6.990234 -4.421339,-0.568745 1.439141,-9.364989 -2.261296,-9.635859 -1.551003,3.658355 1.4218,11.515195 -5.406123,9.730831 -4.07529,0.963546 -8.025289,-0.829064 -10.858723,-2.546192 -3.490462,3.694696 -9.225247,2.528919 -13.37233,0.82655 -5.488192,2.499558 -11.838608,1.231184 -17.723981,1.565435 -4.733279,0.650389 -9.19876,0.418452 -13.521716,-1.163922 -3.657633,2.803287 -8.822466,1.773122 -13.159839,1.712616 -1.128731,-0.110913 -2.25434,-0.266545 -3.3629596,-0.509152 z M 12,72.440983 c 0.805794,-2.045106 -1.679721,-6.123382 -1.349337,-1.908958 0.227911,2.109819 -3.1120084,1.279708 0.02192,3.175353 -0.0044,1.741864 0.939824,5.13118 1.24172,1.278017 0.06193,-0.846607 0.08498,-1.695688 0.08569,-2.544412 z m 9.823324,1.891883 c -0.516433,-4.708694 -8.328548,0.551851 -2.20105,1.449671 1.054403,0.495856 2.63512,-0.03575 2.20105,-1.449671 z M 42.705733,69.75 c -0.977873,-1.132047 -0.210942,8.694906 0.167592,2.858643 0.03133,-0.954976 3.26e-4,-1.915691 -0.167592,-2.858643 z m -5.886182,2.5 C 37.041422,66.032085 28.032085,75.041422 34.25,74.819551 35.587244,74.70465 36.70465,73.587244 36.819551,72.25 z M 66,72.5 C 67.336933,67.131204 53.732232,72.296706 60.712622,72.075365 62.804315,72.900457 65.153571,78.027057 66,72.5 z m 14.8,1.3 C 84.904312,69.180749 76.206276,69.108433 76.104622,73.714765 75.529143,76.23524 79.935236,74.63938 80.8,73.8 z M 103.13301,72 c -2.29953,-6.415312 5.95419,-7.830939 9.53125,-4.432539 0.54863,4.380492 -4.40409,11.428697 -8.96818,9.825673 C 102.99253,75.705118 103.2225,73.785892 103.13301,72 z M 29.314715,61.536343 C 23.436335,59.6244 23.394153,52.641615 23.228677,47.56359 23.064553,38.542816 23.326614,29.521018 23.387813,20.5 c 0.431564,10.608607 0.449971,21.242813 1.286691,31.827948 0.33659,5.183397 5.71084,8.767416 10.645562,8.476575 12.271102,0.245448 24.583737,0.509649 36.836767,-0.31673 5.578164,0.308925 10.020522,-4.346284 9.9,-9.855656 -0.03401,-3.741614 -4.71136,-9.089423 -8.213637,-7.745253 -4.066343,4.34509 0.181776,9.628257 1.156804,14.23524 -4.691231,1.398907 -9.895396,0.780569 -14.788955,0.739654 -3.484284,0.290927 -0.599239,-4.834756 -4.832157,-4.330982 -5.038924,-1.570303 -10.334652,-1.537111 -15.530015,-1.816809 -7.256587,-0.864925 -12.132165,-9.119311 -9.406556,-15.897191 3.81047,-3.980117 1.060521,-10.175377 4.493689,-14.186048 1.548199,-1.423856 2.781156,-3.028708 2.828745,-0.666113 2.03394,-0.653072 2.986913,-2.948282 4.066367,-0.241128 3.861598,2.488453 8.722125,-4.276975 4.531372,-5.313421 -1.637607,1.385451 -2.066779,6.960873 -3.132533,2.140123 -0.550279,-2.896851 -7.667963,0.515821 -3.924726,-3.351694 2.808007,-4.16108 9.086218,-5.1296704 11.652494,-0.158539 2.582066,2.917212 -2.292099,12.889496 4.873801,9.127054 3.579858,-2.115159 6.147953,-6.784444 3.713143,-10.701258 C 57.740257,7.5712049 51.946026,7.7467403 47.629973,7.4245627 40.415256,7.2619904 33.07198,6.3948795 25.929835,7.7022199 23.760331,8.3563112 22.670586,12.28312 23.600212,7.839198 27.654492,5.8295551 32.622774,6.8241139 37.063425,6.4134223 52.065587,6.0390652 67.103265,6.5395514 82.081543,5.5460483 87.622725,5.2854516 91.380409,-0.96561381 97.207087,0.26324883 96.803982,3.195767 87.906105,3.9994785 89.952174,6.9321078 c 4.982586,0.7239311 8.66304,5.2605912 11.305106,9.2420212 5.23046,8.46898 2.08047,20.940421 -7.002982,25.367603 C 90.876121,44.864695 82.310966,41.836259 83.996262,48.75 84.313792,55.206844 79.666946,62.330799 72.705597,62.290486 59.336705,63.366744 45.840374,63.406979 32.479423,62.200649 31.415871,62.043938 30.324255,61.93007 29.314715,61.536343 z M 71.448973,52.532119 C 69.75347,46.866286 69.714265,40.714867 70.352785,34.894117 c 3.759931,3.29778 8.28278,8.412027 14.391456,7.904093 7.866271,0.402118 14.914841,-5.460391 17.057129,-12.83307 -1.21178,-4.535441 -9.536792,-0.961359 -9.552226,1.550485 2.783776,-6.264286 -8.303768,-2.205282 -8.218374,1.561201 -1.648311,7.324676 7.368866,0.825058 7.240474,0.856393 -3.203589,4.473315 -9.051199,4.957487 -13.14237,1.382063 -5.305049,-3.483929 5.02829,-4.723712 7.632135,-6.494439 C 91.197045,26.577883 96.996037,24.907768 102,21.808345 100.69114,15.409507 95.775989,9.6915083 89.319779,8.0713785 86.837851,6.586711 78.521249,6.3074816 82.796029,10.828812 c 2.082644,4.319569 0.356049,9.347862 1.821386,13.724462 2.649981,2.316106 8.249608,-3.258233 9.083843,-0.966741 -4.942956,2.699165 -10.934887,2.223261 -16.408442,2.411619 C 72.097726,27.322225 68.675211,23.492127 70,18.430449 c -0.578049,-3.010013 0.170259,-10.5780201 4.160771,-5.73423 2.357432,3.357398 -4.236325,11.474556 1.693698,11.247087 4.346311,-1.511732 9.371888,-6.803044 5.984888,-11.501746 -3.41337,-5.7558108 -13.327673,-7.4441082 -17.150364,-1.254684 -3.230711,4.142526 0.205279,10.482708 -3.282651,14.105176 -6.256264,1.52444 -13.000448,0.588251 -19.111872,3.019584 -6.121101,1.907042 -12.471081,7.906211 -10.43238,14.874959 2.024532,6.448273 11.142801,10.029574 16.384265,5.048978 1.469144,-1.742206 3.832462,-3.19888 2.343564,0.224238 1.432601,2.622047 8.462744,2.256695 10.470928,-0.06162 0.922663,-5.355416 -0.817829,-10.926621 0.479724,-16.24199 2.317531,3.176977 1.415614,9.188018 1.738046,13.465388 1.560554,3.8178 -3.550975,7.322591 -2.033589,10.083936 3.000081,-0.345635 11.010978,2.317117 10.669685,-2.028736 L 71.702462,53.142554 71.448973,52.532119 z M 40.086658,45.086658 c -3.336621,-2.933523 -2.185514,-8.766731 1.912391,-10.3861 3.049377,-1.82809 11.934644,-5.508084 10.902604,1.097968 -0.745941,4.835296 -3.506008,11.022896 -9.268624,10.815537 -1.316464,-0.05138 -2.617416,-0.584255 -3.546371,-1.527405 z M 88,14.857169 c -1.83985,-1.356945 -3.641185,-3.454796 -0.371181,-1.496344 2.758253,0.321435 6.100628,7.046098 1.725994,2.678823 L 88.723086,15.489341 88,14.857169 z"
       id="path2994" />
    <path
       style="fill:#496afd"
       d="m 16.75,78.195209 c -6.297122,1.073402 -5.189432,-7.058898 -4.078383,-10.827995 4.027973,-2.436423 3.923473,4.271389 7.553543,1.341241 4.182494,0.357068 7.669104,3.456317 10.755761,-1.018351 5.000082,-2.438445 10.758675,-1.064742 16.046988,-0.698026 1.737392,2.538716 -2.379407,10.98781 3.47032,7.281319 3.984458,-0.901025 5.398521,-4.571323 6.96884,-7.427587 4.419455,-0.268833 9.420032,-1.081701 13.566304,0.508682 0.570744,2.152816 -0.693932,7.893855 1.611961,2.938234 3.111004,-4.82648 9.679458,-3.807469 14.611758,-3.91359 4.564993,0.858227 11.919499,-1.184299 13.941418,4.328631 2.62417,3.458203 -3.644052,11.019 -4.86564,4.915731 2.117005,-5.548456 -7.150285,-6.071441 -4.035758,-0.09383 0.753024,4.546542 -7.523307,2.602105 -4.71254,-1.66071 0.885035,-1.777563 -0.04296,-8.98447 -1.408132,-3.830649 0.132204,3.69651 0.226801,9.192225 -5.164968,7.822635 -3.996336,0.646398 -7.926355,-0.749592 -10.634591,-3.173591 -2.213835,3.772009 -8.121224,4.477755 -11.397819,1.787417 -2.624615,-2.093894 -6.061434,2.787504 -9.702367,1.397378 -6.99421,-0.02329 -14.17332,0.46975 -21.023603,-1.077067 C 24.766746,76.12078 20.917881,79.69984 16.75,78.195209 z M 43,71.881966 c 0.619671,-2.327219 -1.565037,-5.281696 -1.828613,-1.102277 -0.909718,1.921763 0.553849,8.970682 1.657226,3.440622 0.117404,-0.773514 0.170462,-1.5562 0.171387,-2.338345 z m -20.697179,2.72702 c -0.614414,-5.027339 -8.759256,-0.554979 -2.939416,1.012254 1.001423,0.244457 2.596686,0.211221 2.939416,-1.012254 z M 37,71.964816 C 35.643609,65.581555 28.499617,77.034048 35.000781,75.059052 36.103301,74.435234 36.990807,73.273957 37,71.964816 z M 66.361626,73.5 c 2.65075,-5.904501 -7.47234,-3.822991 -7.606293,-1.585035 3.652929,-1.446626 4.847864,6.205486 7.606293,1.585035 z M 81.819551,72.25 C 81.878238,65.557762 71.288794,75.443747 78.75,74.816422 80.199968,74.743072 81.770586,73.889498 81.819551,72.25 z M 6,77 C 3.8644336,74.263952 13.815014,77.517467 8.1254299,77.889038 7.3644528,77.745207 6.6486816,77.416093 6,77 z m 97,0 c 1.9303,-2.870484 7.29903,0.731638 1.94098,1 C 104.26376,77.963293 103.14884,77.849027 103,77 z M 2.5,74 C 3.7664555,71.295912 13.947723,74.16057 7.2502379,74.97959 5.6686069,74.984145 3.7969281,75.044954 2.5,74 z M 103,74 c 1.59751,-2.357121 11.61892,-0.318524 5.55312,0.921094 C 106.77119,74.946913 104.38034,75.328199 103,74 z M 1,71 C 2.9152715,69.616559 9.2904819,69.283588 9.6449219,71.388281 7.0149253,72.13914 3.3095902,72.54428 1,71 z m 102,0 c 1.91527,-1.383441 8.29048,-1.716412 8.64492,0.388281 C 109.01493,72.13914 105.30959,72.54428 103,71 z M 0.25,67.75 C 2.5739669,66.03684 8.4817798,65.586562 9.6520665,68.321825 7.1895035,69.050735 1.8303013,69.892996 0.25,67.75 z m 103,0 c 2.32397,-1.71316 8.23178,-2.163439 9.40207,0.571825 C 110.1895,69.050735 104.8303,69.892996 103.25,67.75 z M 29.314715,61.536343 C 23.434804,59.62575 23.394147,52.642101 23.232458,47.564085 23.073514,38.543021 23.340809,29.521178 23.40721,20.5 c 0.50037,11.6964 0.407157,23.444307 1.794029,35.081045 1.589415,5.265925 8.229314,4.75423 12.621503,5.185139 11.643651,0.282108 23.323238,0.494901 34.953532,-0.194165 6.003203,-0.08437 10.456534,-6.157626 9.935605,-11.835093 -2.236761,-2.320247 -6.633779,-8.741102 -9.672656,-6.031399 -1.843774,4.614866 -0.01535,9.441905 1.831989,13.707961 -2.217163,2.920071 -8.771752,0.819451 -12.632187,1.1652 -4.949918,1.300915 -1.950371,-5.535992 -6.732126,-4.405162 C 50.699343,52.501746 46.030123,51.048193 41.113343,51.807931 33.170086,51.99783 28.001458,42.329732 30.811717,35.424979 34.315625,30.627961 31.836066,23.02243 37.410307,19.495222 36.479043,22.870752 40.669573,18.195304 41,19.86336 c 2.966814,4.337931 10.28429,-2.985317 5.36249,-4.453274 -1.637607,1.385451 -2.066779,6.960873 -3.132533,2.140123 -0.727107,-2.766314 -7.930206,0.317474 -3.671762,-3.578187 3.052531,-3.709407 10.26649,-4.4643597 11.738813,1.125852 1.779212,3.276848 -2.645157,12.053351 4.126299,8.436551 4.640825,-0.913121 6.015135,-6.299014 4.824675,-10.306894 C 58.658481,7.6433267 51.835178,7.5658773 47.110255,7.1900234 40.094788,7.0164025 33.015322,6.6640768 26.032552,7.4313179 23.632043,8.0173923 22.701944,13.294044 23.398231,8.1742878 26.858287,5.581952 32.063858,6.9575184 36.248327,6.4274221 51.521917,6.0332945 66.83169,6.5500302 82.081543,5.5460483 87.622725,5.2854516 91.380409,-0.96561381 97.207087,0.26324883 96.803982,3.195767 87.906105,3.9994785 89.952174,6.9321078 c 4.982586,0.7239311 8.66304,5.2605912 11.305106,9.2420212 5.23046,8.46898 2.08047,20.940421 -7.002982,25.367603 -3.378177,3.322963 -11.943332,0.294527 -10.258036,7.208268 0.31753,6.456844 -4.329316,13.580799 -11.290665,13.540486 -13.368892,1.076258 -26.865223,1.116493 -40.226174,-0.08984 -1.063552,-0.156711 -2.155168,-0.270579 -3.164708,-0.664306 z m 42.140926,-9.66207 C 69.993613,46.45902 69.595052,40.643318 70.32739,35.104504 c 3.254954,2.198912 6.096703,6.630069 10.660371,7.378972 8.700313,2.460845 18.399783,-3.645491 20.963429,-12.060353 C 101.46508,25.977934 94.420799,28.736469 91.234375,28.601218 86.734732,28.290146 81.330576,32.831384 85.166667,37 c 0.466714,1.767963 -7.929613,-0.693181 -8.796579,-3.545339 3.382162,-2.835229 8.159637,-3.660973 12.175935,-5.505484 4.480348,-1.916547 9.50453,-3.087698 13.296757,-6.257352 C 101.54906,16.536561 97.246048,11.732348 92.843395,9.2236877 89.594319,8.2853828 83.141863,5.141618 81.160001,8.1165496 c 3.170103,3.9390774 2.834256,9.1305334 2.903756,13.8864844 -1.082366,2.970405 5.168666,3.821471 -0.0369,3.710506 -4.370666,-0.582737 -10.84633,2.114909 -13.744567,-2.002553 0.266247,-3.683063 -2.310261,-11.72572 2.708538,-12.41197 3.53562,3.296885 0.237117,9.057185 -0.793335,12.956436 4.305788,0.857493 10.164625,-2.303812 10.692191,-7.176005 0.794401,-6.112381 -5.616748,-10.3064967 -11.165881,-9.9817875 -4.982493,-0.00491 -9.137319,5.3639605 -8.706295,10.2166405 1.350599,5.4247 -1.718544,10.029266 -7.639271,8.811943 -7.753806,0.23638 -16.641359,1.329221 -21.752444,7.906631 -3.682492,3.265592 -2.699744,8.647873 -0.203075,12.291205 3.499068,5.568861 12.400802,5.993873 16.401504,0.762577 2.433361,-2.817746 -1.077022,4.398754 2.949825,2.861284 5.187584,1.306993 10.573792,-0.857165 8.566268,-6.951725 0.306077,-2.511235 -1.594426,-9.332752 1.010321,-9.557649 1.340906,5.333416 0.114419,10.996254 1.475415,16.360833 -0.983277,1.633694 -3.810856,1.563874 -3.433038,4.618813 1.610091,2.983722 8.207545,1.405791 11.515987,1.066071 0.858716,-1.065978 -0.210603,-2.489796 -0.453357,-3.610011 z M 39.472595,43.969718 c -3.609518,-4.445477 1.803996,-9.557254 6.053053,-10.807815 3.54978,-1.869913 8.078091,-1.236375 6.451704,3.82692 0.0119,5.167462 -5.217236,11.062812 -10.622181,8.464952 -0.712566,-0.372674 -1.344535,-0.88871 -1.882576,-1.484057 z M 88.694236,15.468399 c -1.73766,-1.058378 -2.98982,-3.888192 -0.156087,-1.363663 1.539378,1.037825 5.131819,5.640719 1.378067,2.413349 l -0.575653,-0.487555 -0.646327,-0.56213 0,-1e-6 z"
       id="path2992" />
    <path
       style="fill:#3b4ffb"
       d="M 6,77 C 3.8644336,74.263952 13.815014,77.517467 8.1254299,77.889038 7.3644528,77.745207 6.6486816,77.416093 6,77 z m 6,-4.586964 c -1.721731,-3.851432 3.055492,-8.082791 5.202189,-3.561522 3.422394,0.471711 7.234881,0.0605 9.906154,2.712644 2.894032,-4.56699 8.881674,-5.698252 13.702497,-3.893494 1.49296,4.658048 0.445718,12.240083 -6.2281,10.103432 -4.305007,0.440316 -7.706668,-3.808387 -10.848585,-0.18139 -3.817615,-0.163031 -11.65683,2.430843 -11.721371,-3.392847 L 12.001598,73.36588 12,72.413036 z m 10.5,1.600659 c -1.090778,-4.964408 -8.919009,0.944803 -2.993784,1.834615 1.146152,-0.02457 2.864611,-0.438545 2.993784,-1.834615 z m 13.671259,0.331317 c 5.886125,-4.219319 -5.15513,-6.515073 -4.060905,-0.754646 0.168141,2.941272 2.604594,2.67438 4.060905,0.754646 z M 43,72.5 c -1.397316,-3.132925 2.054379,-8.054952 4.451052,-4.275495 -0.199577,2.837521 -1.670803,10.138184 3.278559,6.428543 4.246482,-3.12454 10.169976,-3.28241 13.986975,0.192581 4.953577,-1.726681 0.310597,-7.403279 -3.492446,-4.855794 -2.53929,1.983054 -7.710005,0.01424 -4.056632,-2.671716 4.412135,-0.141679 9.533059,-1.204296 13.56111,0.668018 0.823905,4.736477 -1.586052,11.37451 -7.531698,9.950365 -3.397722,0.401312 -5.466957,-4.398884 -8.262387,-0.805943 C 51.20904,77.800632 42.914891,80.235791 43.011077,74.31543 L 43.001385,73.46814 43,72.5 z m 30.141476,4.241476 c -3.046795,-3.917357 0.194069,-9.59155 5.040682,-9.521821 3.992464,-1.09962 9.377124,-0.216617 7.817842,5.138753 1.669296,7.035554 -6.896375,5.628995 -11.217387,5.005896 l -0.735649,-0.186168 -0.905488,-0.43666 z m 6.924265,-1.77666 c 5.124464,-2.778126 -1.352557,-7.750172 -3.480962,-2.759503 -1.289467,2.665302 0.940268,5.059931 3.480962,2.759503 z M 87.5,72.488691 c -0.861334,-3.712808 0.91413,-6.561237 4.925638,-5.316408 5.993277,-3.97014 11.858562,5.74975 7.147304,10.062404 -5.462642,3.472811 -1.029516,-9.0885 -7.187739,-5.70797 0.06314,2.761516 -0.574096,8.958439 -4.533157,5.611267 C 87.390955,75.640535 87.550788,74.032424 87.5,72.488691 z M 103,77 c 1.24371,-2.090582 7.54479,-0.708861 2.54959,0.71123 C 104.76143,77.99175 103.06649,78.267516 103,77 z M 2.5,74 C 3.7664555,71.295912 13.947723,74.16057 7.2502379,74.97959 5.6686069,74.984145 3.7969281,75.044954 2.5,74 z M 103,74 c 1.71596,-2.36228 11.58846,-0.340412 4.82582,0.921094 C 106.28395,74.961417 104.09976,75.30136 103,74 z M 1,71 C 2.9152715,69.616559 9.2904819,69.283588 9.6449219,71.388281 7.0149253,72.13914 3.3095902,72.54428 1,71 z m 102,0 c 1.91527,-1.383441 8.29048,-1.716412 8.64492,0.388281 C 109.01493,72.13914 105.30959,72.54428 103,71 z M 0,68 C 2.2064293,66.599299 9.1296325,66.228055 9.6054688,68.388281 6.6739228,69.10852 2.6167594,69.605237 0,68 z m 103,0 c 2.20643,-1.400701 9.12963,-1.771945 9.60547,0.388281 C 109.67392,69.10852 105.61676,69.605237 103,68 z M 30.326071,61.900932 C 25.02393,60.181781 22.820886,54.246647 23.1849,49.093631 c -0.07338,-8.076553 -0.01737,-16.16356 0.260552,-24.233385 0.630336,10.624603 0.691284,21.282219 1.386113,31.904452 3.455769,3.023484 7.943049,4.240853 12.471544,4.076115 12.443068,0.12123 24.935182,0.509617 37.345485,-0.554714 5.138232,-0.638959 8.491395,-6.612911 8.024652,-11.451854 -1.853857,-2.79242 -6.577184,-8.84913 -9.8059,-6.716024 -1.97587,4.782239 0.960761,10.099727 0.792194,14.417499 -4.628216,0.822473 -9.486695,0.514052 -14.166325,0.170087 -1.73786,-1.094398 0.349572,-4.903631 -3.626584,-3.781885 -2.603044,-0.469502 -8.824056,-0.55834 -8.978557,-3.222066 1.691252,-1.202588 4.186794,-3.411808 3.687627,-0.186435 3.867475,0.609435 12.164178,2.260435 11.079214,-4.208719 -0.04963,-3.56304 -0.353405,-7.119583 -0.372398,-10.682611 0.641376,5.310142 1.278924,10.67731 2.348677,15.885695 -3.569708,-0.106114 -4.886399,6.894137 0.05405,5.459355 3.112264,-0.11411 10.908912,1.439778 7.770402,-4.094868 -1.417756,-5.189467 -1.901547,-10.795788 -1.087107,-16.091861 3.750003,2.621483 7.318027,7.472197 12.797765,7.150074 7.26168,0.924932 14.757638,-3.0982 17.694441,-9.862279 2.44827,-3.048889 1.35297,-6.233244 -2.84732,-5.070207 -3.021822,0.542011 -7.146055,-1.071132 -2.218386,-2.470679 2.945121,-1.361476 10.233936,-5.013931 7.920146,1.522674 -0.68403,6.670556 -4.890378,12.723892 -11.111807,15.346667 -4.851622,1.035776 -10.226992,2.049409 -8.949012,8.440583 -0.260696,5.929233 -5.004182,11.608903 -11.226002,11.382152 -13.587415,0.801509 -27.269588,1.034534 -40.843647,-0.07794 l -0.716841,-0.116726 -0.5418,-0.125798 0,0 z M 33.189699,47.701925 C 29.210911,43.727622 29.870936,37.547319 32.123261,32.883143 33.857008,28.388429 32.82784,22.238066 37.504015,19.41508 c -1.092532,3.955741 3.713921,-2.250592 3.706092,0.9726 3.502328,2.505457 9.192149,-2.066845 5.67453,-5.217001 -2.294768,0.713772 -2.40849,7.572319 -3.65468,2.37953 -0.952358,-2.623 -7.988785,0.100521 -3.425382,-3.646814 3.269295,-3.706891 10.740626,-3.819381 11.694061,1.997099 1.479027,3.224875 -3.857425,11.468161 2.955753,8.125109 4.92616,-1.380294 8.635343,-7.582824 5.364122,-12.165678 C 55.966551,6.1810234 48.394658,7.2391557 42.455513,7.0122789 36.828842,7.1635013 31.110726,6.5764979 25.553194,7.5786061 23.561464,8.8494759 22.713093,12.833852 23.402671,8.1738281 26.929783,5.6060287 32.142328,6.9074812 36.367234,6.3488274 53.12271,5.9038112 69.904674,6.0737475 86.637988,5.037011 87.471604,2.421662 94.750375,-1.1161968 97.166,0.99358824 92.780318,2.8782478 89.419411,7.3194128 84.431906,7 c -4.067484,-0.9860957 -4.340457,1.6988835 -1.697293,4.138262 1.782658,2.161996 1.106081,4.713944 -0.68484,1.17556 C 79.264575,6.9617098 71.678444,5.0638142 66.92974,8.9640059 62.164183,11.702899 62.439836,17.493277 61.972153,22.229153 c -0.766736,5.440785 -7.71137,3.261315 -11.526843,4.140681 -6.95564,0.732674 -15.380783,2.661713 -18.480006,9.694362 -2.003459,4.913383 0.491516,10.175501 3.899429,13.746294 -0.610581,0.340391 -2.020014,-1.576679 -2.675034,-2.108565 z m 6.142842,-4.317156 c -3.234686,-3.818581 1.606494,-8.481326 5.24932,-9.623513 3.30304,-1.542045 9.093237,-2.688783 7.392897,2.952215 -0.151681,4.911475 -4.693691,10.559235 -10.02137,8.908809 -1.096789,-0.429142 -1.986328,-1.262445 -2.620847,-2.237511 z M 79.25,35.779505 c -5.764255,-3.698082 4.373148,-5.526441 7.248508,-6.528984 -4.225009,1.581136 -0.270854,10.976575 -7.248508,6.528984 z m -9.04381,-17.0189 c -0.603065,-2.603421 1.190065,-11.0608683 3.988671,-5.709846 1.04211,3.898298 -2.906139,9.040793 -0.996876,12.025776 4.639491,-0.136813 8.355365,-5.259574 10.694261,-7.250917 0.928282,4.258405 -0.0083,9.773937 -5.696168,8.173222 -5.217774,1.313489 -9.806558,-1.528229 -7.989888,-7.238235 l 0,0 z M 102,19.816705 C 100.47798,14.513126 95.988462,10.177364 90.989786,7.9849145 90.447114,5.8716069 96.399889,9.8943362 97.625779,11.252067 99.86,13.446191 104.06851,18.108412 102.1737,20.714128 L 102,19.816705 z"
       id="path2990" />
    <path
       style="fill:#2333fe"
       d="M 6,77 C 3.8644336,74.263952 13.815014,77.517467 8.1254299,77.889038 7.3644528,77.745207 6.6486816,77.416093 6,77 z m 6.5,-4.585045 c -1.71484,-4.4202 3.384424,-7.777841 5.234688,-2.977374 3.640751,-1.106206 6.852401,0.711071 9.730557,1.768299 3.121776,-3.949905 8.820097,-5.349386 13.393452,-3.537139 1.346705,4.598025 0.482678,12.091963 -6.12934,10.118479 C 30.4785,79.206881 27.237783,72.813875 24.549626,77.349809 20.68818,77.63356 12.585939,80.06126 12.512151,74.202406 L 12.501519,73.368136 12.5,72.414955 z m 10,1.59874 c -1.090778,-4.964408 -8.919009,0.944803 -2.993784,1.834615 1.13686,-0.02066 2.874006,-0.444772 2.993784,-1.834615 z m 13.97852,0.364927 c 3.532019,-2.786438 -0.84941,-7.590652 -3.482932,-3.37421 -3.819623,2.525888 1.118285,7.206888 3.482932,3.37421 z M 43,72.5 c -1.397316,-3.132925 2.054379,-8.054952 4.451052,-4.275495 -0.325733,3.030339 -1.528527,10.262756 3.502387,6.264951 1.988837,-1.667136 6.399514,-3.930333 4.964577,0.887324 -2.192367,3.730113 -9.615788,3.460882 -12.658657,1.280447 C 42.91042,75.299433 43.03247,73.885396 43,72.5 z m 16.222506,3.943296 c -4.930588,-3.083374 0.112217,-6.28352 2.990066,-2.490727 5.013876,4.890393 6.996456,-6.93061 0.610442,-4.581478 -2.068405,1.34862 -8.053,1.76821 -6.014522,-1.905485 4.443868,-0.368307 9.759759,-1.372228 13.801423,0.571992 0.650278,4.469828 -1.759014,11.005519 -7.323368,9.862039 -1.443355,-0.149796 -2.86874,-0.623321 -4.064041,-1.456341 z M 73.09435,76.69435 c -3.293396,-4.375016 1.603516,-10.432557 6.612291,-9.668569 4.499268,-1.28284 7.550702,1.719207 6.291917,6.252705 0.913882,6.421075 -7.343696,4.309128 -11.281295,4.017092 L 73.985259,77.114876 73.09435,76.69435 z m 6.971391,-1.729534 c 4.808945,-2.536466 -0.457997,-8.659173 -3.125957,-3.708969 -1.961103,2.498853 -0.02676,6.462415 3.125957,3.708969 z M 88,72.603423 c -1.743451,-6.783843 6.526871,-5.975585 10.731461,-4.893422 3.162749,2.316617 3.571209,10.286667 -1.594434,10.216331 -1.286245,-1.904286 0.835543,-8.794681 -4.155575,-7.268923 -1.696779,2.201132 -0.0025,9.947151 -4.638801,6.418019 C 87.920678,75.629462 88.040695,74.090544 88,72.603423 z M 103.5,77 c 1.76278,-2.019703 6.6844,-0.602097 2.01133,0.716168 C 104.94926,77.970407 102.77023,78.306405 103.5,77 z M 2.5,74 C 3.7664555,71.295912 13.947723,74.16057 7.2502379,74.97959 5.6686069,74.984145 3.7969281,75.044954 2.5,74 z M 103,74 c 1.71596,-2.36228 11.58846,-0.340412 4.82582,0.921094 C 106.28395,74.961417 104.09976,75.30136 103,74 z M 1,71 C 2.9152715,69.616559 9.2904819,69.283588 9.6449219,71.388281 7.0149253,72.13914 3.3095902,72.54428 1,71 z m 102,0 c 1.91527,-1.383441 8.29048,-1.716412 8.64492,0.388281 C 109.01493,72.13914 105.30959,72.54428 103,71 z M 1,68 C 2.9152715,66.616559 9.2904819,66.283588 9.6449219,68.388281 7.0149253,69.13914 3.3095902,69.54428 1,68 z m 102,0 c 2.20643,-1.400701 9.12963,-1.771945 9.60547,0.388281 C 109.67392,69.10852 105.61676,69.605237 103,68 z M 26.687091,59.195281 c -1.362953,-0.87704 -4.213825,-5.887684 -1.038574,-2.352305 1.432465,2.81633 6.252476,3.96269 7.600784,4.993119 -2.523918,0.489727 -4.883593,-0.856011 -6.56221,-2.640814 z m 47.693607,1.770296 c 5.538408,-1.544118 10.429285,-8.157424 7.646627,-13.759856 -2.423314,-2.485358 -9.392448,-9.959415 -9.759261,-2.533872 -0.642087,2.167398 -0.01428,9.040774 -1.571711,3.538698 -0.288569,-3.778915 -1.596957,-10.048155 0.241787,-12.437017 2.758864,3.986306 7.066975,7.264039 12.076947,7.385887 2.078253,3.655812 0.771382,8.804888 -0.674267,12.655137 -0.837827,4.068877 -7.977087,7.465924 -9.548131,5.64252 l 0.664549,-0.212521 0.92346,-0.278976 0,0 z M 72.656295,54.79367 C 70.955168,49.704692 75.380844,55.170122 74.095193,57 73.191158,56.71423 72.939098,55.567248 72.656295,54.79367 z M 23.409181,37.5 c 0.0679,-3.023909 -0.128824,-8.852591 0.266542,-10.099515 0.276447,6.785389 0.320389,13.594306 -0.06029,20.375534 C 23.308503,44.367953 23.468328,40.920273 23.409181,37.5 z m 26.21508,14.181695 c -4.364334,-0.439617 -0.209761,-4.95911 1.329572,-2.135608 3.27947,-0.157286 12.062527,2.805005 11.30397,-2.485264 -0.132327,-2.191635 3.765468,5.556835 -0.817178,4.232927 -2.19006,3.258501 -8.575289,1.171858 -11.816364,0.387945 z M 39.496485,43.634979 c -3.095022,-4.998234 2.665953,-10.059067 7.466434,-10.484638 5.945656,-2.301101 6.034328,5.024139 3.590946,8.376383 -2.053994,3.738866 -8.154822,6.618054 -11.05738,2.108255 z M 61.320074,39 c -0.177825,-2.005263 0.330809,-5.887147 0.528099,-1.731641 0.365624,2.150637 -0.486117,8.564199 -0.519867,2.971021 L 61.322166,39.645279 61.320074,39 z M 95,40.687091 c 1.160447,-1.557111 7.92997,-7.63377 4.079118,-3.508456 C 97.917692,38.055048 96.260877,41.135123 95,40.687091 z M 79.221799,35.766922 c -6.028485,-2.128522 6.483296,-8.607314 4.350321,-2.200151 0.423795,3.520959 -1.694356,3.883019 -4.350321,2.200151 z M 33.673034,29.550557 C 33.253787,26.045589 34.7579,20.742924 37.517171,19.75 c -0.330028,3.463205 3.878273,-2.987913 4.313947,0.973507 3.861598,2.488453 8.722125,-4.276975 4.531372,-5.313421 -1.638029,1.39234 -2.06924,6.96082 -3.134351,2.133659 -0.744887,-2.981357 -7.443373,0.738599 -3.091534,-3.163938 3.114704,-5.3629556 11.192644,-3.74227 11.269123,2.691163 1.129363,3.121488 -4.138114,9.707655 2.428005,7.71394 5.106417,-1.606209 9.323594,-8.062195 5.84141,-13.009252 C 57.304611,6.7507542 51.257452,7.498593 46.670212,7.1803824 41.159615,6.9279603 35.634833,6.882989 30.133441,6.4985474 c 13.548172,-0.2464555 27.131,-0.4461901 40.678034,0.056725 -3.770443,1.2438141 -8.521,5.1693738 -8.548,10.1790378 0.0071,4.468045 0.288884,10.98686 -6.237291,9.269057 -7.023268,-0.148018 -14.548893,0.525421 -20.269217,5.060165 -1.892063,1.756138 -2.499614,0.515025 -2.083933,-1.512975 z M 93,27.234719 c 3.026185,-1.63606 7.91971,-4.878659 10.81911,-3.500344 C 106.10851,30.275432 96.057277,27.86039 93,27.234719 z M 70.015313,19.75 c -0.75851,-2.706743 1.322508,-12.2184161 3.706543,-6.301377 1.422532,3.547797 -3.295965,9.680482 -0.511993,11.519859 3.969525,0.346174 6.940808,-3.625104 9.570704,-4.874984 1.791675,3.841586 -0.407104,7.160369 -4.784634,5.905663 -4.712595,0.606222 -9.465941,-0.22357 -7.98062,-6.249161 z M 76,7.3417604 C 70.293214,5.5329302 79.655772,6.2308763 81.505859,6.2913223 85.652391,6.1978051 77.527054,9.2094305 76,7.3417604 z M 89.5,2.4739138 C 91.193005,1.4207619 96.635765,-1.2963143 97.160312,0.71533145 94.684903,2.5355011 88.504307,6.3806643 86.839688,4.2324962 87.674279,3.5711343 88.601473,3.0408979 89.5,2.4739138 z"
       id="path2988" />
    <path
       style="fill:#1415fd"
       d="M 12.5,72.4 C 11.50348,69.445478 13.89876,64.514978 16.880682,68.175 16.236593,73.670459 22.753848,65.788333 25,71 c 2.00417,2.724567 3.289072,1.800587 3.722293,-1.159241 2.841716,-2.646448 10.648295,-5.007909 12.210871,-0.520447 0.441873,3.602501 0.570785,11.409165 -4.650205,7.439533 -3.775449,1.923199 -7.05632,1.050192 -9.303117,-2.525647 -2.760504,4.325733 -8.50679,3.86979 -13.072777,3.281036 C 11.921256,76.724719 12.704658,74.029275 12.5,72.4 z m 10.285397,1.724173 c -1.699748,-4.180028 -10.575142,0.297883 -3.531434,1.961856 1.488011,0.60537 4.06032,0.216249 3.531434,-1.961856 z m 13.280344,0.840643 c 5.192279,-3.210814 -1.556087,-8.628841 -4.028292,-3.285438 -2.497061,3.39453 1.220476,5.592377 4.028292,3.285438 z M 43.213644,72.5 c -1.099441,-3.10062 1.594131,-7.750235 4.517187,-4.611309 -1.533295,2.633714 -2.967521,9.503146 2.276016,7.01275 2.241877,-1.141694 7.958433,-4.515034 5.455112,0.793982 C 52.59094,78.218032 43.816734,80.221638 43.220286,75.049927 43.193221,74.20018 43.207963,73.349912 43.213644,72.5 z M 58.75,75.75 c -4.654253,-3.840711 4.126655,-2.84385 5.141102,-0.02812 5.918101,-0.0778 2.324069,-9.421899 -2.675899,-6.184446 -2.302887,2.202662 -6.336012,-0.295348 -3.033212,-2.220371 3.725234,0.141459 10.467694,-1.872537 12.424998,1.264726 1.002601,6.251408 -5.226318,12.519885 -11.042119,7.879478 L 58.75,75.75 z m 14.736137,0.982304 c -4.29295,-4.241374 2.242679,-10.102723 6.917702,-9.697969 6.430901,-2.11158 6.23074,7.277518 3.811038,10.380698 -3.511946,0.482444 -7.319887,0.319595 -10.72874,-0.682729 z M 80.8,74.8 C 84.142261,71.352797 80.340893,66.350955 76.978877,70.883541 74.105529,73.500769 77.965773,78.347525 80.8,74.8 z M 88,72.19098 c -1.549122,-6.183076 6.090757,-5.300893 9.870234,-4.289258 4.551866,0.865227 3.459816,10.924265 -0.653793,8.244916 C 99.91242,70.968132 90.053754,67.137412 91.34215,74.230814 92.568898,80.058855 86.244109,76.139091 88,72.19098 z M 2.5,74 C 3.7664555,71.295912 13.947723,74.16057 7.2502379,74.97959 5.6686069,74.984145 3.7969281,75.044954 2.5,74 z M 103,74 c 1.71596,-2.36228 11.58846,-0.340412 4.82582,0.921094 C 106.28395,74.961417 104.09976,75.30136 103,74 z M 1,71 C 2.9152715,69.616559 9.2904819,69.283588 9.6449219,71.388281 7.0149253,72.13914 3.3095902,72.54428 1,71 z m 102.5,0 c 1.3914,-1.578497 7.81348,-1.595878 8.18903,0.388281 C 109.1453,72.284055 105.87158,72.341316 103.5,71 z M 3.2637497,67.282419 c 1.7202034,-0.59615 8.1233843,0.319686 3.1950026,0.425501 -0.2632058,-0.02047 -5.46371342,0.115206 -3.1950026,-0.425501 z m 102.0000003,0 c 1.72021,-0.59615 8.12337,0.319685 3.19499,0.425501 -0.26321,-0.02047 -5.4637,0.115212 -3.19499,-0.425501 z M 27.076725,59.411106 c -2.093742,-0.755962 -4.334892,-6.508916 -1.29844,-2.234941 1.319144,1.444824 8.97284,6.592338 3.216661,3.679188 -0.665417,-0.445531 -1.305078,-0.929237 -1.918221,-1.444247 z M 50.144988,51.633519 C 46.829653,51.848945 47.344148,48.013671 49.940634,48.592831 50.518796,53.426137 58.201311,49.19834 60.5,52 57.519053,53.870051 53.284123,52.510621 50.144988,51.633519 z M 83,49.674314 c -0.647796,-4.507329 -5.295962,-6.999318 -9.100132,-8.575468 -1.196729,1.138317 -2.943407,5.362348 -2.923461,0.961041 -0.72379,-2.833629 -0.383779,-7.089205 2.687823,-3.050114 3.100051,3.94356 11.857185,3.139893 10.325565,9.855716 C 84.316427,51.103626 82.892389,53.379886 83,49.674314 z M 40.571429,44.428571 c -4.020071,-3.913984 0.401314,-9.696779 4.80787,-10.757694 4.112157,-2.29325 8.550514,0.525348 6.126926,5.17465 -1.136286,4.317883 -6.662739,9.554416 -10.934796,5.583044 z m 39.780898,-8.484448 c -6.303004,-0.824789 0.867395,-6.994811 2.59975,-3.557265 -0.02155,1.592886 -0.0019,5.029553 -2.59975,3.557265 z M 34,27.456123 c -0.868746,-2.352161 3.165674,-10.278651 3.764323,-6.493174 2.035166,-0.648831 2.986946,-2.94771 4.066795,-0.239442 3.861598,2.488453 8.722125,-4.276975 4.531372,-5.313421 -1.639008,1.408439 -2.075028,6.960657 -3.13856,2.118524 -0.356923,-3.131145 -7.62581,0.877706 -3.502713,-2.67293 3.056792,-4.744929 10.75694,-5.0585483 11.243565,1.669172 0.486951,3.663411 -2.515101,11.091899 4.053923,7.714661 C 60.378904,22.361576 63.339289,15.02728 59.089901,10.61699 55.548512,6.3828344 49.411363,7.7159894 44.563692,7.1111815 39.572193,6.8813375 34.56723,6.8458573 29.584457,6.4852516 42.342169,6.1969772 55.133946,5.979112 67.898665,6.2629369 c 4.159848,0.998296 -6.244305,3.6101116 -5.160041,7.4917001 -1.907252,4.096662 1.833829,12.698568 -5.222144,12.20746 -6.240693,0.04119 -12.88218,-0.3842 -18.388041,3.141614 C 36.577398,30.506519 33.052255,32.456787 34,27.456123 z m 59.798522,-0.55574 c 2.590795,-1.415048 11.519228,-6.197759 9.486338,-0.153333 -2.92453,0.745816 -6.83665,1.03947 -9.486338,0.153333 z M 70.916667,25.584475 c -0.585729,-4.386176 0.229389,-8.93412 1.203288,-13.230553 2.846894,-0.84867 1.520726,6.900925 0.486866,9.044661 -3.709082,6.250334 6.547383,3.037372 8.332014,0.164019 3.754811,-3.496488 2.582568,7.168028 -1.846712,4.431365 -2.716784,-0.05412 -5.505373,0.16519 -8.175456,-0.409492 z M 76,7 C 72.223046,5.5895246 86.885315,5.6821505 80.087407,7.5734502 78.700894,8.1137268 77.316288,7.3446273 76,7 z M 89.5,2.5260862 C 91.051135,1.5072147 96.837135,-1.2969689 96.955675,0.78198663 94.579499,2.3015627 88.091782,6.4575344 87.075387,4.1626378 87.832489,3.5451577 88.674372,3.0440761 89.5,2.5260862 z"
       id="path2986" />
    <path
       style="fill:#0000fe"
       d="m 13,72.819682 c -1.390917,-3.090744 2.796314,-7.341934 3.115128,-2.307714 2.977454,-0.671774 10.020599,-2.611992 9.866712,3.489971 -1.142523,4.845897 -9.392452,4.2739 -12.704985,2.457069 C 12.90536,75.282096 13.034153,74.032417 13,72.819682 z m 9.802872,1.479268 c 0.412297,-6.509601 -11.614609,0.02676 -4.008226,1.873669 1.762811,0.905269 4.00584,0.493288 4.008226,-1.873669 z M 29.75,76.911729 c -4.426988,-3.623629 0.145028,-10.040649 5.0793,-9.553818 5.634456,-2.345319 7.196224,2.748672 6.115221,7.342785 -0.611709,3.974664 -6.599883,1.16884 -9.371084,2.729711 L 30.587305,77.251831 29.75,76.911729 l 0,0 z M 36.8,74.8 C 40.790444,71.095662 35.033486,66.469208 32.248283,70.937136 28.685738,74.803879 33.591658,77.790912 36.8,74.8 z m 36.849076,1.706219 c -4.309471,-4.160165 2.44679,-10.051213 6.96817,-9.499449 6.257876,-1.788762 5.116287,6.14521 3.495331,9.532362 -3.351635,-0.195878 -7.634922,2.291039 -10.463501,-0.03291 z m 7.829444,-2.127597 c 4.547021,-4.658832 -4.101756,-7.164252 -5.604778,-2.143799 -2.63345,4.394359 3.673348,4.54945 5.604778,2.143799 z M 43.5,72 c -1.462521,-2.716579 2.650027,-7.628308 3.148925,-3.064224 -1.799527,4.104427 0.815965,9.194634 5.353748,5.562842 2.924896,-3.171226 5.893588,1.004886 1.908895,2.159048 C 49.85402,76.855736 41.907309,78.965567 43.5,72 z m 15.7,3.8 c -3.592658,-4.39781 3.635439,-2.443345 4.775846,0.01908 5.586081,-0.59692 2.862964,-9.937946 -2.561841,-6.388122 -2.30588,1.955668 -6.593013,0.425854 -3.303455,-2.108329 3.687212,0.321573 12.126664,-2.704872 12.142012,2.767277 0.686972,5.432505 -4.272349,8.247293 -9.072911,6.592455 C 60.473802,76.517424 59.753324,76.302972 59.2,75.8 z m 29.198799,-3.607033 c -1.451502,-6.025465 6.024423,-5.48901 9.721548,-4.210762 3.991853,1.390408 3.055423,11.225653 -0.817526,7.952011 2.452876,-7.494657 -8.26859,-6.882586 -6.159858,0.316779 -2.822814,2.735384 -2.917495,-2.411063 -2.744164,-4.058028 z M 3,74 C 4.8115662,71.064326 13.5315,74.991493 6.559017,75 5.4156325,74.881049 3.731693,75.077007 3,74 z m 101,0 c 1.43783,-2.339517 10.27049,-0.283217 4.13168,0.921094 C 106.82094,74.9785 104.80473,75.2766 104,74 z M 3.2637497,70.282419 c 1.7202034,-0.59615 8.1233843,0.319686 3.1950026,0.425501 -0.2632058,-0.02047 -5.46371342,0.115206 -3.1950026,-0.425501 z M 105.75,70.294267 c 2.21407,-0.684817 7.58615,0.52109 2.25,0.433369 -0.18291,0.016 -4.07381,-0.0145 -2.25,-0.433369 z M 3.2637497,67.282419 c 1.7202034,-0.59615 8.1233843,0.319686 3.1950026,0.425501 -0.2632058,-0.02047 -5.46371342,0.115206 -3.1950026,-0.425501 z M 105.75,67.294267 c 2.21407,-0.684817 7.58615,0.52109 2.25,0.433369 -0.18291,0.016 -4.07381,-0.0145 -2.25,-0.433369 z M 53,52 c -2.54734,-1.308928 6.802576,-1.436764 7.5,0 -2.003481,1.726734 -5.217401,0.559217 -7.5,0 z m 28.071112,-6.290398 c -2.157531,-1.897882 -2.087151,-3.596713 1.034038,-1.885649 3.588154,-0.0917 1.364373,6.971638 -0.652229,2.347106 L 81.071112,45.709602 z M 40.654988,44.171259 c -4.015742,-3.9753 0.622619,-9.317556 5.008535,-10.135054 4.098373,-2.591705 8.438809,-0.01965 5.456303,4.637314 -1.233118,3.884138 -6.405288,10.242457 -10.464838,5.49774 z M 71,40.877555 c -0.734216,-2.492119 1.248612,-5.048511 2.34014,-1.387369 0.226405,2.759061 -2.827335,7.961524 -2.334856,2.248877 L 71,40.877555 z m 8.5,-5.626608 c -6.656153,-2.072299 6.728726,-6.116156 3.323324,0.169754 C 82.525957,37.335077 80.401143,35.559071 79.5,35.250947 z M 34.013655,28.82258 c -1.084511,-4.654133 1.938314,-9.105638 6.95169,-7.203669 4.241036,1.942711 9.99772,-3.178014 6.107378,-6.744379 -2.164231,3.032082 -4.873902,0.01604 -7.886209,0.714437 2.295742,-4.196264 9.754558,-6.098393 11.282703,-0.212305 1.436485,4.343493 0.193632,10.36776 -5.222049,10.856696 -3.999486,0.914203 -7.534079,3.192482 -10.913263,5.23517 -0.597613,-0.70135 -0.163538,-1.831059 -0.32025,-2.64595 z M 95,26.291151 c 2.389163,-0.473429 9.5407,-5.440525 7.56992,0.103064 C 100.60649,27.189722 96.096718,27.240188 95,26.291151 z M 58.545455,22.545455 c 3.983517,-3.961051 3.056476,-11.197414 -1.332418,-14.5099436 0.894593,-1.8629722 7.07251,-1.3564128 9.040366,-0.2843578 -3.662679,3.7815184 -4.848717,8.8854414 -4.274109,14.0610524 1.917291,4.475157 -9.202802,4.330728 -3.433839,0.733249 z m 20.895407,0.922937 c 1.655318,-1.378909 4.174308,-5.090295 3.526237,-0.427306 0.978403,2.851776 -7.832104,2.473501 -3.526237,0.427306 z M 71.076078,18.25 c -1.201276,-2.905712 1.798653,-9.6400436 2.828865,-3.574135 -0.07563,2.367919 -1.301619,8.109057 -2.700283,8.113686 C 71.081078,21.279755 71.107143,19.763171 71.076078,18.25 z M 88.409677,3.344362 C 90.665563,2.3243611 95.417525,-0.16434763 96.687518,0.86804299 93.723984,2.5825365 89.742168,5.364628 86.574754,4.6516121 87.055918,4.0511793 87.764122,3.7230931 88.409677,3.344362 z"
       id="path2984" />
  </g>
</svg>
